<?xml version="1.0" encoding="utf-8"?>
<!-- Generator: Adobe Illustrator 27.9.1, SVG Export Plug-In . SVG Version: 6.00 Build 0)  -->
<svg version="1.1" xmlns="http://www.w3.org/2000/svg" xmlns:xlink="http://www.w3.org/1999/xlink" x="0px" y="0px"
	 viewBox="0 0 490.21 978.38" style="enable-background:new 0 0 490.21 978.38;" xml:space="preserve">
<style type="text/css">
	.st0{fill:#BC6C25;}
	.st1{fill:#FFFFFF;}
</style>
<g id="背景_xA0_影像_00000005983519200249769600000000827717990742690453_">
</g>
<g id="圖層_4">
</g>
<g id="圖層_2_xA0_影像_00000129172792981016109300000011773951559897851025_">
	<g>
		<path class="st0" d="M246.46,193.01c3.42-3.15,7.46-5.03,11.13-8.87c-5.38,0.9-8.04,4.98-13.23,5.81
			c2.56-3.68,4.55-6.55,6.55-9.42c-0.35-0.29-0.7-0.57-1.05-0.86c-2.34,2.29-4.68,4.57-7.19,7.02c-1.16-1.26-2.01-2.2-2.87-3.13
			c-5.22-5.54-11.74-8.39-19.21-9.21c-4.86-0.53-9.45,0.34-13.44,3.26c-7.45,5.46-11.63,12.85-12.22,22.09
			c-0.26,3.98-0.23,8,0.02,11.97c0.48,7.44,3.04,14.21,7.88,19.9c2.07,2.43,4.77,4.31,7.12,6.4c-0.59,1.79-1.12,3.42-1.92,5.85
			c3.6-1.86,5.13-6.96,9.87-3.67c0,0.88,0,1.97,0,3.27c3.43-3.33,7.97-4.96,9.83-3.65c0.21,1.26,0.44,2.56,0.66,3.86
			c0.8-4.63,4.38-5.75,7.87-7.25c9.28-3.98,13.74-11.42,14.52-21.26c0.47-5.89-0.69-11.56-2.67-17.08
			C247.54,196.39,247.01,194.7,246.46,193.01z M199.75,206.86c0.19-2.61,2.22-4.09,5.4-3.94c3.19,0.15,5.04,2.35,4.86,5.78
			c-0.17,3.26-2.18,5.7-4.62,5.64C202.64,214.28,199.51,210.12,199.75,206.86z M228.38,233.61c-4.66,1.18-9.28,1.55-13.94,0.02
			c-3.69-1.21-6.81-3.09-9.25-6.92c9.28,0.39,16.96-1.81,20.99-10.18c3.12-6.49,2.63-13.32-2.04-18.97
			c-6.09-7.35-14.13-5.87-22.07-3.64c0.17-4.74,1.05-6.17,4.98-6.84c13.22-2.23,24.78,1.2,34.48,10.56c0.39,0.37,0.78,0.8,0.99,1.28
			C248.87,213.3,247.17,228.87,228.38,233.61z M214.82,213.37c0.65-0.46,1.52-1.44,1.89-1.28c0.83,0.37,1.41,1.3,2.35,2.26
			c-0.98,0.76-1.62,1.26-2.26,1.76C216.14,215.2,215.48,214.28,214.82,213.37z"/>
		<path class="st0" d="M350.88,287.28c14.93,2.2,29.87,5.02,44.33-2.15c8.64-4.29,16.29-9.85,23.08-16.84
			c-9.04,2.98-18.08,3.85-27.32,1.69c-9.11-2.13-17.49-5.87-25.16-11.63c0.51,0.05,1.04,0.03,1.53,0.18
			c0.69,0.2,1.34,0.56,2.03,0.79c6.19,2.06,12.3,4.46,18.61,6.08c12.7,3.26,24.47,0.8,35.16-6.82c9.66-6.88,18.06-15.16,26.37-23.56
			c6.38-6.45,12.76-12.92,19.12-19.39c0.47-0.48,0.84-1.07,1.65-2.12c-1.11-0.23-1.74-0.5-2.35-0.46
			c-8.11,0.57-14.85-2.73-21.12-7.39c-8.85-6.57-16.49-14.44-22.14-23.8c-8.06-13.35-15.45-27.12-22.89-40.84
			c-4.84-8.94-9.25-18.11-13.87-27.17c-0.41-0.81-0.88-1.59-1.31-2.39c-13.3-24.68-33.48-40.69-60.59-47.84
			c-7.36-1.94-14.85-3.43-22.27-5.15c-1.12-0.26-2.2-0.66-3.29-1c0-0.4,0.01-0.81,0.01-1.21c1.84-0.16,3.69-0.55,5.5-0.43
			c35.25,2.25,65.09,14.55,84.05,46.24c6.42,10.74,12.06,21.95,18.02,32.97c6.14,11.33,12.01,22.82,18.45,33.99
			c5.93,10.28,13.38,19.5,22.71,26.92c3.63,2.89,7.91,5.08,12.14,7.04c3.51,1.63,7.4,1.38,11.25,0.61c3.31-0.66,6.72-1.51,10.41,0
			c-0.59,2.83-2.23,4.76-4.52,5.8c-2.99,1.37-4.81,3.7-6.66,6.21c-15.16,20.46-31.33,40.03-50.45,56.98
			c-7.5,6.65-15.45,12.64-24.86,16.46c-8.62,3.51-17.54,4.75-26.7,3.32c-6.42-1-12.75-2.58-19.12-3.91
			C350.76,288.06,350.82,287.67,350.88,287.28z"/>
		<path class="st0" d="M117.57,146.67c-4.05-10.87-3.76-22.14-2.68-33.37c2.34-24.37,11.74-45.91,27.02-64.94
			c8.58-10.68,19.36-18.61,31.67-24.4c20.7-9.73,42.44-16.13,65.18-18.65c17.69-1.96,35.15,0.07,52.39,4.31
			c14.52,3.58,28.54,8.4,41.66,15.73c16.82,9.4,29.49,22.81,38.65,39.62c1.34,2.46,2.01,5.3,3.34,8.93
			c-3.86-1.18-5.33-3.42-6.92-5.48c-3.66-4.74-7.18-9.6-10.97-14.24c-8.5-10.41-18.75-18.81-30.84-24.64
			c-26.6-12.83-54.6-20.09-84.29-17.85c-25.62,1.93-49.93,9.24-72.69,21.29c-9.89,5.24-18.33,12.38-25.4,21.1
			c-19.34,23.86-28.53,51.1-27.18,81.83c0.16,3.62,0.65,7.22,0.99,10.83C117.5,146.74,117.57,146.67,117.57,146.67z"/>
		<path class="st0" d="M210,208.7c0.18-3.44-1.66-5.64-4.86-5.78c-3.18-0.15-5.21,1.33-5.4,3.94c-0.24,3.26,2.89,7.42,5.64,7.49
			C207.82,214.41,209.83,211.96,210,208.7z"/>
		<path class="st1" d="M241.53,197.66c-9.7-9.36-21.26-12.79-34.48-10.56c-3.94,0.66-4.82,2.09-4.98,6.84
			c7.94-2.24,15.99-3.72,22.07,3.64c4.67,5.65,5.16,12.48,2.04,18.97c-4.02,8.37-11.7,10.57-20.99,10.18
			c2.44,3.83,5.56,5.72,9.25,6.92c4.66,1.52,9.27,1.15,13.94-0.02c18.8-4.74,20.49-20.31,14.14-34.67
			C242.31,198.46,241.92,198.03,241.53,197.66z"/>
		<path class="st0" d="M216.71,212.09c-0.37-0.16-1.24,0.82-1.89,1.28c0.66,0.91,1.32,1.83,1.98,2.74c0.64-0.5,1.28-1,2.26-1.76
			C218.12,213.39,217.54,212.45,216.71,212.09z"/>
		<path class="st0" d="M225.68,289.79c-1.71-0.8-3.43-1.6-5.16-2.41c-7.71,3.19-14.1,8.08-19.37,14.5
			c-5.55,6.75-12.15,11.83-20.99,13.65c-4.15,0.86-8.16,1.46-12.29-0.5c1.38,4.42,3.49,6.06,7.7,5.69c2.69-0.24,5.33-1.06,8.02-1.44
			c2.28-0.33,4.59-0.4,6.97-0.6c0,0.87,0.15,1.38-0.02,1.53c-4.74,4.08-10.5,5.54-16.5,5.76c-3.23,0.12-5.95-1.92-7.46-4.78
			c-1.68-3.17-3.69-6.52-4.08-9.96c-1.17-10.35-8.33-15.57-16.1-20.51c-0.61-0.39-1.32-0.6-1.97-0.92c-1.97-1-3.17-2.55-2.7-4.81
			c0.47-2.27,2.06-3.25,4.67-3.03c0,1.35,0,2.67,0,3.81c13.24,1.25,26.29,3.06,39.39,3.48c7.29,0.23,14.74-1.46,21.96-3.02
			c4.7-1.02,10.63-1.74,8.97-10.09c0.5,0.18,1,0.37,1.5,0.55c2.84,3.97,5.68,7.94,8.52,11.91
			C226.38,289,226.03,289.39,225.68,289.79z M163.9,296.09c1.4,3.55,2.34,6.68,3.82,9.54c1.83,3.54,4.84,5.37,9.01,4.35
			c2.81-0.69,5.71-1.2,8.38-2.28c6.14-2.48,10.63-6.96,15.05-12.88c-2.63,0-4.22,0.02-5.82,0c-5.8-0.1-11.65,0.23-17.38-0.48
			C172.61,293.79,168.79,294.75,163.9,296.09z"/>
		<path class="st0" d="M319.87,313.81c2.32,0.86,4.62,1.77,6.97,2.56c11.77,3.99,23.71,6.62,36.31,5.77
			c12.75-0.86,23.96-5.32,34.08-12.99c11.53-8.76,20.9-19.62,29.92-30.77c11.19-13.83,22.12-27.88,33.18-41.82
			c1.1-1.39,2.37-2.65,4.27-3.57c-0.61,1.19-1.14,2.44-1.84,3.57c-15.45,24.91-32.4,48.67-53.37,69.33
			c-18.63,18.36-40.73,24.45-66.04,18.18c-6.65-1.65-13.02-4.49-19.46-6.91c-1.57-0.59-2.94-1.73-4.41-2.61
			C319.61,314.3,319.74,314.06,319.87,313.81z"/>
		<path class="st0" d="M148.75,241.97c-0.8,2.14-1.59,4.28-2.41,6.4c-0.65,1.69-1.55,3.31-2,5.05c-1.3,4.98,1.66,8.84,6.79,8.55
			c2.86-0.16,5.65-1.3,8.51-1.63c3.74-0.43,7.67-1.24,11.26-0.54c4.94,0.96,8.59,0.46,10.82-4.96c2.32,2.16,1.71,4.23,0.78,6.02
			c-1.37,2.64-3.28,4.87-6.64,4.88c-0.89,0-1.9-0.12-2.65-0.54c-4.53-2.52-9.1-1.39-13.71-0.39c-2.3,0.5-4.62,1.05-6.96,1.2
			c-7.94,0.48-13.15-6.14-10.46-13.62c1.37-3.81,3.7-7.28,5.59-10.91C148.02,241.65,148.39,241.81,148.75,241.97z"/>
		<path class="st0" d="M240.6,160.07c-3.21-0.74-5.86-1.08-8.3-1.98c-3.72-1.37-7.21-3.39-10.96-4.64c-3.89-1.29-7.96-2.1-11.99-2.9
			c-1.66-0.33-3.39-0.3-3.65-2.4c-0.24-1.95,1.11-3.05,2.74-3.52c1.71-0.5,3.59-1.07,5.28-0.82c9.73,1.47,18.02,6,25.29,12.51
			c0.39,0.35,0.65,0.86,0.91,1.34C240.08,157.97,240.12,158.33,240.6,160.07z"/>
		<path class="st1" d="M125.23,219.25c5.4-0.85,6.76-4.21,6.75-8.35c-0.01-3.42-0.03-6.91-0.64-10.26c-1.1-6.07-3.81-7.59-9.95-6.21
			c-0.3,0.07-0.66-0.12-1.49-0.28c0.28-1.51,0.3-3.16,0.94-4.52c0.46-0.97,1.64-1.96,2.69-2.24c2.94-0.77,10.28,3.79,11.18,6.74
			c1.86,6.16,2.32,12.5,1.29,18.77c-0.44,2.67-2.1,5.37-3.87,7.52C130.29,222.69,128.73,222.28,125.23,219.25z"/>
		<path class="st1" d="M122.39,210.77c-3.11-2.72-2.69-5.28-2.11-9.1C123.2,204.77,123.65,207.19,122.39,210.77z"/>
		<g>
			<path class="st0" d="M117.5,146.74c0.03,0,0.05,0,0.08,0.01c0-0.03-0.01-0.05-0.01-0.08L117.5,146.74z"/>
			<path class="st0" d="M413.22,642.96c-1.14-4.9-1.45-9.71-0.78-14.57c1.35-9.88,3-19.72,4.45-29.59
				c2.53-17.22,6.06-34.37,3.89-51.95c-0.2-1.61,0.1-3.27-0.01-4.9c-0.46-6.68,0.04-13.63-1.69-19.97
				c-4.99-18.38-10.35-36.7-16.6-54.68c-5.48-15.79-13.55-30.49-21.79-45.06c-5.07-8.97-11.12-16.92-18.75-23.79
				c-4.18-3.76-7.85-8.09-12.01-11.87c-6.58-5.97-13.25-11.86-20.14-17.47c-4.34-3.54-9.34-6.29-13.7-9.8
				c-10.14-8.16-15.61-18.34-12.95-31.84c1.3-6.6,2.64-12.88,7.61-18.16c5.72-6.09,10-13.36,13.29-21.12
				c0.47-1.12,1.26-2.1,1.97-3.25c1.99,0.34,3.75,0.75,5.53,0.93c4.12,0.43,7.56-0.95,9.96-4.37c3.29-4.67,5.42-9.87,6.14-15.55
				c0.21-1.66-0.15-3.39-0.24-5.08c-0.57-0.32-1.15-0.65-1.72-0.97c-0.33,0.86-0.62,1.74-1,2.58c-1.12,2.47-2.17,5-3.46,7.38
				c-1.55,2.85-2.96,5.9-5.1,8.26c-3.38,3.71-6.88,2.89-9.34-1.55c-0.46-0.84-1.43-1.99-2.16-1.99c-2.72,0.01-3.33-1.96-3.94-3.81
				c-1.72-5.25-1.32-10.38,1.25-15.31c0.59-1.14,1.13-2.31,1.69-3.47c-0.37-0.21-0.73-0.42-1.1-0.63c-1.5,2.16-3.37,4.15-4.44,6.51
				c-2.87,6.34-2.7,12.81,0.85,18.83c1.78,3.03,1.98,5.78,0.35,8.69c-2.83,5.06-5.35,10.38-8.77,15.01
				c-17.76,24.01-41.73,38.32-70.81,44.33c-12.35,2.55-24.83,3.24-37.39,2.22c-22.24-1.82-38.76-13.84-52.06-30.52
				c-18.47-23.16-30.69-49.2-33.28-79.17c-0.55-6.35,0.56-12.45,1.68-19.2c2.29,2.43,3.87,4.41,5.76,6.04
				c3.26,2.82,6.53,2.77,9.84,0.03c2.91-2.41,4.5-5.62,5.3-9.28c1.82-8.31,0.01-16.23-2.73-23.98c-2.4-6.77-6.02-12.47-14.08-13.24
				c-0.23-0.97-0.49-1.66-0.54-2.37c-1.35-20.58,1.06-40.6,9.03-59.77c2.66-6.39,7.37-10.72,13.8-13.14
				c10.6-3.99,21.28-3.37,31.26,1.37c8.32,3.95,15.92,9.39,23.93,14.02c4.53,2.62,9.01,5.57,13.89,7.27
				c14.74,5.13,29.66,9.78,44.54,14.51c7.64,2.42,15.4,4.32,23.52,4c4.86-0.2,9.71-0.5,14.86-0.77c3.68,7.03,7.61,13.96,13.57,19.48
				c6.02,5.58,13.42,8.89,21.67,12.48c-5.72,3.62-9.79,7.33-10.03,13.57c3.8-6.68,9.24-10.79,16.98-11.17
				c10.02-0.49,21.06,7.9,23.68,17.63c2.16,8,0.07,15.16-4.5,21.65c-3.34,4.74-7.12,9.18-10.82,13.66
				c-5.44,6.58-9.37,13.8-10.32,22.43c-0.12,1.08-0.37,2.15-0.66,3.2c-1.19,4.33-2.31,5.15-6.84,5.43
				c-2.08,0.13-4.14,0.48-6.82,0.81c2.09,3.32,4.84,3.74,7.42,4.28c5.82,1.2,8.51-0.11,10.86-5.49c1.01-2.3,1.77-4.79,2.14-7.28
				c0.98-6.5,3.73-12.07,7.91-17.07c3.5-4.18,7.21-8.24,10.15-12.79c2.82-4.37,5.52-9.09,6.97-14.04
				c5.44-18.66-9.9-37.47-29.31-36.27c-2.31,0.14-4.22-0.1-6.1-1.52c-1.58-1.19-3.46-1.99-5.14-3.06c-5.04-3.22-10.34-6.12-15-9.82
				c-5.67-4.51-9.93-10.33-13.08-17.24c17.21-7.74,33.43-15.94,46.7-28.98c-4.55,1.27-8.83,3.06-12.97,5.11
				c-9.76,4.83-19.38,9.95-29.2,14.65c-9.25,4.42-19.14,5.67-29.25,4.15c-5.01-0.75-10-1.91-14.86-3.35
				c-14.79-4.4-29.54-8.97-44.26-13.61c-3.26-1.03-6.52-2.36-9.47-4.07c-7.84-4.55-15.61-9.23-23.21-14.17
				c-7.64-4.97-16.19-6.81-24.92-6.57c-18.21,0.49-28.51,7.94-31.95,25.64c-1.59,8.17-4.25,16.14-6.38,24.21
				c-0.36,1.36-0.84,2.36-2.43,2.14c0.24,2.27,0.9,4.6,0.6,6.8c-1.04,7.62-1.14,15.18,0.1,22.78c0.25,1.5,0.04,3.07,0.04,5.73
				c-3.09-1.46-5.34-2.51-7.64-3.6c0.19,4.66,0.46,5.03,6.88,9c-1.83,5.79-2.93,11.9-1.16,17.98c1.44,4.94,0.89,9.55-0.57,14.35
				c-2.45,8.06-3.5,16.34-2.26,24.76c4.2,28.52,15.39,54.03,33.68,76.27c16.75,20.36,37.68,32.71,64.87,32.44
				c3.2-0.03,6.4,0.44,9.74,0.7c0.1,4.7-1.6,8.29-3.17,11.92c-1.3,3.01-3.41,4.89-6.58,5.98c-4.11,1.42-8.15,3.12-12.04,5.06
				c-21.16,10.5-39.52,24.35-52.63,44.42c-1.98,3.03-4.32,5.84-6.46,8.77c-4.59,6.3-9.12,12.66-13.75,18.93
				c-4.85,6.56-9.66,13.16-14.77,19.51c-3.54,4.41-5.84,4.76-10.97,2.65c-1.51-0.62-2.98-1.35-4.4-2.15
				c-11.02-6.16-21.22-13.52-29.42-23.09c-6.61-7.72-11.61-16.25-6.05-27.22c2.54-5.01,3.41-10.68,1.9-16.45
				c-0.75-2.86-2.05-5-4.98-5.9c-3.1-0.95-6.19-1.93-9.79-3.05c-0.23-1.48-0.64-3.21-0.75-4.97c-0.49-8-0.14-15.95,1.45-23.84
				c0.39-1.94,0.69-3.97,0.56-5.93c-0.32-4.91-4.24-7.83-9.06-6.96c-4.41,0.79-7.02,3.57-8.28,7.72c-1.89,6.21-1.78,12.57-1.02,18.9
				c0.31,2.6,1.32,5.21,4.26,6.53c2.36-2.22,1.62-4.73,1.63-7.23c0.01-5.05,0.19-10.12,0.72-15.14c0.27-2.56,1.58-4.83,5.59-3.89
				c-0.3,6.02-1.04,11.96-0.78,17.86c0.27,6.08,1.51,12.11,2.32,18.12c-2.04,1.07-3.89,1.85-5.55,2.94
				c-6.02,3.94-8.57,12.2-5.51,17.55c2.16,3.79,4.99,4.83,8.58,2.41c3.28-2.2,6.16-5.03,9.07-7.74c0.79-0.74,1.02-2.08,1.7-3.56
				c-5.82-0.07-8.94,5.32-14.07,5.67c-0.23-6.45,4.33-11.01,10.77-11.16c4.69-0.11,7.15,2.12,7.17,6.86
				c0.01,1.96-0.65,3.91-0.84,5.88c-0.61,6.29-1.5,12.58-1.53,18.87c-0.01,2.91,1.21,6.16,2.79,8.68c2.68,4.26,5.7,8.47,9.28,11.99
				c8.72,8.57,18.8,15.39,29.56,21.15c2.7,1.44,5.7,2.36,8.62,3.32c3.6,1.18,6.83,0.52,9.32-2.54c2.86-3.51,5.8-6.97,8.51-10.59
				c5.54-7.41,10.96-14.91,16.42-22.38c3.32-4.54,6.85-8.95,9.88-13.67c12.9-20.11,29.64-36.14,50.41-47.95
				c1.51-0.86,3.08-1.59,4.63-2.37c0.22,0.29,0.44,0.58,0.66,0.86c-1.38,1.27-2.75,2.55-4.14,3.8c-6.47,5.8-13.3,11.22-18.01,18.74
				c-4.14,6.62-8.5,13.1-12.84,19.58c-5.21,7.78-9.15,16.22-10.95,25.34c-2.38,12.08-5.11,24.18-4.65,36.65
				c0.11,3.01-1.3,5.2-3.75,6.8c-7.43,4.88-14.81,9.84-22.31,14.61c-8.96,5.7-18.91,6.36-28.86,4.14
				c-9.82-2.19-18.79-6.73-26.77-12.96c-15.45-12.07-27.14-27.18-35.69-44.74c-2.65-5.45-5.95-10.29-10.55-14.34
				c-2.67-2.35-4.72-5.4-7.15-8.25c1.13-1.29,1.89-2.17,2.66-3.06c-0.75-0.63-1.32-1.11-1.92-1.62c0.83-0.66,1.46-1.16,3.07-2.42
				c-5.9,0.97-11.02,3.5-14.42-2.18c-2.15-3.59-2.9-7.27-0.27-11.06c2.57,2.41,4.66,5.02,7.33,6.71c4.69,2.98,9.4,0.22,10.23-5.86
				c-2.59,0.89-5.08,2.45-7.54,2.41c-3.18-0.05-4.77-3-5.93-5.74c-2.1-4.97-0.91-9.2,3.34-11.53c0.59,3.96,1.25,7.91,6.6,9.64
				c-0.25-2-0.27-3.37-0.61-4.66c-1.36-5.22-0.56-7.55,4.02-10.44c1.75-1.1,3.67-1.93,6.5-3.39c-4.56-0.98-7.6,0.14-10.18,2.04
				c-2.52,1.86-5.09,3.09-8.13,3.96c-1.92,0.55-3.75,2.78-4.79,4.7c-0.97,1.8-0.78,4.2-1.2,6.32c-0.27,1.34-0.38,2.88-1.13,3.92
				c-5.23,7.16-3.5,15.97,4.03,20.53c1.6,0.97,3.3,2.29,4.15,3.88c2.56,4.79,6.06,8.65,10.63,11.43c4.08,2.47,6.55,5.94,8.43,10.27
				c8.08,18.63,19.86,34.62,35.54,47.55c9.52,7.85,20.31,13.44,32.59,15.52c9.49,1.6,18.98,1.44,27.45-3.82
				c6.77-4.2,13.15-9.02,19.62-13.68c2-1.44,3.71-3.28,5.66-5.04c0.56,0.84,1.01,1.24,1.13,1.72c2.6,10.72,8.08,20.2,13.57,29.53
				c5.17,8.77,10.32,17.48,14.53,26.77c2.59,5.7,2.82,10.98,0.28,16.71c-5.89,13.26-8.84,27.27-9.15,41.73
				c-0.21,9.41,0.1,18.87,0.87,28.25c1.3,15.98,4.37,31.66,10.73,46.48c5.44,12.68,10.87,25.37,16.86,37.79
				c6.57,13.63,15.8,25.6,24.99,37.53c2.42,3.14,4.27,6.04,3.97,10.25c-0.35,4.87-0.68,9.92,1.83,14.4c2.24,4,2.02,8.29,0.92,12.18
				c-2.62,9.33-2.62,18.94-3.88,28.4c-1.27,9.53-2.55,19.05-3.85,28.57c-0.37,2.7-0.82,5.38-1.2,8.08
				c-1.2,8.43-2.26,16.89-3.62,25.3c-2.41,14.84-3.9,29.88-8.84,44.22c-1.1,3.2,0.84,5.07,3.04,6.86c1.67,1.35,3.3,2.75,4.85,4.24
				c5.87,5.66,12.59,7.68,20.47,4.95c1.46-0.5,2.91-1,4.58-1.57c-2.75,13.06-7.38,17.73-19.91,19.11
				c-7.55,0.83-15.23,1.22-22.81,0.86c-10.57-0.5-20.87-2.78-30.32-7.91c-5.18-2.81-9.76-6.35-12.71-11.58
				c-2.47-4.39-2.06-6.77,2.52-8.79c4.42-1.95,9.22-3.57,13.99-4.07c8.64-0.9,17.37-0.83,26.06-1.25c2.44-0.12,4.86-0.49,7.29-0.74
				c-0.65-1.19-1.26-1.53-1.89-1.57c-9.94-0.69-19.88-1.73-29.83-1.85c-6.49-0.08-13.04,0.96-18.96,4.19
				c-5.26,2.87-6.93,5.7-6.21,11.47c0.69,5.51,3.97,9.69,7.8,13.38c6,5.78,13.25,9.48,21.08,12.12c8.31,2.81,16.9,4.02,25.61,4.78
				c9.13,0.8,18.15,0.22,27.04-1.72c12.02-2.63,17.22-12.75,17.56-22.68c0.08-2.38-0.78-4.8-1.35-7.93
				c3.44-4.67,7.42-10.05,11.35-15.47c0.84-1.16,1.58-2.43,2.19-3.73c5.5-11.65,11.01-23.3,16.43-34.99
				c7.05-15.21,12.55-30.93,15.37-47.51c0.56-3.31,0.99-6.64,1.67-11.24c18.22,19.7,37.12,37.24,49.66,60.34
				c-1.18,1.71-2.26,3.15-3.22,4.66c-3.7,5.82-7.73,11.47-10.92,17.56c-2.32,4.44-4.08,9.35-5.08,14.26
				c-2.02,9.96,6.61,19.31,16.71,18.65c6.02-0.39,10.61-3.54,14.33-7.99c13.07-15.65,19.69-34.58,26.55-53.32
				c1.57-4.28,0.81-9-1.09-13.31c-0.9-2.05-2-3.85-5.31-3.86c-0.23,1.7-0.8,3.42-0.63,5.06c0.63,6.16-0.71,11.87-3.2,17.46
				c-3.03,6.8-5.51,13.86-8.85,20.49c-3.58,7.1-7.72,13.94-11.97,20.67c-1.5,2.37-3.83,4.43-6.19,6.02
				c-6.79,4.58-14.92,0.51-15.25-7.72c-0.12-2.98,0.45-6.27,1.68-8.98c4.31-9.53,9.04-18.87,13.57-28.17
				c13.58,4.01,26.36-4.38,28.32-18.42c0.71-5.1,0.08-9.47-1.9-14.17c-10.51-25.07-24.69-47.68-44.13-66.81
				c-7.12-7-14.5-13.72-21.68-20.67c-4.2-4.06-4.53-5.65-2.06-11.05c2.48-5.45,5.24-10.77,7.96-16.11
				c6.09-11.97,12.39-23.84,18.31-35.9c4.32-8.79,8.19-17.81,12.21-26.75c0.96-2.15,1.92-4.34,2.47-6.61
				c3.02-12.34,5.97-24.7,8.81-37.09c0.6-2.63,0.66-5.39,0.88-8.09c1.19-14.01-1.26-27.5-5.93-40.65
				c-2.55-7.17-4.87-14.46-7.95-21.4c-2.93-6.61-6.86-12.78-10.06-19.29c-1.15-2.35-1.93-5.11-2-7.71
				c-0.11-4.24-0.37-8.29-3.07-11.75c2.31-4.56,4.56-8.9,6.71-13.29c2.39-4.89,4.61-9.86,7.06-14.72c1.03-2.05,2.04-4.35,5.75-4.77
				c1.66,2.19,4.22,4.45,5.37,7.29c8.24,20.3,18.35,40.02,20.27,62.4c0.71,8.3,2.11,16.58,2.29,24.89c0.2,9.41-0.58,18.84-1,28.26
				c-0.33,7.5-1.93,14.67-5.36,21.44c-2.88,5.66-5.64,11.4-8.14,17.24c-2.07,4.82-3.9,9.78-5.43,14.8c-1.01,3.3-1.3,6.83,0.75,10.01
				c1.47,2.29,3.41,2.8,5.51,1.11c1.67-1.35,2.99-3.13,4.36-4.81c1.55-1.9,2.98-3.89,5.29-6.92c0,3.13,0.01,4.88,0,6.62
				c-0.05,5.26-0.37,10.55-0.06,15.79c0.17,2.8,1,5.75,2.3,8.24c1.78,3.43,4.96,3.82,7.6,1.05c1.83-1.93,3.27-4.35,4.39-6.78
				c1.42-3.08,2.35-6.4,3.8-10.48c0.71,2.56,1.02,4.31,1.68,5.91c1.24,3.01,2.35,6.14,4.12,8.83c2.2,3.35,5.13,3.05,6.39-0.69
				c1.03-3.03,1.34-6.36,1.58-9.59c0.26-3.55,0.06-7.13,0.06-11.96c2.21,2.76,3.45,4.76,5.13,6.26c1.37,1.22,3.45,2.8,4.88,2.52
				c2.27-0.44,3.86-2.65,3.97-5.27c0.09-2.17,0.23-4.41-0.16-6.52C417.48,663.57,415.6,653.2,413.22,642.96z M120.85,189.64
				c0.46-0.97,1.64-1.96,2.69-2.24c2.94-0.77,10.28,3.79,11.18,6.74c1.86,6.16,2.32,12.5,1.29,18.77c-0.44,2.67-2.1,5.37-3.87,7.52
				c-1.85,2.25-3.41,1.84-6.9-1.18c5.4-0.85,6.76-4.21,6.75-8.35c-0.01-3.42-0.03-6.91-0.64-10.26c-1.1-6.07-3.81-7.59-9.95-6.21
				c-0.3,0.07-0.66-0.12-1.49-0.28C120.19,192.65,120.21,191,120.85,189.64z M120.28,201.68c2.92,3.09,3.36,5.52,2.11,9.1
				C119.28,208.05,119.7,205.49,120.28,201.68z M219.12,376.95c1.93-6.21,3.93-12.39,5.87-18.6c0.42-1.35,0.69-2.76,1-4
				c9.03-2.33,17.83-4.44,26.53-6.88c15.41-4.32,29.34-11.56,41.79-21.64c1.07-0.86,2.27-1.55,4.3-2.92
				c-1.85,14.02,1.16,25.76,10.2,34.83c-7.54,28.78-21.13,53.56-40.34,75.22c-9.44,10.64-19.79,20.28-32.79,26.55
				c-7.33,3.54-15.07,5.19-23.24,4.09c-8.51-1.15-12.99-4.73-14.36-13.2c-0.91-5.63-0.84-11.59-0.14-17.28
				c1.42-11.62,5.23-22.76,10.71-32.98C212.68,392.58,216.58,385.12,219.12,376.95z M344.37,811.29
				c10.29,12.06,17.56,26.15,25.07,40.04c0.86,1.59,1.48,3.41,2.67,4.72c5.23,5.78,1.95,11.55,0.05,17.22
				c-1.86,5.55-5.9,9.01-11.55,10.55c-4.75,1.3-6.49,0.65-8.78-3.82c-4.03-7.84-9.63-14.49-15.7-20.74
				c-5.93-6.11-12.35-11.76-18.2-17.95c-5.84-6.18-11.31-12.73-16.78-19.25c-0.95-1.13-1.45-2.92-1.53-4.44
				c-0.84-15.28,1.29-30.27,4.54-45.15c0.26-1.21,0.83-2.36,1.64-4.58C319.16,782.87,332.05,796.84,344.37,811.29z M338.84,566.03
				c7.06,11.59,10.86,24.48,13.15,37.85c2.23,13.01-0.19,25.64-2.73,38.29c-4.07,20.24-11.68,39.23-19.64,58.19
				c-6.27,14.95-13.34,29.45-21.42,43.42c-8.82,15.27-13.53,31.67-15.03,49.03c-1.15,13.36-1.81,26.77-2.32,40.17
				c-0.27,7.18-1.58,14.08-4,20.75c-5.19,14.34-10,28.86-16.15,42.79c-4.88,11.06-10.11,22.15-18.08,31.56
				c-1.28,1.51-2.13,3.37-3.36,4.93c-3.34,4.24-7.75,5.85-13.04,4.86c-1.77-0.33-3.54-0.84-5.22-1.5c-6.97-2.76-8.43-5-7.35-12.48
				c0.85-5.92,1.88-11.85,3.45-17.61c4.99-18.3,6.88-37.03,8.59-55.83c1-11,2.97-21.91,4.43-32.88c1.22-9.14,2.35-18.29,3.43-27.45
				c0.12-1.02-0.31-2.14-0.61-3.18c-2.82-9.64-3.72-19.37-3.14-29.47c1.63-28.32,5.88-56.27,10.6-84.18
				c2.34-13.82,5.63-27.39,11.45-40.22c0.37-0.82,0.9-1.74,0.81-2.56c-0.43-3.96,1.11-7.44,2.25-11.06
				c0.36-1.14,0.22-3.19-0.51-3.75c-1.59-1.22-3.12,0.08-4.07,1.48c-0.9,1.34-1.61,2.83-2.18,4.35
				c-5.49,14.68-8.87,29.89-11.56,45.29c-2.71,15.55-5.75,31.04-8.29,46.62c-1.34,8.21-1.84,16.55-2.86,24.82
				c-0.75,6.11-1.72,12.19-2.75,19.44c-6.68-10.08-12.87-19.43-19.05-28.78c-0.3-0.45-0.59-0.93-0.8-1.42
				c-8.11-19.22-17.7-37.85-23.88-57.84c-4.41-14.27-6.58-29.01-7.09-43.94c-0.25-7.4-0.93-14.96,0.18-22.19
				c1.92-12.45,1.7-25.4,7.55-37.09c0.78-1.56,0.88-3.47,1.39-5.65c2.2,1.28,4.26,2.69,6.49,3.74c7.96,3.73,16.34,6.6,25.07,6.92
				c23.72,0.87,47.22-0.84,69.64-9.57c10.99-4.28,21.8-9.02,32.69-13.55c1.31-0.55,2.64-1.07,3.99-1.61
				c0.49,0.57,0.99,0.9,1.15,1.35C332.27,554.37,335.31,560.24,338.84,566.03z M191.41,549.69c8.81,2.93,17.19,5.72,26.16,8.71
				c0.39,1.87,0.85,4.05,1.41,6.7c-1.68,0-2.78,0.23-3.73-0.04c-5.74-1.64-11.51-3.23-17.14-5.18
				C193.87,558.41,191.13,555.46,191.41,549.69z M222.97,559.65c3.38,0.23,6.5,0.53,9.62,0.63c3.23,0.11,6.46,0.02,10.6,0.02
				c-0.3,2.21-0.51,3.72-0.74,5.43c-3.96,0.27-7.53,0.57-11.11,0.75C225.52,566.77,225.23,566.52,222.97,559.65z M246.8,564.87
				c0-1.68,0-3.04,0-4.71c9.25-1.68,18.42-2.82,27.3-5.1c9.11-2.34,17.99-5.63,26.86-8.82c8.58-3.09,16.66-7.5,25.22-10.64
				c0.26,0.4,0.51,0.79,0.77,1.19c-1.16,1.27-2.15,2.78-3.51,3.76c-4.39,3.16-8.54,6.7-13.77,8.57
				c-14.5,5.2-28.63,11.53-43.96,14.13c-5,0.85-10.05,1.37-15.09,1.93C249.43,565.31,248.19,564.99,246.8,564.87z M338.62,500.38
				c-3.28,7.28-6.27,14.7-9.72,21.9c-2.28,4.76-5.42,8.58-10.95,10.51c-11.63,4.08-23,8.92-34.53,13.3
				c-13.35,5.08-27.38,6.85-41.47,8.51c-13.94,1.65-27.02-1.69-40.09-5.66c-3.99-1.21-8.79-1.41-11.75-3.85
				c-2.93-2.41-3.96-7.1-5.9-10.75c-4.68-8.82-9.35-17.64-14.12-26.41c-7.99-14.67-9.02-30.37-7.24-46.57
				c2.84-25.82,15.54-46.8,31.97-66.03c6.03-7.06,12.95-13.1,19.91-19.13c0.39,0.28,0.78,0.55,1.17,0.83
				c-2.15,5.13-4,10.43-6.53,15.37c-6.3,12.32-12.1,24.82-14.82,38.48c-1.34,6.76-2.33,13.57-0.97,20.5
				c2.33,11.9,9.69,18.27,21.8,18.87c10.1,0.5,19.48-1.89,28.19-6.84c11.97-6.8,22.08-15.85,30.98-26.3
				c13.51-15.87,25.09-32.94,32.11-52.73c2-5.63,3.32-11.49,4.96-17.24c0.38-1.34,0.83-2.66,1.38-4.41c3.34,2.68,6.43,4.88,9.12,7.5
				c0.95,0.92,1.41,2.94,1.22,4.34c-2.49,18.78-2.63,37.65-1.69,56.51c0.9,18.01,3.7,35.74,10.22,52.67
				c1.4,3.65,3.5,7.16,5.89,10.25C339.51,496.25,339.7,498,338.62,500.38z M406.11,672.41c-1.29-3.71,0.42-7.97-2.29-11.84
				c-2.64,3.56-1.35,7.25-1.55,10.67c-0.22,3.8-0.05,7.62-0.26,11.43c-0.2,3.59-0.68,7.16-2.02,11.07
				c-0.67-1.07-1.53-2.06-1.97-3.21c-1.7-4.39-3.36-8.8-4.82-13.27c-0.42-1.29-0.21-2.82-0.15-4.23c0.12-3.18,0.32-6.36,0.49-9.56
				c-3.47-0.59-4.27,1.36-4.67,3.29c-0.81,3.9-1.22,7.87-2.01,11.77c-0.86,4.26-1.76,8.53-3.02,12.68c-0.64,2.13-2.1,4.01-3.19,6.01
				c-0.44-0.04-0.89-0.07-1.33-0.11c-0.42-1.78-1.24-3.57-1.2-5.34c0.15-8.7,0.54-17.39,0.81-26.08c0.08-2.51,0.01-5.02,0.01-7.57
				c-2.85-1.8-4.67-0.32-6.12,1.66c-1.93,2.63-3.59,5.46-5.43,8.15c-1.08,1.57-2.3,3.04-3.45,4.56c-0.35-0.18-0.7-0.36-1.06-0.54
				c0.66-2.39,1.14-4.85,2.03-7.15c3.27-8.46,5.84-17.34,10.25-25.18c4.92-8.74,4.96-17.91,5.32-27.19
				c0.44-11.4,0.75-22.83,0.49-34.23c-0.18-8.11-0.91-16.28-2.22-24.29c-3.04-18.53-8.83-36.2-17.88-52.76
				c-4-7.32-7.63-14.84-11.21-22.37c-4.88-10.26-9.56-20.61-14.42-31.13c-1.2,2.61-0.36,5.15,0.34,7.61
				c2.58,9.07,5.16,18.14,7.95,27.14c0.91,2.94,0.7,5.29-1.83,7.56c-2.79-1.6-4.22-4.18-5.39-7.04
				c-5.49-13.56-8.76-27.71-10.15-42.19c-1.26-13.16-1.91-26.4-2.17-39.61c-0.18-9.15,0.78-18.33,1.27-28.31
				c2.76,1.59,5.16,2.52,7,4.11c7.69,6.63,15.81,12.9,22.64,20.35c7.92,8.64,15.33,17.77,21.46,27.98
				c16.6,27.64,27.73,57.42,35.76,88.43c5.06,19.51,5.56,39.46,3.32,59.44c-2,17.83-4.45,35.61-6.47,53.43
				c-1.2,10.55-0.01,20.99,2.34,31.32c1.13,4.95,2.25,9.91,3.26,14.88c0.35,1.74,0.36,3.54,0.65,6.64
				C411.57,676.6,408.83,674.5,406.11,672.41z"/>
		</g>
		<path class="st1" d="M210,208.7c-0.17,3.26-2.18,5.7-4.62,5.64c-2.74-0.07-5.87-4.22-5.64-7.49c0.19-2.61,2.22-4.09,5.4-3.94
			C208.34,203.07,210.18,205.27,210,208.7z"/>
		<path class="st1" d="M219.06,214.35c-0.98,0.76-1.62,1.26-2.26,1.76c-0.66-0.91-1.32-1.83-1.98-2.74
			c0.65-0.46,1.52-1.44,1.89-1.28C217.54,212.45,218.12,213.39,219.06,214.35z"/>
		<path class="st0" d="M229.33,617.31c6.58,7.09,11.36,15.74,22.76,15.86c-4.66,2.31-8.15,1.99-12.7-0.63
			C234.01,629.43,229.67,623.23,229.33,617.31z"/>
	</g>
</g>
<g id="圖層_1_xA0_影像_00000021814363635100106450000000413235976219080108_">
</g>
</svg>
