<svg width="878" height="283" viewBox="0 0 878 283" fill="none" xmlns="http://www.w3.org/2000/svg">
<g clip-path="url(#clip0_376_19963)">
<path d="M693.13 234.956L686.047 240.303L676.746 243.111L668.778 247.404L660.436 251.342L650.964 253.223L641.897 255.761L632.766 258.164L623.358 259.834L614.568 263.401L604.861 264.076L595.506 265.948L585.938 266.96L576.796 269.802L567.175 270.578L557.34 270.106L547.867 271.531L538.214 271.868L528.923 274.584L519.162 274.069L509.519 274.331L499.962 275.317L490.362 275.916L480.783 276.852L471.14 277.063L461.699 277.687L452.291 278.834L442.883 280.276L433.304 278.758L423.863 279.652L414.413 280.453L404.94 281.313L395.436 279.829L385.964 280.841L376.491 278.994L366.998 280.344L357.515 280.082L348.01 280.656L338.645 278.235L329.066 279.585L319.711 277.831L310.185 278.134L300.606 278.724L291.23 277.443L281.982 275.317L272.52 274.811L263.197 273.437L253.928 271.826L244.114 272.965L234.695 271.944L225.681 269.246L216.54 267.213L207.1 266.286L198.171 263.595L188.496 263.3L179.813 259.977L170.768 257.802L160.975 257.734L152.645 253.897L143.652 251.755L135.204 248.39L125.529 247.631L117.209 244.064L107.961 242.217L99.7576 238.481L91.288 235.226L83.9171 230.402L74.6155 228.201L67.5966 223.091L60.3537 218.377L53.5482 213.283L47.276 207.835L39.6918 203.256L35.5103 196.493L29.6648 190.691L23.5633 184.855L19.1578 177.847L17.6858 169.954L13.323 162.962L12.523 155.077L8.6615 147.909L4.89605 140.598L6.41076 132.561L2.64532 125.106L3.50934 117.297L2.1333 109.505L4.93872 101.898L4.88538 94.0298L9.55753 86.9881L11.1789 79.2633L16.5977 72.8541L20.4379 65.7955L27.0941 60.2128L34.1449 55.0854L39.8731 48.6172L49.1321 45.7415L56.5243 40.6141L65.6552 37.9324L74.0075 33.9182L83.7678 32.6869L92.5574 29.4064L101.902 27.3994L111.566 26.4127L120.676 23.7394L129.636 20.4589L139.471 20.1384L149.114 19.3541L158.17 16.4109L167.973 16.3266L177.424 14.893L186.608 12.2703L196.219 11.4607L205.862 10.98L215.302 9.42829L224.86 8.50907L234.279 6.74654L244.039 7.1935L253.362 4.47802L263.208 5.95382L272.574 2.96005L282.377 4.84065L291.934 3.8371L301.513 2.58056L311.167 3.06968L320.799 3.28051L330.41 2.90945L340.064 1.68665L349.696 2.27697L359.339 2.2095L368.992 1.82158L378.561 3.36484L388.15 4.30093L397.804 3.8877L407.479 3.36484L417.111 3.55881L426.712 4.1407L436.355 4.07323L445.816 7.0923L455.47 6.98267L465.145 6.02972L474.724 7.69949L484.388 6.76341L494.02 6.01286L503.642 5.55747L513.264 6.69594L522.906 7.71636L532.507 6.18152L542.171 7.15977L551.739 5.53217L561.35 5.08521L571.068 6.17309L580.732 6.20682L589.959 4.72258L599.25 3.43231L608.605 3.04438L617.992 3.12872L627.23 5.15267L636.681 4.21659L645.95 5.29604L655.305 5.91166L664.297 8.18018L673.29 10.2041L682.602 11.1993L691.722 12.9449L699.861 16.9422L709.003 18.6626L717.184 22.3057L725.718 25.2405L733.59 29.2293L742.305 32.5436L750.508 36.5662L759.17 40.0913L766.53 45.109L774.562 49.4015L781.912 54.7818L791.704 54.7734L801.294 53.3819L810.67 55.0095L820.025 56.5191L829.391 58.2647L838.383 61.4693L846.084 66.4702L855.407 69.2531L862.949 74.2456L870.096 79.5416L875.867 84.6689L867.45 81.574L857.135 80.3933L846.852 80.1488L836.601 78.3356L826.18 78.9597L815.939 80.6885L807.118 84.0533L798.606 87.688L790.264 91.5167L783.522 96.4754L779.736 103.171L776.365 110.247L776.866 118.14L772.418 124.954L768.45 131.836L766.722 139.299L764.813 146.762L759.671 153.256L755.49 160.002L752.492 167.179L747.703 173.689L742.625 180.048L739.18 187.123L734.177 193.524L728.427 199.52L723.627 206.022L718.144 212.178L712.672 218.377L706.016 223.799L699.104 228.986L693.13 234.956Z" fill="white"/>
<path d="M693.13 234.956L686.047 240.303L676.746 243.111L668.778 247.404L660.436 251.342L650.964 253.223L641.897 255.761L632.766 258.164L623.358 259.834L614.568 263.401L604.861 264.076L595.506 265.948L585.938 266.96L576.796 269.802L567.175 270.578L557.34 270.106L547.867 271.531L538.214 271.868L528.923 274.584L519.162 274.069L509.519 274.331L499.962 275.317L490.362 275.916L480.783 276.852L471.14 277.063L461.699 277.687L452.291 278.834L442.883 280.276L433.304 278.758L423.863 279.652L414.413 280.453L404.94 281.313L395.436 279.829L385.964 280.841L376.491 278.994L366.998 280.344L357.515 280.082L348.01 280.656L338.645 278.235L329.066 279.585L319.711 277.831L310.185 278.134L300.606 278.724L291.23 277.443L281.982 275.317L272.52 274.811L263.197 273.437L253.928 271.826L244.114 272.965L234.695 271.944L225.681 269.246L216.54 267.213L207.1 266.286L198.171 263.595L188.496 263.3L179.813 259.977L170.768 257.802L160.975 257.734L152.645 253.897L143.652 251.755L135.204 248.39L125.529 247.631L117.209 244.064L107.961 242.217L99.7576 238.481L91.288 235.226L83.9171 230.402L74.6155 228.201L67.5966 223.091L60.3537 218.377L53.5482 213.283L47.276 207.835L39.6918 203.256L35.5103 196.493L29.6648 190.691L23.5633 184.855L19.1578 177.847L17.6858 169.954L13.323 162.962L12.523 155.077L8.6615 147.909L4.89605 140.598L6.41076 132.561L2.64532 125.106L3.50934 117.297L2.1333 109.505L4.93872 101.898L4.88538 94.0298L9.55753 86.9881L11.1789 79.2633L16.5977 72.8541L20.4379 65.7955L27.0941 60.2128L34.1449 55.0854L39.8731 48.6172L49.1321 45.7415L56.5243 40.6141L65.6552 37.9324L74.0075 33.9182L83.7678 32.6869L92.5574 29.4064L101.902 27.3994L111.566 26.4127L120.676 23.7394L129.636 20.4589L139.471 20.1384L149.114 19.3541L158.17 16.4109L167.973 16.3266L177.424 14.893L186.608 12.2703L196.219 11.4607L205.862 10.98L215.302 9.42829L224.86 8.50907L234.279 6.74654L244.039 7.1935L253.362 4.47802L263.208 5.95382L272.574 2.96005L282.377 4.84065L291.934 3.8371L301.513 2.58056L311.167 3.06968L320.799 3.28051L330.41 2.90945L340.064 1.68665L349.696 2.27697L359.339 2.2095L368.992 1.82158L378.561 3.36484L388.15 4.30093L397.804 3.8877L407.479 3.36484L417.111 3.55881L426.712 4.1407L436.355 4.07323L445.816 7.0923L455.47 6.98267L465.145 6.02972L474.724 7.69949L484.388 6.76341L494.02 6.01286L503.642 5.55747L513.264 6.69594L522.906 7.71636L532.507 6.18152L542.171 7.15977L551.739 5.53217L561.35 5.08521L571.068 6.17309L580.732 6.20682L589.959 4.72258L599.25 3.43231L608.605 3.04438L617.992 3.12872L627.23 5.15267L636.681 4.21659L645.95 5.29604L655.305 5.91166L664.297 8.18018L673.29 10.2041L682.602 11.1993L691.722 12.9449L699.861 16.9422L709.003 18.6626L717.184 22.3057L725.718 25.2405L733.59 29.2293L742.305 32.5436L750.508 36.5662L759.17 40.0913L766.53 45.109L774.562 49.4015L781.912 54.7818L791.704 54.7734L801.294 53.3819L810.67 55.0095L820.025 56.5191L829.391 58.2647L838.383 61.4693L846.084 66.4702L855.407 69.2531L862.949 74.2456L870.096 79.5416L875.867 84.6689L867.45 81.574L857.135 80.3933L846.852 80.1488L836.601 78.3356L826.18 78.9597L815.939 80.6885L807.118 84.0533L798.606 87.688L790.264 91.5167L783.522 96.4754L779.736 103.171L776.365 110.247L776.866 118.14L772.418 124.954L768.45 131.836L766.722 139.299L764.813 146.762L759.671 153.256L755.49 160.002L752.492 167.179L747.703 173.689L742.625 180.048L739.18 187.123L734.177 193.524L728.427 199.52L723.627 206.022L718.144 212.178L712.672 218.377L706.016 223.799L699.104 228.986L693.13 234.956Z" stroke="#DDA15E" stroke-width="4" stroke-linecap="round" stroke-linejoin="round"/>
<path d="M127.07 61.96H134.45V63.73H127.07V61.96ZM125.69 67.9V70.9H137.78V67.9H125.69ZM123.71 66.16H139.88V72.61H123.71V66.16ZM128.66 73.72L130.19 72.79C135.29 76.6 135.59 84.16 133.37 86.2C132.56 87.04 131.81 87.25 130.7 87.25C130.13 87.28 129.47 87.25 128.78 87.19C128.72 86.65 128.57 85.78 128.21 85.24C129.02 85.33 129.74 85.36 130.25 85.36C130.88 85.36 131.39 85.3 131.81 84.79C133.34 83.35 133.07 77.05 128.66 73.72ZM130.67 75.46L132.08 76.18C129.92 78.34 125.9 80.62 122.84 81.73C122.57 81.28 122 80.59 121.61 80.23C124.67 79.33 128.6 77.38 130.67 75.46ZM132.14 78.43L133.67 79.18C131.18 82.06 126.56 84.79 122.75 86.11C122.42 85.6 121.85 84.88 121.4 84.52C125.27 83.38 129.83 80.95 132.14 78.43ZM127.55 59.83L129.68 60.22C128.06 63.28 125.57 66.67 122.03 69.34C121.73 68.89 121.1 68.2 120.65 67.87C123.92 65.56 126.29 62.35 127.55 59.83ZM133.67 61.96H134.12L134.54 61.84L135.83 62.8C134.84 64.54 133.34 66.43 132.08 67.66C131.81 67.27 131.24 66.7 130.88 66.4C131.9 65.35 133.07 63.58 133.67 62.35V61.96ZM120.86 59.92L122.99 60.58C121.13 65.65 118.25 70.72 115.16 74.11C114.92 73.6 114.26 72.43 113.87 71.89C116.66 68.95 119.27 64.45 120.86 59.92ZM117.74 67.9L119.87 65.77L119.9 65.8V87.31H117.74V67.9ZM130.67 66.82H132.71V71.68H130.67V66.82ZM129.98 71.5L131.42 72.22C129.29 74.35 125.45 76.6 122.48 77.68C122.21 77.23 121.67 76.57 121.25 76.21C124.22 75.31 128 73.36 129.98 71.5ZM138.65 73.27L140.21 74.68C138.17 75.97 135.44 77.32 133.43 78.16L132.26 76.93C134.24 76.03 137.03 74.41 138.65 73.27ZM136.67 75.97C137.63 79.15 139.58 82.27 141.95 83.71C141.47 84.1 140.81 84.88 140.48 85.42C137.96 83.62 135.98 80.08 134.93 76.42L136.67 75.97ZM164.09 61.78L165.8 60.61C167.57 62.11 169.67 64.24 170.66 65.62L168.8 66.94C167.9 65.5 165.86 63.34 164.09 61.78ZM144.65 68.68H171.38V70.84H144.65V68.68ZM144.2 77.5C147.77 76.84 153.41 75.64 158.69 74.5L158.87 76.54C153.95 77.68 148.64 78.91 144.86 79.75L144.2 77.5ZM151.1 62.86H153.35V84.52C153.35 85.99 152.99 86.65 152.03 87.01C151.07 87.37 149.48 87.46 146.99 87.43C146.87 86.83 146.48 85.81 146.15 85.15C148.07 85.24 149.84 85.21 150.38 85.18C150.92 85.18 151.1 85.03 151.1 84.49V62.86ZM156.8 60.16L158.39 62.05C154.91 63.25 149.81 64.18 145.52 64.78C145.4 64.27 145.13 63.43 144.83 62.92C149.06 62.26 153.92 61.24 156.8 60.16ZM159.8 60.07H162.14C162.08 73.84 165.02 85.24 168.68 85.24C169.49 85.24 169.85 83.68 170.03 79.81C170.51 80.32 171.32 80.83 171.95 81.07C171.53 86.05 170.72 87.52 168.47 87.52C162.59 87.52 159.92 74.35 159.8 60.07ZM167.93 72.22L169.94 73.06C167 78.55 162.05 83.38 156.53 86.29C156.17 85.72 155.54 85 154.97 84.49C160.31 81.91 165.26 77.29 167.93 72.22ZM178.19 69.76V73.36H184.97V69.76H178.19ZM176.21 67.93H187.07V75.22H176.21V67.93ZM174.59 63.52H188.3V65.53H174.59V63.52ZM188.6 67.6H201.59V69.64H188.6V67.6ZM194.63 72.04H196.61V83.68C196.61 84.34 196.67 84.7 196.85 84.82C197.03 84.94 197.27 84.97 197.57 84.97C197.87 84.97 198.5 84.97 198.89 84.97C199.22 84.97 199.58 84.94 199.76 84.85C199.97 84.76 200.12 84.49 200.18 83.98C200.27 83.5 200.3 82.27 200.33 80.74C200.75 81.13 201.53 81.49 202.1 81.67C202.07 83.05 201.95 84.61 201.77 85.21C201.59 85.81 201.26 86.2 200.81 86.41C200.39 86.65 199.64 86.71 199.1 86.71C198.65 86.71 197.54 86.71 197.18 86.71C196.52 86.71 195.77 86.56 195.32 86.2C194.81 85.81 194.63 85.33 194.63 83.44V72.04ZM192.77 59.89H194.9C194.84 69.19 194.6 81.19 187.73 87.43C187.37 86.98 186.68 86.44 186.08 86.11C192.74 80.29 192.71 68.68 192.77 59.89ZM180.74 74.62H182.78V85C182.78 86.02 182.6 86.56 181.88 86.89C181.19 87.19 180.2 87.25 178.61 87.22C178.55 86.68 178.22 85.87 177.95 85.36C179.03 85.39 180.02 85.39 180.32 85.36C180.65 85.36 180.74 85.27 180.74 84.97V74.62ZM177.26 76.81L179.15 77.2C178.46 79.93 177.35 82.75 176.09 84.55C175.73 84.25 174.92 83.71 174.47 83.47C175.73 81.76 176.66 79.27 177.26 76.81ZM183.98 77.2L185.6 76.45C186.56 78.1 187.52 80.29 187.85 81.73L186.11 82.54C185.81 81.07 184.91 78.85 183.98 77.2ZM196.04 62.08L197.57 61.21C198.77 62.53 200.12 64.36 200.66 65.59L199.07 66.58C198.53 65.35 197.24 63.46 196.04 62.08ZM179.63 60.25L181.7 59.77C182.42 61.06 183.17 62.83 183.44 63.91L181.28 64.48C181.01 63.37 180.32 61.57 179.63 60.25ZM205.07 61.93H230.9V64.21H205.07V61.93ZM219.77 70.66L221.45 69.22C224.96 71.5 229.55 74.89 231.77 77.2L229.94 78.91C227.84 76.6 223.34 73.09 219.77 70.66ZM219.2 62.71L221.66 63.61C218.24 69.82 212.63 75.76 205.85 79.33C205.49 78.76 204.77 77.86 204.32 77.38C210.83 74.11 216.41 68.35 219.2 62.71ZM216.74 68.71L219.17 66.31V87.37H216.74V68.71ZM244.64 70.48H246.77V84.97C246.77 86.11 246.53 86.65 245.75 86.98C244.94 87.28 243.65 87.31 241.76 87.31C241.64 86.77 241.31 85.99 241.04 85.45C242.45 85.51 243.71 85.48 244.13 85.48C244.55 85.48 244.64 85.36 244.64 84.97V70.48ZM237.35 70.48H245.78V72.43H237.35V70.48ZM249.53 73.81H251.75V83.95C251.75 84.97 252.02 85.15 253.46 85.15C254.09 85.15 257.48 85.15 258.41 85.15C259.64 85.15 259.85 84.61 260 81.34C260.51 81.7 261.41 82.06 262.01 82.18C261.74 86.11 261.08 87.16 258.59 87.16C257.9 87.16 253.85 87.16 253.22 87.16C250.31 87.16 249.53 86.47 249.53 83.98V73.81ZM243.02 62.71L244.85 61.99C246.32 64.06 248.03 66.91 248.78 68.68L246.86 69.55C246.17 67.75 244.49 64.84 243.02 62.71ZM250.82 64H259.88V65.98H250.82V64ZM250.85 77.41H260.21V79.45H250.85V77.41ZM235.94 68.62C235.82 68.17 235.46 67.06 235.22 66.49C235.7 66.4 236.18 65.98 236.78 65.32C237.41 64.66 239.39 62.23 240.65 59.8L242.93 60.55C241.28 63.16 239.21 65.77 237.35 67.45V67.48C237.35 67.48 235.94 68.17 235.94 68.62ZM235.94 68.62L235.88 66.94L237.08 66.22L246.5 65.59C246.59 66.16 246.77 66.94 246.92 67.39C237.8 68.17 236.66 68.32 235.94 68.62ZM236.27 70.48H238.37V77.89C238.37 80.86 238.01 84.82 235.94 87.46C235.64 87.01 234.83 86.2 234.38 85.9C236.09 83.59 236.27 80.44 236.27 77.86V70.48ZM238.07 81.73C239.9 80.92 242.63 79.54 245.27 78.19L245.72 79.66C243.35 81.07 240.92 82.51 238.88 83.65L238.07 81.73ZM238.61 75.28L239.78 74.14C241.4 75.1 243.5 76.42 244.58 77.26L243.38 78.55C242.33 77.65 240.23 76.24 238.61 75.28ZM249.53 59.83H251.75V69.37C251.75 70.48 251.99 70.84 252.98 70.84C253.82 70.84 257.63 70.84 258.53 70.84C259.25 70.84 260.45 70.81 261.02 70.66C261.08 71.26 261.17 72.1 261.26 72.64C260.75 72.76 259.67 72.79 258.59 72.79C257.69 72.79 253.55 72.79 252.95 72.79C250.28 72.79 249.53 71.89 249.53 69.31V59.83ZM266.42 62.56H273.23V80.02H266.42V77.86H271.16V64.72H266.42V62.56ZM265.28 62.56H267.35V82.39H265.28V62.56ZM277.67 64.42H291.35V66.55H277.67V64.42ZM277.01 70.63H287.78V72.73H277.01V70.63ZM278.93 59.8L281.18 60.31C279.92 64.6 277.88 68.65 275.57 71.29C275.15 70.9 274.25 70.15 273.71 69.82C276.02 67.42 277.88 63.67 278.93 59.8ZM287.45 70.63H287.81L288.35 70.54L289.88 71.38C289.79 71.53 289.67 71.68 289.52 71.83C278.24 81.04 277.46 82.6 277.46 83.59C277.46 84.4 278.33 84.73 279.68 84.73H288.17C289.46 84.73 289.79 84.19 289.91 80.23C290.51 80.56 291.32 80.86 291.98 80.98C291.68 86.11 290.75 86.95 288.05 86.95H279.77C276.56 86.95 275.12 85.81 275.12 83.89C275.12 82.3 275.63 80.38 287.45 70.63ZM294.89 63.7H321.17V65.83H294.89V63.7ZM301.97 74.41H316.25V76.36H301.97V74.41ZM315.44 69.31H317.63V84.61C317.63 85.93 317.36 86.62 316.34 86.98C315.38 87.34 313.7 87.34 311.12 87.34C311.03 86.71 310.7 85.78 310.37 85.15C312.38 85.24 314.21 85.21 314.75 85.21C315.26 85.18 315.44 85.03 315.44 84.58V69.31ZM304.7 59.8L306.98 60.34C304.97 66.85 301.37 73.45 295.73 77.44C295.43 76.93 294.71 76.12 294.29 75.7C299.57 72.04 303.08 65.74 304.7 59.8ZM301.79 79.48H316.25V81.43H301.79V79.48ZM301.82 69.31H316.07V71.35H301.82V69.31ZM300.62 69.31H302.87V77.26C302.87 80.59 302.36 84.82 299.42 87.58C299.12 87.07 298.28 86.14 297.83 85.81C300.35 83.41 300.62 80.08 300.62 77.23V69.31ZM339.05 64.03H350.39V66.07H339.05V64.03ZM338.45 70.6H351.47V72.67H338.45V70.6ZM343.67 59.83H345.71V67.87C345.71 73.36 344.84 78.88 338.66 83.08C338.33 82.63 337.67 82.06 337.16 81.67C342.92 77.74 343.67 72.58 343.67 67.87V59.83ZM324.47 62.29H338.3V64.15H324.47V62.29ZM326.93 75.76C329.48 83.38 334.88 84.64 342.35 84.64C343.73 84.64 350.21 84.64 351.95 84.58C351.59 85.12 351.17 86.17 351.02 86.83H342.32C333.89 86.83 328.22 85.21 325.37 76.39L326.93 75.76ZM329.69 73.24L331.52 73.69C330.2 76.93 327.8 79.9 325.1 81.79C324.95 81.37 324.47 80.38 324.11 79.96C326.42 78.4 328.55 75.97 329.69 73.24ZM326.81 64.9L328.37 65.32C327.68 67.66 326.48 70.06 325.1 71.59C324.95 71.23 324.47 70.42 324.14 70.09C325.31 68.8 326.3 66.91 326.81 64.9ZM329.09 75.31H335.51V77.14H328.13L329.09 75.31ZM335 75.31H335.45L335.81 75.22L337.04 75.85C335 81.97 330.44 85.63 325.25 87.49C325.01 87.04 324.41 86.2 323.99 85.84C329 84.22 333.32 80.92 335 75.67V75.31ZM330.35 59.86H332.36V70.63H330.35V59.86ZM326.48 67.75L327.5 66.76C328.37 67.45 329.36 68.35 329.84 68.92L328.76 70.09C328.25 69.46 327.29 68.44 326.48 67.75ZM335.21 64.96L336.68 65.32C336.14 67.06 335.12 68.89 334.1 70.06C333.83 69.82 333.17 69.43 332.81 69.25C333.86 68.11 334.7 66.55 335.21 64.96ZM334.64 67.96L335.66 66.91C336.74 67.69 338.03 68.74 338.66 69.4L337.58 70.63C336.95 69.91 335.66 68.74 334.64 67.96ZM330.8 69.58L332.39 70.21C330.74 72.07 327.68 73.81 324.92 74.59C324.62 74.08 324.05 73.36 323.63 73C326.3 72.4 329.27 71.05 330.8 69.58ZM330.8 71.23L331.82 69.76C333.8 70.66 336.5 71.98 337.88 72.85L336.86 74.5C335.48 73.6 332.81 72.19 330.8 71.23ZM343.97 73.03L345.59 72.13C347.72 75.1 350.36 79.09 351.59 81.46L349.82 82.57C348.65 80.17 346.07 76.06 343.97 73.03ZM365.69 59.92L367.1 61.3C364.55 62.11 360.65 62.56 357.38 62.74C357.29 62.32 357.05 61.69 356.84 61.27C359.96 61.03 363.68 60.55 365.69 59.92ZM378.44 59.92L379.97 61.27C377.27 62.11 373.1 62.53 369.62 62.71C369.53 62.29 369.29 61.63 369.05 61.21C372.38 61 376.34 60.58 378.44 59.92ZM357.71 64.3H367.61V66.04H357.71V64.3ZM369.98 64.3H381.41V66.04H369.98V64.3ZM362.21 64.81H364.25V69.67H362.21V64.81ZM374.69 64.84H376.73V69.79H374.69V64.84ZM360.74 75.37V77.5H375.14V75.37H360.74ZM360.74 78.94V81.13H375.14V78.94H360.74ZM360.74 71.8V73.9H375.14V71.8H360.74ZM358.55 70.3H377.42V82.66H358.55V70.3ZM370.94 84.25L371.84 82.78C375.23 83.68 378.83 84.91 381.08 85.84L380 87.46C377.84 86.5 374.33 85.24 370.94 84.25ZM363.53 82.81L365.27 83.77C362.78 85.18 358.85 86.68 355.82 87.55C355.67 87.13 355.07 86.08 354.71 85.63C357.62 85 361.31 83.92 363.53 82.81ZM356.84 61.27H358.82V63.73C358.82 65.92 358.28 68.65 355.88 70.6C355.58 70.18 354.8 69.4 354.38 69.13C356.51 67.48 356.84 65.41 356.84 63.7V61.27ZM369.05 61.21H371V63.46C371 65.5 370.58 68.23 368.63 70.12C368.27 69.76 367.43 69.16 366.98 68.95C368.75 67.24 369.05 65.08 369.05 63.43V61.21ZM386.93 64.63H396.05V84.25H386.93V82.21H393.95V66.64H386.93V64.63ZM385.58 64.63H387.68V86.65H385.58V64.63ZM386.78 72.97H395.06V74.98H386.78V72.97ZM390.17 59.74L392.6 60.19C392 62.05 391.25 64.12 390.65 65.47L388.85 65.02C389.36 63.58 389.93 61.3 390.17 59.74ZM400.31 64.54H409.52V66.64H400.31V64.54ZM408.74 64.54H410.84C410.84 64.54 410.84 65.38 410.84 65.71C410.36 79.48 409.94 84.13 408.74 85.6C408.08 86.47 407.39 86.74 406.34 86.83C405.32 86.95 403.55 86.89 401.87 86.8C401.81 86.14 401.54 85.21 401.12 84.61C403.07 84.76 404.87 84.79 405.56 84.79C406.16 84.79 406.52 84.7 406.85 84.31C407.84 83.23 408.32 78.25 408.74 65.02V64.54ZM400.94 59.68L403.1 60.19C401.99 64.66 400.22 69.07 398.15 71.92C397.76 71.56 396.83 70.93 396.29 70.63C398.33 67.99 399.98 63.85 400.94 59.68ZM399.56 72.34L401.3 71.32C403.01 73.45 405.08 76.36 406.04 78.13L404.12 79.33C403.22 77.5 401.21 74.53 399.56 72.34ZM420.8 72.55H435.14V74.14H420.8V72.55ZM438.02 77.59L439.73 78.88C437.57 80.5 434.81 82.15 432.59 83.29L431.15 82.03C433.31 80.92 436.31 79 438.02 77.59ZM420.68 68.68H436.49V78.04H420.68V76.3H434.24V70.39H420.68V68.68ZM428.69 60.82C431.6 63.85 437.24 66.82 442.07 68.14C441.56 68.62 440.87 69.52 440.54 70.09C435.8 68.53 430.13 65.23 426.92 61.75L428.69 60.82ZM427.7 59.62L429.74 60.61C426.59 64.84 421.25 68.17 415.7 70.09C415.4 69.52 414.8 68.71 414.26 68.2C419.57 66.61 424.97 63.46 427.7 59.62ZM419.3 87.19C419.12 86.71 418.61 85.87 418.25 85.48C418.73 85.18 419.42 84.55 419.42 83.29V68.68H421.61V84.94C421.61 84.94 419.3 86.41 419.3 87.19ZM419.3 87.19L419.21 85.42L420.44 84.64L429.05 83.17C428.99 83.74 428.99 84.61 429.02 85.06C421.07 86.59 419.96 86.83 419.3 87.19ZM426.29 80.38L427.79 79.09C431.57 81.01 436.61 83.89 439.22 85.78L437.63 87.31C435.14 85.45 430.16 82.42 426.29 80.38ZM423.89 65.77H432.32V67.39H423.89V65.77ZM459.02 59.8L461.06 60.22C459.95 65.14 457.97 69.7 455.45 72.67C455.09 72.34 454.19 71.68 453.71 71.38C456.23 68.68 458 64.36 459.02 59.8ZM469.37 64.84H471.5C471.5 64.84 471.5 65.68 471.47 66.01C470.78 79.69 470.15 84.4 468.92 85.87C468.32 86.68 467.75 86.95 466.82 87.04C466.04 87.16 464.72 87.13 463.4 87.04C463.34 86.38 463.13 85.42 462.77 84.82C464.12 84.94 465.35 84.97 465.92 84.97C466.4 84.97 466.7 84.85 467.06 84.46C468.05 83.32 468.74 78.55 469.37 65.38V64.84ZM458.81 64.84H470.27V66.97H457.85L458.81 64.84ZM461.84 65.5L463.55 66.37C462.26 71.68 459.41 77.68 455.99 80.65C455.54 80.2 454.82 79.66 454.22 79.33C457.73 76.57 460.61 70.75 461.84 65.5ZM466.13 65.68L467.93 66.52C466.43 74.59 463.07 82.87 458.03 86.92C457.58 86.44 456.77 85.87 456.11 85.54C461.36 81.79 464.69 73.66 466.13 65.68ZM444.05 76.45C446.87 75.73 451.16 74.47 455.24 73.24L455.54 75.22C451.73 76.42 447.68 77.68 444.65 78.64L444.05 76.45ZM449.66 59.83H451.76V87.4H449.66V59.83ZM445.94 61.54L447.89 61.87C447.44 65.86 446.69 69.91 445.55 72.58C445.19 72.31 444.32 71.8 443.84 71.59C444.98 69.04 445.58 65.23 445.94 61.54ZM446.12 65.95H454.85V68.14H445.76L446.12 65.95ZM483.29 60.94H488.51V62.92H485.12V87.37H483.29V60.94ZM488.09 60.94H488.39L488.63 60.85L490.01 61.57C489.41 64.06 488.6 67.12 487.73 70.21C489.41 73.03 490.13 75.04 490.13 76.9C490.13 78.52 489.8 80.05 489.08 80.65C488.75 80.95 488.27 81.13 487.76 81.19C487.34 81.25 486.71 81.25 486.17 81.25C486.14 80.71 485.96 79.93 485.66 79.42C486.17 79.48 486.68 79.48 487.04 79.45C487.34 79.45 487.61 79.39 487.79 79.24C488.18 78.91 488.3 77.86 488.3 76.84C488.3 75.13 487.64 73.3 485.99 70.45C486.89 67 487.61 63.64 488.09 61.12V60.94ZM476.15 62.2H481.55V79.42H476.15V77.23H479.72V64.39H476.15V62.2ZM475.22 62.2H476.99V82.36H475.22V62.2ZM490.49 61.21H501.8V63.37H490.49V61.21ZM491 66.79H495.59V68.83H492.59V81.49H491V66.79ZM498.44 61.9H500.3V84.43C500.3 85.66 500.06 86.38 499.22 86.77C498.41 87.13 497.03 87.16 494.96 87.19C494.9 86.59 494.54 85.57 494.21 85C495.89 85.06 497.39 85.03 497.87 85C498.32 85 498.44 84.85 498.44 84.43V61.9ZM494.96 66.79H496.61V79.42H491.75V77.38H494.96V66.79ZM507.14 85.42C506.06 85.42 505.19 84.55 505.19 83.32C505.19 82.06 506.06 81.22 507.14 81.22C508.25 81.22 509.15 82.06 509.15 83.32C509.15 84.55 508.25 85.42 507.14 85.42ZM515.49 85.42C514.41 85.42 513.54 84.55 513.54 83.32C513.54 82.06 514.41 81.22 515.49 81.22C516.6 81.22 517.5 82.06 517.5 83.32C517.5 84.55 516.6 85.42 515.49 85.42ZM523.839 85.42C522.759 85.42 521.889 84.55 521.889 83.32C521.889 82.06 522.759 81.22 523.839 81.22C524.949 81.22 525.849 82.06 525.849 83.32C525.849 84.55 524.949 85.42 523.839 85.42ZM532.189 85.42C531.109 85.42 530.239 84.55 530.239 83.32C530.239 82.06 531.109 81.22 532.189 81.22C533.299 81.22 534.199 82.06 534.199 83.32C534.199 84.55 533.299 85.42 532.189 85.42ZM540.538 85.42C539.458 85.42 538.588 84.55 538.588 83.32C538.588 82.06 539.458 81.22 540.538 81.22C541.648 81.22 542.548 82.06 542.548 83.32C542.548 84.55 541.648 85.42 540.538 85.42ZM114.32 107.07H141.77V109.53H114.32V107.07ZM146.42 97.56H153.23V115.02H146.42V112.86H151.16V99.72H146.42V97.56ZM145.28 97.56H147.35V117.39H145.28V97.56ZM157.67 99.42H171.35V101.55H157.67V99.42ZM157.01 105.63H167.78V107.73H157.01V105.63ZM158.93 94.8L161.18 95.31C159.92 99.6 157.88 103.65 155.57 106.29C155.15 105.9 154.25 105.15 153.71 104.82C156.02 102.42 157.88 98.67 158.93 94.8ZM167.45 105.63H167.81L168.35 105.54L169.88 106.38C169.79 106.53 169.67 106.68 169.52 106.83C158.24 116.04 157.46 117.6 157.46 118.59C157.46 119.4 158.33 119.73 159.68 119.73H168.17C169.46 119.73 169.79 119.19 169.91 115.23C170.51 115.56 171.32 115.86 171.98 115.98C171.68 121.11 170.75 121.95 168.05 121.95H159.77C156.56 121.95 155.12 120.81 155.12 118.89C155.12 117.3 155.63 115.38 167.45 105.63ZM178.19 104.76V108.36H184.97V104.76H178.19ZM176.21 102.93H187.07V110.22H176.21V102.93ZM174.59 98.52H188.3V100.53H174.59V98.52ZM188.6 102.6H201.59V104.64H188.6V102.6ZM194.63 107.04H196.61V118.68C196.61 119.34 196.67 119.7 196.85 119.82C197.03 119.94 197.27 119.97 197.57 119.97C197.87 119.97 198.5 119.97 198.89 119.97C199.22 119.97 199.58 119.94 199.76 119.85C199.97 119.76 200.12 119.49 200.18 118.98C200.27 118.5 200.3 117.27 200.33 115.74C200.75 116.13 201.53 116.49 202.1 116.67C202.07 118.05 201.95 119.61 201.77 120.21C201.59 120.81 201.26 121.2 200.81 121.41C200.39 121.65 199.64 121.71 199.1 121.71C198.65 121.71 197.54 121.71 197.18 121.71C196.52 121.71 195.77 121.56 195.32 121.2C194.81 120.81 194.63 120.33 194.63 118.44V107.04ZM192.77 94.89H194.9C194.84 104.19 194.6 116.19 187.73 122.43C187.37 121.98 186.68 121.44 186.08 121.11C192.74 115.29 192.71 103.68 192.77 94.89ZM180.74 109.62H182.78V120C182.78 121.02 182.6 121.56 181.88 121.89C181.19 122.19 180.2 122.25 178.61 122.22C178.55 121.68 178.22 120.87 177.95 120.36C179.03 120.39 180.02 120.39 180.32 120.36C180.65 120.36 180.74 120.27 180.74 119.97V109.62ZM177.26 111.81L179.15 112.2C178.46 114.93 177.35 117.75 176.09 119.55C175.73 119.25 174.92 118.71 174.47 118.47C175.73 116.76 176.66 114.27 177.26 111.81ZM183.98 112.2L185.6 111.45C186.56 113.1 187.52 115.29 187.85 116.73L186.11 117.54C185.81 116.07 184.91 113.85 183.98 112.2ZM196.04 97.08L197.57 96.21C198.77 97.53 200.12 99.36 200.66 100.59L199.07 101.58C198.53 100.35 197.24 98.46 196.04 97.08ZM179.63 95.25L181.7 94.77C182.42 96.06 183.17 97.83 183.44 98.91L181.28 99.48C181.01 98.37 180.32 96.57 179.63 95.25ZM204.56 96.45H216.38V98.55H204.56V96.45ZM207.35 103.26V107.64H213.62V103.26H207.35ZM205.4 101.4H215.69V109.47H205.4V101.4ZM212.66 110.34L214.85 110.91C214.28 112.98 213.62 115.41 213.08 116.97L211.34 116.46C211.85 114.81 212.42 112.17 212.66 110.34ZM206.09 111.06L207.92 110.61C208.64 112.38 209.12 114.66 209.21 116.19L207.26 116.67C207.2 115.17 206.75 112.86 206.09 111.06ZM204.11 118.65C207.23 118.08 212 117.09 216.59 116.1L216.77 118.05C212.51 119.04 207.98 120.03 204.68 120.78L204.11 118.65ZM217.19 96.24H231.68V98.19H217.19V96.24ZM220.19 107.37V110.31H228.56V107.37H220.19ZM220.19 111.99V114.96H228.56V111.99H220.19ZM220.19 102.81V105.72H228.56V102.81H220.19ZM218.12 101.07H230.75V116.7H218.12V101.07ZM223.04 97.2L225.56 97.53C225.08 99.27 224.54 101.16 224.06 102.42L222.08 102.03C222.44 100.68 222.86 98.61 223.04 97.2ZM220.94 117.33L222.92 118.5C221.3 120.03 218.63 121.59 216.32 122.46C215.99 122.04 215.3 121.35 214.79 120.96C217.1 120.15 219.71 118.62 220.94 117.33ZM225.44 118.59L227.15 117.48C228.89 118.56 231.17 120.12 232.34 121.23L230.51 122.46C229.46 121.38 227.21 119.7 225.44 118.59ZM239.96 99.96V101.43H255.89V99.96H239.96ZM239.96 97.17V98.61H255.89V97.17H239.96ZM237.8 95.79H258.11V102.84H237.8V95.79ZM246.8 105.36H249.02V122.4H246.8V105.36ZM240.29 114.03V115.53H255.62V114.03H240.29ZM240.29 111.3V112.77H255.62V111.3H240.29ZM238.19 110.01H257.81V116.85H238.19V110.01ZM234.68 118.23H261.38V119.91H234.68V118.23ZM238.52 107.13H257.42V108.63H238.52V107.13ZM235.28 104.1H260.63V108.81H258.47V105.75H237.38V108.81H235.28V104.1ZM280.28 112.98C278.36 110.61 275.78 108.03 273.65 106.29L275.6 104.58C277.76 106.32 280.46 109.05 282.32 111.24L280.28 112.98ZM297.14 95.91H304.1V98.01H297.14V95.91ZM296.21 95.91H298.28V106.56C298.28 111.21 297.92 117.9 295.7 122.43C295.37 122.01 294.5 121.29 293.99 121.08C296.03 116.85 296.21 110.97 296.21 106.59V95.91ZM303.08 95.91H305.15V119.46C305.15 120.69 304.91 121.38 304.13 121.74C303.35 122.13 302.12 122.16 300.05 122.16C299.96 121.59 299.69 120.57 299.42 120C300.83 120.06 302.12 120.03 302.51 120.03C302.93 120 303.08 119.85 303.08 119.46V95.91ZM298.07 111.45C299.48 110.7 301.55 109.38 303.62 108.03L304.25 109.44C302.51 110.79 300.71 112.14 299.15 113.31L298.07 111.45ZM298.13 102.78L299.51 101.76C300.83 102.96 302.39 104.52 303.14 105.54L301.67 106.74C300.92 105.69 299.42 103.98 298.13 102.78ZM307.04 104.28H321.14V106.47H307.04V104.28ZM306.23 118.92H321.77V121.11H306.23V118.92ZM313.04 95.07H315.32V120.21H313.04V95.07ZM324.5 108.15H351.59V110.4H324.5V108.15ZM327.5 96.84H347.09V99.06H327.5V96.84ZM346.37 96.84H346.94L347.48 96.72L349.16 98.01C346.37 100.74 342.02 103.68 338.42 105.42C338.09 104.91 337.37 104.19 336.92 103.8C340.28 102.27 344.42 99.45 346.37 97.35V96.84ZM336.92 103.8H339.26V119.46C339.26 120.96 338.9 121.65 337.73 121.98C336.59 122.37 334.67 122.4 331.76 122.4C331.61 121.74 331.19 120.75 330.8 120.09C333.23 120.18 335.45 120.15 336.11 120.12C336.74 120.09 336.92 119.94 336.92 119.43V103.8ZM363.5 101.34H377.72V103.02H363.5V101.34ZM364.19 115.68H379.01V117.36H364.19V115.68ZM364.19 111.48H379.01V113.19H364.19V111.48ZM370.34 108.24H372.44V122.13H370.34V108.24ZM362.84 107.28H378.59V109.02H364.91V122.4H362.84V107.28ZM378.05 107.28H380.15V120.18C380.15 121.26 379.91 121.77 379.16 122.04C378.38 122.34 377.12 122.34 375.17 122.34C375.08 121.86 374.78 121.14 374.54 120.66C375.89 120.69 377.15 120.69 377.54 120.66C377.93 120.63 378.05 120.54 378.05 120.18V107.28ZM377.09 101.34H377.63L378.11 101.22L379.46 102.36C377.39 104.07 374.39 105.75 371.75 106.83C371.48 106.47 370.94 105.9 370.64 105.6C372.98 104.67 375.71 103.02 377.09 101.73V101.34ZM365.81 105.09L367.07 103.8C370.01 104.64 373.67 106.17 375.68 107.31L374.36 108.75C372.41 107.55 368.75 105.96 365.81 105.09ZM359.81 97.71H381.5V99.69H359.81V97.71ZM358.58 97.71H360.71V107.07C360.71 111.75 360.14 118.17 356.21 122.34C355.91 121.89 355.07 121.11 354.62 120.84C358.22 116.94 358.58 111.39 358.58 107.07V97.71ZM354.11 101.1L355.82 100.29C356.84 102.03 357.8 104.34 358.13 105.81L356.27 106.77C356 105.24 355.07 102.87 354.11 101.1ZM353.72 112.02C355.1 111.36 357.08 110.31 359.12 109.23L359.63 111C357.89 112.05 356.12 113.13 354.47 114.06L353.72 112.02ZM367.64 95.25L369.71 94.62C370.52 95.67 371.39 97.11 371.84 98.01L369.62 98.73C369.23 97.83 368.36 96.33 367.64 95.25ZM400.28 112.98C398.36 110.61 395.78 108.03 393.65 106.29L395.6 104.58C397.76 106.32 400.46 109.05 402.32 111.24L400.28 112.98ZM416.42 111.21H439.67V113.1H416.42V111.21ZM414.68 96.69H428.39V98.4H414.68V96.69ZM428.06 115.44H437.72V117.21H428.06V115.44ZM414.41 119.67H441.65V121.62H414.41V119.67ZM426.83 111.9H429.05V120.51H426.83V111.9ZM420.65 94.8H422.66V110.37H420.65V94.8ZM419.33 114.66H421.49V120.66H419.33V114.66ZM417.41 101.46V103.68H425.66V101.46H417.41ZM415.58 99.93H427.61V105.15H415.58V99.93ZM432.14 94.83L434.18 95.28C433.22 98.7 431.45 101.94 429.35 104.01C429.05 103.59 428.27 102.84 427.82 102.48C429.8 100.65 431.3 97.86 432.14 94.83ZM431.69 98.16H441.53V100.05H430.76L431.69 98.16ZM437.72 98.97L439.82 99.21C438.35 105.24 434.66 108.66 429.2 110.73C428.96 110.31 428.3 109.44 427.88 109.05C433.13 107.4 436.52 104.28 437.72 98.97ZM431.93 99.27C433.19 102.99 436.31 107.25 441.86 109.02C441.41 109.44 440.81 110.28 440.57 110.79C434.99 108.72 431.81 104.13 430.46 100.26L431.93 99.27ZM420.44 104.58L421.91 105.21C420.5 107.31 417.83 109.53 415.49 110.61C415.19 110.16 414.59 109.47 414.17 109.14C416.48 108.27 419.09 106.38 420.44 104.58ZM422.54 106.44L423.53 105.27C424.94 105.93 426.74 106.98 427.61 107.82L426.62 109.14C425.72 108.3 424.01 107.19 422.54 106.44ZM453.23 96.63H470.78V122.16H468.62V98.64H455.33V122.4H453.23V96.63ZM456.56 102.99H467.6V104.76H456.56V102.99ZM454.37 118.59H469.82V120.6H454.37V118.59ZM461.12 99.6H462.95V109.11H461.12V99.6ZM459.56 109.74V114.39H464.63V109.74H459.56ZM457.82 108.06H466.43V116.1H457.82V108.06ZM450.11 94.95L452.18 95.55C450.47 100.68 447.68 105.84 444.68 109.29C444.5 108.75 443.87 107.52 443.48 106.98C446.18 104.04 448.64 99.51 450.11 94.95ZM447.62 102.3L449.72 100.17L449.75 100.2V122.46H447.62V102.3ZM486.71 94.92H489.2C489.08 100.23 488.84 115.47 476.09 122.31C475.7 121.71 474.95 121.02 474.26 120.54C486.77 114.21 486.59 99.54 486.71 94.92ZM488.93 98.61C489.2 100.77 490.43 115.14 501.95 120.27C501.29 120.78 500.63 121.56 500.3 122.19C488.42 116.64 487.19 101.46 486.77 98.85L488.93 98.61ZM505.64 98.31H516.14V100.29H505.64V98.31ZM508.82 118.59H517.22V120.51H508.82V118.59ZM508.79 113.61H517.25V115.41H508.79V113.61ZM504.29 103.89H519.8V105.9H504.29V103.89ZM510.29 95.07H512.39V105.18H510.29V95.07ZM518.24 95.85L520.28 96.45C516.98 103.95 511.64 109.71 505.04 113.34C504.77 112.86 504.05 111.96 503.63 111.51C510.14 108.27 515.27 102.81 518.24 95.85ZM509.51 108.81H517.16V110.7H509.51V122.28H507.44V110.13L508.7 108.81H509.51ZM516.26 108.81H518.45V121.86H516.26V108.81ZM521.06 96.54H530.03V98.64H523.31V122.4H521.06V96.54ZM529.46 96.54H529.91L530.27 96.42L531.89 97.47C530.63 100.29 529.01 103.77 527.54 106.53C530.69 109.32 531.5 111.69 531.5 113.85C531.53 115.71 531.08 117.09 529.97 117.81C529.43 118.17 528.74 118.38 527.96 118.47C527.15 118.56 526.07 118.56 525.14 118.5C525.11 117.9 524.84 116.91 524.48 116.31C525.44 116.4 526.34 116.43 527 116.37C527.54 116.34 528.05 116.22 528.41 116.01C529.13 115.62 529.34 114.75 529.34 113.64C529.34 111.75 528.38 109.47 525.2 106.86C526.82 103.74 528.5 99.66 529.46 97.23V96.54ZM538.67 110.19H557.33V122.28H554.96V112.02H540.95V122.4H538.67V110.19ZM539.93 114.72H555.86V116.46H539.93V114.72ZM539.93 119.31H555.86V121.11H539.93V119.31ZM539.03 101.4H560.96V103.29H539.03V101.4ZM557.21 95.04L558.26 96.81C553.13 97.74 545.09 98.31 538.49 98.49C538.46 97.98 538.22 97.2 537.98 96.72C544.58 96.48 552.62 95.88 557.21 95.04ZM547.64 97.29H549.86C550.43 103.41 554.72 107.97 558.32 107.88C559.16 107.88 559.43 107.19 559.58 105.12C560.03 105.54 560.78 105.9 561.38 106.05C561.02 109.23 560.21 110.04 558.23 110.04C553.25 110.04 548.3 104.61 547.64 97.29ZM537.2 109.83C537.08 109.29 536.72 108.42 536.39 108C536.99 107.82 537.98 107.28 537.98 106.11V96.72L540.29 97.17V107.85C540.29 107.85 537.2 109.05 537.2 109.83ZM537.2 109.83L537.14 108.09L538.31 107.34L547.7 105.9C547.67 106.47 547.67 107.31 547.7 107.73C539 109.2 537.92 109.44 537.2 109.83ZM568.67 110.19H587.33V122.28H584.96V112.02H570.95V122.4H568.67V110.19ZM569.93 114.72H585.86V116.46H569.93V114.72ZM569.93 119.31H585.86V121.11H569.93V119.31ZM569.03 101.4H590.96V103.29H569.03V101.4ZM587.21 95.04L588.26 96.81C583.13 97.74 575.09 98.31 568.49 98.49C568.46 97.98 568.22 97.2 567.98 96.72C574.58 96.48 582.62 95.88 587.21 95.04ZM577.64 97.29H579.86C580.43 103.41 584.72 107.97 588.32 107.88C589.16 107.88 589.43 107.19 589.58 105.12C590.03 105.54 590.78 105.9 591.38 106.05C591.02 109.23 590.21 110.04 588.23 110.04C583.25 110.04 578.3 104.61 577.64 97.29ZM567.2 109.83C567.08 109.29 566.72 108.42 566.39 108C566.99 107.82 567.98 107.28 567.98 106.11V96.72L570.29 97.17V107.85C570.29 107.85 567.2 109.05 567.2 109.83ZM567.2 109.83L567.14 108.09L568.31 107.34L577.7 105.9C577.67 106.47 577.67 107.31 577.7 107.73C569 109.2 567.92 109.44 567.2 109.83ZM603.11 100.53H621.02V106.89H618.77V102.63H605.27V106.89H603.11V100.53ZM611.72 106.38H613.91V118.74C613.91 119.7 614.09 119.88 615.11 119.88C615.56 119.88 617.9 119.88 618.5 119.88C619.52 119.88 619.67 119.19 619.79 115.17C620.27 115.56 621.2 115.92 621.8 116.1C621.59 120.72 620.99 121.98 618.68 121.98C618.17 121.98 615.32 121.98 614.81 121.98C612.35 121.98 611.72 121.26 611.72 118.74V106.38ZM610.25 94.83H612.47C612.44 105.39 612.38 116.79 602.9 122.43C602.54 121.89 601.82 121.14 601.22 120.75C610.4 115.59 610.22 104.76 610.25 94.83ZM595.73 96.78L596.96 95.16C598.67 96 601.04 97.32 602.24 98.16L601.01 99.99C599.84 99.12 597.5 97.71 595.73 96.78ZM594.23 105.06L595.43 103.41C597.2 104.25 599.63 105.57 600.86 106.44L599.66 108.3C598.46 107.43 596.06 105.99 594.23 105.06ZM595.13 120.48C596.69 118.2 599 114.24 600.71 110.82L602.24 112.29C600.71 115.47 598.64 119.22 596.93 122.01L595.13 120.48ZM633.11 100.53H651.02V106.89H648.77V102.63H635.27V106.89H633.11V100.53ZM641.72 106.38H643.91V118.74C643.91 119.7 644.09 119.88 645.11 119.88C645.56 119.88 647.9 119.88 648.5 119.88C649.52 119.88 649.67 119.19 649.79 115.17C650.27 115.56 651.2 115.92 651.8 116.1C651.59 120.72 650.99 121.98 648.68 121.98C648.17 121.98 645.32 121.98 644.81 121.98C642.35 121.98 641.72 121.26 641.72 118.74V106.38ZM640.25 94.83H642.47C642.44 105.39 642.38 116.79 632.9 122.43C632.54 121.89 631.82 121.14 631.22 120.75C640.4 115.59 640.22 104.76 640.25 94.83ZM625.73 96.78L626.96 95.16C628.67 96 631.04 97.32 632.24 98.16L631.01 99.99C629.84 99.12 627.5 97.71 625.73 96.78ZM624.23 105.06L625.43 103.41C627.2 104.25 629.63 105.57 630.86 106.44L629.66 108.3C628.46 107.43 626.06 105.99 624.23 105.06ZM625.13 120.48C626.69 118.2 629 114.24 630.71 110.82L632.24 112.29C630.71 115.47 628.64 119.22 626.93 122.01L625.13 120.48ZM656.93 99.63H666.05V119.25H656.93V117.21H663.95V101.64H656.93V99.63ZM655.58 99.63H657.68V121.65H655.58V99.63ZM656.78 107.97H665.06V109.98H656.78V107.97ZM660.17 94.74L662.6 95.19C662 97.05 661.25 99.12 660.65 100.47L658.85 100.02C659.36 98.58 659.93 96.3 660.17 94.74ZM670.31 99.54H679.52V101.64H670.31V99.54ZM678.74 99.54H680.84C680.84 99.54 680.84 100.38 680.84 100.71C680.36 114.48 679.94 119.13 678.74 120.6C678.08 121.47 677.39 121.74 676.34 121.83C675.32 121.95 673.55 121.89 671.87 121.8C671.81 121.14 671.54 120.21 671.12 119.61C673.07 119.76 674.87 119.79 675.56 119.79C676.16 119.79 676.52 119.7 676.85 119.31C677.84 118.23 678.32 113.25 678.74 100.02V99.54ZM670.94 94.68L673.1 95.19C671.99 99.66 670.22 104.07 668.15 106.92C667.76 106.56 666.83 105.93 666.29 105.63C668.33 102.99 669.98 98.85 670.94 94.68ZM669.56 107.34L671.3 106.32C673.01 108.45 675.08 111.36 676.04 113.13L674.12 114.33C673.22 112.5 671.21 109.53 669.56 107.34ZM693.849 108.3C692.769 108.3 691.899 107.46 691.899 106.23C691.899 104.97 692.769 104.13 693.849 104.13C694.959 104.13 695.859 104.97 695.859 106.23C695.859 107.46 694.959 108.3 693.849 108.3ZM693.849 120.42C692.769 120.42 691.899 119.55 691.899 118.32C691.899 117.06 692.769 116.22 693.849 116.22C694.959 116.22 695.859 117.06 695.859 118.32C695.859 119.55 694.959 120.42 693.849 120.42ZM705.229 125.91C702.439 121.41 700.789 116.61 700.789 110.7C700.789 104.82 702.439 99.96 705.229 95.46L706.909 96.27C704.329 100.53 703.069 105.6 703.069 110.7C703.069 115.8 704.329 120.87 706.909 125.13L705.229 125.91ZM121.31 176.89L122.93 176.44C123.74 178.33 124.58 180.76 124.85 182.23L123.14 182.8C122.84 181.3 122.09 178.78 121.31 176.89ZM118.64 184.42L120.26 184.06C120.62 186.1 120.98 188.71 121.07 190.48L119.42 190.84C119.33 189.1 119 186.43 118.64 184.42ZM115.88 184.12L117.59 184.42C117.2 187 116.54 189.82 115.85 191.68C115.49 191.47 114.65 191.2 114.2 191.08C115.01 189.22 115.52 186.55 115.88 184.12ZM114.77 176.05C114.65 175.6 114.32 174.58 114.05 174.04C114.56 173.92 115.07 173.29 115.61 172.36C116.21 171.49 118.13 168.01 119.18 164.77L121.19 165.61C119.84 168.94 117.95 172.45 116.12 174.85V174.91C116.12 174.91 114.77 175.6 114.77 176.05ZM114.77 176.05L114.71 174.49L115.76 173.83L120.86 173.38C120.77 173.89 120.68 174.67 120.71 175.09C116.03 175.63 115.22 175.81 114.77 176.05ZM114.95 182.86C114.86 182.44 114.53 181.45 114.29 180.91C114.89 180.76 115.55 179.98 116.45 178.87C117.35 177.76 120.41 173.41 122.27 169.33L124.16 170.29C121.91 174.49 119.06 178.75 116.27 181.75V181.78C116.27 181.78 114.95 182.44 114.95 182.86ZM114.95 182.86L114.86 181.24L115.88 180.55L123.47 179.26C123.38 179.77 123.41 180.55 123.44 180.94C116.45 182.29 115.55 182.53 114.95 182.86ZM121.4 183.85L122.93 183.43C123.47 185.08 124.07 187.18 124.31 188.59L122.69 189.04C122.48 187.63 121.91 185.5 121.4 183.85ZM137.63 184.36L139.22 183.7C140.18 185.59 141.32 188.02 141.89 189.58L140.18 190.33C139.67 188.74 138.53 186.25 137.63 184.36ZM128.27 183.85H130.22V189.16C130.22 189.88 130.4 190 131.54 190C132.08 190 134.81 190 135.53 190C136.49 190 136.67 189.61 136.79 186.85C137.18 187.18 137.93 187.42 138.5 187.57C138.26 190.87 137.72 191.68 135.71 191.68C135.2 191.68 131.87 191.68 131.36 191.68C128.9 191.68 128.27 191.17 128.27 189.16V183.85ZM126.11 183.85L127.73 184.42C127.28 186.43 126.59 189.16 125.72 190.87L124.04 190.06C124.94 188.44 125.72 185.8 126.11 183.85ZM131.36 164.62L133.64 165.07C133.04 166.33 132.38 167.62 131.84 168.49L130.1 168.04C130.52 167.05 131.09 165.61 131.36 164.62ZM133.4 169.96L134.96 170.2C133.85 172.27 132.14 174.43 129.59 176.17C129.38 175.84 128.9 175.33 128.54 175.12C130.88 173.62 132.53 171.61 133.4 169.96ZM129.32 171.28L130.58 170.44C133.25 172.6 136.28 175.78 137.63 177.82L136.31 178.81C134.93 176.65 131.93 173.44 129.32 171.28ZM136.25 171.61L137.81 171.88C136.37 174.46 134.06 177.28 130.73 179.47C130.49 179.11 130.04 178.63 129.71 178.39C132.83 176.47 135.08 173.77 136.25 171.61ZM128.15 169.54V179.77H138.23V169.54H128.15ZM126.14 167.68H140.3V181.69H126.14V167.68ZM131.81 182.86L133.31 182.11C134.3 183.61 135.59 185.62 136.22 186.79L134.66 187.69C134.06 186.46 132.83 184.39 131.81 182.86ZM146 170.77H167.27V172.96H146V170.77ZM166.37 170.77H166.88L167.36 170.65L169.04 171.76C165.08 177.67 157.67 184.45 151.16 188.14C150.8 187.66 150.11 186.97 149.57 186.55C155.93 183.1 163.19 176.32 166.37 171.28V170.77ZM155.45 165.7L157.43 164.68C158.6 166.21 160.07 168.31 160.7 169.54L158.6 170.77C158 169.45 156.59 167.26 155.45 165.7ZM149.99 186.04C150.95 186.04 151.64 186.88 153.26 187.93C155.12 189.13 157.64 189.34 160.97 189.34C164.48 189.34 168.95 189.1 171.86 188.8C171.59 189.4 171.23 190.6 171.2 191.23C168.95 191.38 163.79 191.56 160.91 191.56C157.25 191.56 154.79 191.2 152.75 189.94C151.55 189.16 150.59 188.14 149.96 188.14C148.97 188.14 147.56 189.94 146.15 191.92L144.47 189.85C146.45 187.66 148.46 186.04 149.99 186.04ZM185.54 184.36L184.85 182.77C187.31 181.78 188.66 180.25 188.66 177.97L188.09 175.45L189.71 177.73C189.29 178.27 188.69 178.42 188.12 178.42C186.89 178.42 185.87 177.67 185.87 176.26C185.87 174.85 186.95 174.1 188.15 174.1C189.83 174.1 190.73 175.48 190.73 177.58C190.73 180.82 188.69 183.28 185.54 184.36ZM224.09 166.78L225.8 165.61C227.57 167.11 229.67 169.24 230.66 170.62L228.8 171.94C227.9 170.5 225.86 168.34 224.09 166.78ZM204.65 173.68H231.38V175.84H204.65V173.68ZM204.2 182.5C207.77 181.84 213.41 180.64 218.69 179.5L218.87 181.54C213.95 182.68 208.64 183.91 204.86 184.75L204.2 182.5ZM211.1 167.86H213.35V189.52C213.35 190.99 212.99 191.65 212.03 192.01C211.07 192.37 209.48 192.46 206.99 192.43C206.87 191.83 206.48 190.81 206.15 190.15C208.07 190.24 209.84 190.21 210.38 190.18C210.92 190.18 211.1 190.03 211.1 189.49V167.86ZM216.8 165.16L218.39 167.05C214.91 168.25 209.81 169.18 205.52 169.78C205.4 169.27 205.13 168.43 204.83 167.92C209.06 167.26 213.92 166.24 216.8 165.16ZM219.8 165.07H222.14C222.08 178.84 225.02 190.24 228.68 190.24C229.49 190.24 229.85 188.68 230.03 184.81C230.51 185.32 231.32 185.83 231.95 186.07C231.53 191.05 230.72 192.52 228.47 192.52C222.59 192.52 219.92 179.35 219.8 165.07ZM227.93 177.22L229.94 178.06C227 183.55 222.05 188.38 216.53 191.29C216.17 190.72 215.54 190 214.97 189.49C220.31 186.91 225.26 182.29 227.93 177.22ZM235.16 169H261.05V171.19H235.16V169ZM246.74 164.83H249.08V192.4H246.74V164.83ZM247.01 178.15L248.9 178.9C245.96 184.03 240.77 188.68 235.7 191.05C235.34 190.48 234.62 189.58 234.11 189.13C239.12 187.09 244.31 182.71 247.01 178.15ZM248.96 178.21C251.6 182.8 256.73 187.12 261.92 189.1C261.35 189.58 260.63 190.48 260.24 191.11C255.08 188.8 249.98 184.12 247.07 178.99L248.96 178.21ZM239.15 176.59L240.65 175.21C242.06 176.41 243.92 178.12 244.85 179.2L243.32 180.73C242.39 179.65 240.59 177.85 239.15 176.59ZM240.41 171.91L242.6 172.3C241.55 176.68 239.45 180.25 236.66 182.56C236.3 182.17 235.43 181.45 234.89 181.09C237.62 179.05 239.51 175.78 240.41 171.91ZM253.58 176.65L255.08 175.33C257.09 176.86 259.85 179.11 261.2 180.49L259.61 182.05C258.32 180.61 255.62 178.3 253.58 176.65ZM254.63 171.91L256.79 172.27C256.01 176.05 254.39 179.2 252.26 181.3C251.84 180.94 250.88 180.31 250.34 180.04C252.53 178.21 253.97 175.27 254.63 171.91ZM267.53 168.07V173.35H273.32V168.07H267.53ZM265.55 166.12H275.39V175.27H265.55V166.12ZM269.84 174.4H271.85V188.11H269.84V174.4ZM265.58 178.15H267.47V189.01H265.58V178.15ZM264.02 188.89C266.93 188.26 271.37 187.12 275.66 186.01L275.9 187.99C271.88 189.07 267.65 190.21 264.56 191.05L264.02 188.89ZM270.53 179.47H275.54V181.48H270.53V179.47ZM278.06 166.15H289.91V179.35H278.06V177.37H287.84V168.13H278.06V166.15ZM278.09 171.76H288.77V173.65H278.09V171.76ZM283.46 178.15C284.72 183.79 287.48 188.29 292.04 190.24C291.53 190.69 290.87 191.56 290.54 192.19C285.8 189.82 283.07 184.87 281.69 178.51L283.46 178.15ZM290.15 180.31L291.59 181.87C289.82 183.31 287.45 184.87 285.68 185.86L284.48 184.42C286.22 183.4 288.74 181.63 290.15 180.31ZM276.74 192.43L276.56 190.42L277.64 189.58L284.33 187.96C284.33 188.59 284.36 189.52 284.45 190C278.24 191.71 277.31 192.04 276.74 192.43ZM276.74 192.43C276.56 191.92 276.05 191.02 275.72 190.57C276.2 190.3 276.83 189.67 276.83 188.44V166.15H278.99V190.24C278.99 190.24 276.74 191.62 276.74 192.43ZM306.95 164.95L309.17 165.43C308 170.23 306.11 174.85 303.8 177.91C303.41 177.52 302.51 176.8 302 176.47C304.22 173.68 305.96 169.36 306.95 164.95ZM306.44 177.67L308.63 178.12C307.7 182.05 306.08 185.86 304.25 188.38C303.8 188.02 302.84 187.42 302.3 187.15C304.16 184.84 305.6 181.27 306.44 177.67ZM306.68 170.59H320.18V172.69H305.81L306.68 170.59ZM311.33 171.46H313.58V189.67C313.58 190.96 313.31 191.62 312.47 191.98C311.66 192.37 310.37 192.43 308.51 192.43C308.36 191.8 308.03 190.81 307.7 190.15C309.11 190.21 310.4 190.18 310.82 190.18C311.21 190.18 311.33 190.06 311.33 189.67V171.46ZM315.74 178.12L317.75 177.46C319.49 180.61 320.99 184.75 321.5 187.54L319.37 188.26C318.89 185.5 317.39 181.27 315.74 178.12ZM319.52 170.59H319.82L320.21 170.53L321.77 170.86C321.35 173.08 320.84 175.66 320.45 177.28L318.5 176.92C318.83 175.42 319.22 172.9 319.52 170.92V170.59ZM300.92 164.92L303.05 165.58C301.07 170.68 297.98 175.75 294.74 179.11C294.5 178.6 293.87 177.4 293.45 176.89C296.42 173.98 299.24 169.48 300.92 164.92ZM297.8 172.66L299.9 170.53L299.96 170.56V192.37H297.8V172.66ZM325.37 173.89H333.62V175.69H325.37V173.89ZM325.37 177.82H333.62V179.62H325.37V177.82ZM324.2 169.9H334.73V171.79H324.2V169.9ZM326.24 181.84H333.89V190.6H326.24V188.71H331.97V183.73H326.24V181.84ZM325.31 181.84H327.35V192.01H325.31V181.84ZM327.41 165.58L329.3 164.95C330.08 166.18 330.89 167.83 331.25 168.91L329.27 169.66C328.94 168.55 328.13 166.84 327.41 165.58ZM339.77 181.36H341.99C341.54 186.37 340.37 190.33 335.72 192.52C335.45 192.01 334.82 191.23 334.34 190.81C338.48 189.01 339.41 185.56 339.77 181.36ZM344.33 180.85H346.52V189.07C346.52 189.79 346.64 189.91 347.21 189.91C347.51 189.91 348.74 189.91 349.1 189.91C349.73 189.91 349.82 189.49 349.91 186.34C350.36 186.7 351.26 187.06 351.89 187.21C351.65 191.02 351.08 191.98 349.37 191.98C348.92 191.98 347.3 191.98 346.88 191.98C344.81 191.98 344.33 191.32 344.33 189.07V180.85ZM339.35 174.97V179.86H346.61V174.97H339.35ZM337.19 172.93H348.86V181.87H337.19V172.93ZM339.56 165.22L341.66 165.85C340.22 169.18 337.94 172.45 335.66 174.58C335.33 174.16 334.46 173.38 333.98 172.99C336.23 171.1 338.3 168.19 339.56 165.22ZM343.85 165.97L345.44 164.95C347.81 167.44 350.6 170.89 351.8 173.14L350.09 174.37C348.92 172.09 346.22 168.55 343.85 165.97ZM355.37 173.89H363.62V175.69H355.37V173.89ZM355.37 177.82H363.62V179.62H355.37V177.82ZM354.2 169.9H364.73V171.79H354.2V169.9ZM356.24 181.84H363.89V190.6H356.24V188.71H361.97V183.73H356.24V181.84ZM355.31 181.84H357.35V192.01H355.31V181.84ZM357.41 165.58L359.3 164.95C360.08 166.18 360.89 167.83 361.25 168.91L359.27 169.66C358.94 168.55 358.13 166.84 357.41 165.58ZM369.77 181.36H371.99C371.54 186.37 370.37 190.33 365.72 192.52C365.45 192.01 364.82 191.23 364.34 190.81C368.48 189.01 369.41 185.56 369.77 181.36ZM374.33 180.85H376.52V189.07C376.52 189.79 376.64 189.91 377.21 189.91C377.51 189.91 378.74 189.91 379.1 189.91C379.73 189.91 379.82 189.49 379.91 186.34C380.36 186.7 381.26 187.06 381.89 187.21C381.65 191.02 381.08 191.98 379.37 191.98C378.92 191.98 377.3 191.98 376.88 191.98C374.81 191.98 374.33 191.32 374.33 189.07V180.85ZM369.35 174.97V179.86H376.61V174.97H369.35ZM367.19 172.93H378.86V181.87H367.19V172.93ZM369.56 165.22L371.66 165.85C370.22 169.18 367.94 172.45 365.66 174.58C365.33 174.16 364.46 173.38 363.98 172.99C366.23 171.1 368.3 168.19 369.56 165.22ZM373.85 165.97L375.44 164.95C377.81 167.44 380.6 170.89 381.8 173.14L380.09 174.37C378.92 172.09 376.22 168.55 373.85 165.97ZM389.81 174.97V179.5H406.07V174.97H389.81ZM387.89 173.44H408.11V181.03H387.89V173.44ZM392.81 170.29H403.28V171.88H392.81V170.29ZM396.95 173.98H398.84V180.25H396.95V173.98ZM391.64 175.87L393.26 175.33C394.04 176.38 394.76 177.79 395.06 178.75L393.32 179.38C393.08 178.42 392.39 176.95 391.64 175.87ZM402.44 175.21L404.36 175.81C403.7 177.1 402.92 178.48 402.32 179.38L400.76 178.84C401.33 177.82 402.08 176.23 402.44 175.21ZM389.66 182.47H406.61V192.28H404.33V184.06H391.88V192.4H389.66V182.47ZM390.98 186.07H405.32V187.72H390.98V186.07ZM390.98 189.76H405.32V191.38H390.98V189.76ZM397.76 164.68L399.77 165.43C396.59 169.57 390.95 172.45 385.4 174.25C385.16 173.8 384.53 172.87 384.11 172.48C389.6 170.98 394.97 168.34 397.76 164.68ZM399.08 165.73C401.84 168.61 407.27 171.13 412.13 172.27C411.65 172.66 411.02 173.47 410.69 174.01C405.83 172.69 400.37 169.81 397.34 166.48L399.08 165.73ZM414.89 168.7H441.17V170.83H414.89V168.7ZM421.97 179.41H436.25V181.36H421.97V179.41ZM435.44 174.31H437.63V189.61C437.63 190.93 437.36 191.62 436.34 191.98C435.38 192.34 433.7 192.34 431.12 192.34C431.03 191.71 430.7 190.78 430.37 190.15C432.38 190.24 434.21 190.21 434.75 190.21C435.26 190.18 435.44 190.03 435.44 189.58V174.31ZM424.7 164.8L426.98 165.34C424.97 171.85 421.37 178.45 415.73 182.44C415.43 181.93 414.71 181.12 414.29 180.7C419.57 177.04 423.08 170.74 424.7 164.8ZM421.79 184.48H436.25V186.43H421.79V184.48ZM421.82 174.31H436.07V176.35H421.82V174.31ZM420.62 174.31H422.87V182.26C422.87 185.59 422.36 189.82 419.42 192.58C419.12 192.07 418.28 191.14 417.83 190.81C420.35 188.41 420.62 185.08 420.62 182.23V174.31ZM452.66 166.27H460.64V168.22H452.66V166.27ZM452.63 173.35H460.67V175.3H452.63V173.35ZM452.6 180.58H460.79V182.5H452.6V180.58ZM459.74 166.27H461.66C461.66 166.27 461.66 167.14 461.63 167.41C461.57 184.48 461.57 189.79 460.82 191.11C460.34 191.95 459.83 192.16 459.08 192.28C458.33 192.37 457.34 192.37 456.26 192.31C456.23 191.74 456.05 190.87 455.75 190.3C456.83 190.36 457.76 190.36 458.24 190.36C458.63 190.39 458.84 190.3 459.08 189.79C459.62 188.8 459.71 183.43 459.74 166.84V166.27ZM455.3 167.2H457.19V175.18C457.19 180.31 456.56 187.6 452.3 192.49C452.03 192.07 451.31 191.35 450.92 191.08C454.91 186.46 455.3 180.01 455.3 175.15V167.2ZM463.55 166.27H469.88V168.16H465.47V192.43H463.55V166.27ZM469.46 166.27H469.82L470.09 166.21L471.5 166.99C470.69 169.87 469.61 173.59 468.62 176.35C470.72 179.17 471.17 181.6 471.17 183.73C471.17 185.5 470.87 186.91 470.06 187.54C469.67 187.84 469.16 188.02 468.59 188.08C468.08 188.14 467.42 188.17 466.82 188.14C466.79 187.6 466.64 186.76 466.34 186.19C466.91 186.25 467.42 186.25 467.84 186.22C468.17 186.22 468.47 186.1 468.71 185.89C469.16 185.53 469.28 184.54 469.28 183.46C469.28 181.57 468.83 179.26 466.79 176.56C467.81 173.44 468.86 169.21 469.46 166.93V166.27ZM446.09 167.68H451.55V184.45H446.09V182.35H449.72V169.78H446.09V167.68ZM445.19 167.68H446.96V187.39H445.19V167.68ZM478.04 182.89H498.29V185.05H478.04V182.89ZM474.68 189.46H501.32V191.68H474.68V189.46ZM482 169.96H487.97V172H482V169.96ZM489.53 164.83H491.75V176.65C491.75 177.7 491.99 177.91 493.37 177.91C493.97 177.91 497.27 177.91 498.14 177.91C499.25 177.91 499.46 177.37 499.58 174.34C500.09 174.73 501.02 175.09 501.65 175.24C501.38 178.99 500.69 180.04 498.29 180.04C497.66 180.04 493.73 180.04 493.13 180.04C490.28 180.04 489.53 179.29 489.53 176.65V164.83ZM474.23 178.72C477.71 178.36 483.02 177.73 488.15 177.1L488.21 179.17C483.29 179.83 478.13 180.49 474.5 180.94L474.23 178.72ZM481.01 164.83H483.2V178.57L481.01 178.81V164.83ZM476.24 168.1H478.31V179.11L476.24 179.32V168.1ZM490.67 169.99H499.64V172.03H490.67V169.99ZM512.93 173.26H530.93V175.33H512.93V173.26ZM521.96 180.61H530.39V182.62H521.96V180.61ZM510.8 189.22H531.83V191.32H510.8V189.22ZM520.91 174.07H523.07V190.57H520.91V174.07ZM514.34 179.11H516.41V190.48H514.34V179.11ZM510.26 168.1H531.83V170.14H510.26V168.1ZM509.03 168.1H511.16V177.13C511.16 181.84 510.56 188.32 506.45 192.52C506.12 192.07 505.28 191.29 504.83 190.99C508.64 187.06 509.03 181.45 509.03 177.1V168.1ZM504.44 171.52L506.09 170.71C507.2 172.45 508.22 174.76 508.52 176.23L506.72 177.16C506.42 175.69 505.43 173.29 504.44 171.52ZM503.96 182.47C505.4 181.81 507.44 180.76 509.51 179.68L510.05 181.45C508.28 182.53 506.42 183.61 504.74 184.51L503.96 182.47ZM518.57 165.28L520.82 164.77C521.39 165.94 522.05 167.47 522.35 168.46L520.01 169.06C519.77 168.07 519.14 166.45 518.57 165.28ZM544.94 173.71H561.68V175.93H544.94V173.71ZM555.2 166.66L557 165.76C558.56 167.38 560.27 169.6 561.05 171.07L559.16 172.09C558.44 170.59 556.73 168.31 555.2 166.66ZM536.48 173.5H542.66V175.54H536.48V173.5ZM534.35 179.83H542.42V181.87H534.35V179.83ZM541.79 164.8H543.92V192.37H541.79V164.8ZM535.52 166.09H537.62V175.54H535.52V166.09ZM536.69 180.55H538.76V182.8C538.76 185.26 538.28 189.16 535.88 191.77C535.46 191.41 534.65 190.9 534.14 190.69C536.33 188.29 536.69 184.87 536.69 182.74V180.55ZM551.51 164.83H553.67V173.02C553.67 179.62 552.92 187 545.39 192.46C545.09 191.95 544.34 191.14 543.86 190.75C550.85 185.74 551.51 178.93 551.51 173.05V164.83ZM554.12 174.4C554.42 178.42 555.44 186.73 562.07 190.48C561.44 190.93 560.75 191.68 560.39 192.25C553.52 188.14 552.5 178.96 552.02 174.55L554.12 174.4ZM566.63 167.68H573.32V184.45H566.63V182.35H571.22V169.75H566.63V167.68ZM565.31 167.68H567.41V187.33H565.31V167.68ZM575.96 166.75H578.18V187.66C578.18 189.37 578.51 189.73 580.49 189.73C581.45 189.73 586.46 189.73 587.66 189.73C589.37 189.73 589.67 188.89 589.91 185.47C590.45 185.86 591.35 186.22 591.98 186.34C591.62 190.45 590.9 191.83 587.75 191.83C586.94 191.83 581.18 191.83 580.4 191.83C577.04 191.83 575.96 191.02 575.96 187.63V166.75ZM577.04 166.75H590.78V182.53H588.59V168.85H577.04V166.75ZM576.98 178.54H589.4V180.61H576.98V178.54ZM582.26 167.5H584.33V179.2H582.26V167.5ZM597.14 190.42C596.06 190.42 595.19 189.55 595.19 188.32C595.19 187.06 596.06 186.22 597.14 186.22C598.25 186.22 599.15 187.06 599.15 188.32C599.15 189.55 598.25 190.42 597.14 190.42ZM605.49 190.42C604.41 190.42 603.54 189.55 603.54 188.32C603.54 187.06 604.41 186.22 605.49 186.22C606.6 186.22 607.5 187.06 607.5 188.32C607.5 189.55 606.6 190.42 605.49 190.42ZM613.839 190.42C612.759 190.42 611.889 189.55 611.889 188.32C611.889 187.06 612.759 186.22 613.839 186.22C614.949 186.22 615.849 187.06 615.849 188.32C615.849 189.55 614.949 190.42 613.839 190.42Z" fill="#492300"/>
</g>
<defs>
<clipPath id="clip0_376_19963">
<rect width="878" height="283" fill="white"/>
</clipPath>
</defs>
</svg>
