<svg width="678" height="271" viewBox="0 0 678 271" fill="none" xmlns="http://www.w3.org/2000/svg">
<g clip-path="url(#clip0_462_14331)">
<path d="M125.36 45.57C122.92 45.7 123.46 42.57 121.24 41.54C119.02 40.51 118.96 40.55 116.68 39.66C114.4 38.77 113.96 40.24 111.7 39.52C109.44 38.8 109.61 38.32 107.32 37.7C105.03 37.08 104.95 37.5 102.64 36.99C100.33 36.48 100.57 35.41 98.26 34.86C95.95 34.31 95.64 35.59 93.35 35.01C91.06 34.43 91.06 34.29 88.8 33.61C86.54 32.93 86.44 32.98 84.18 32.17C81.92 31.36 82.16 30.98 79.79 30.6C77.59 30.25 77.74 31.22 75.52 31.31C73.3 31.4 73.24 30.16 71.02 30.06C68.8 29.96 68.74 30.66 66.58 30.37C64.42 30.08 64.39 30.56 62.21 30.33C60.03 30.1 60.1 29.72 57.91 29.57C55.72 29.42 55.86 27.76 53.68 27.56C51.5 27.36 51.38 28.36 49.19 28.12C47 27.88 47.02 27.66 44.81 27.61C42.6 27.56 42.7 28.79 40.5 28.94C38.3 29.09 38.17 27.47 35.99 27.75C33.81 28.03 33.77 27.98 31.6 28.39C29.43 28.8 29.36 28.5 27.2 28.96C25.04 29.42 25.06 29.53 22.93 30.03C20.8 30.53 21.07 32.2 18.89 32.45C16.71 32.7 16.59 30.53 14.36 30.52C12.13 30.51 11.91 30.13 9.72001 30.48C7.35001 30.86 7.80001 32.92 5.52001 33.66C3.24001 34.4 1.67001 32.02 2.04001 34.39C2.41001 36.76 3.3 34.11 5.74001 34.39C8.18001 34.67 8.05001 35.98 10.5 36.14C12.79 36.29 12.84 34.42 15.13 34.44C17.42 34.46 17.4 35.91 19.69 36.03C21.98 36.15 22.07 35.06 24.35 35.27C26.63 35.48 26.56 36.26 28.83 36.58C31.1 36.9 30.83 38.34 33.08 38.78C35.33 39.22 35.75 36.79 38.01 37.15C40.27 37.51 39.95 39.91 42.24 40.19C44.53 40.47 44.72 38.98 46.94 39.6C49.16 40.22 49.39 39.77 51.51 40.71C53.63 41.65 53.65 41.61 55.77 42.55C57.89 43.49 57.58 44.09 59.67 45.01C61.76 45.93 61.38 47.07 63.57 47.72C65.76 48.37 65.98 48.2 68.31 48.57C70.64 48.94 71.42 46.5 73.57 47.48C75.87 48.53 74.85 50.36 76.81 51.95C78.77 53.54 79.14 53.1 81.06 54.74C82.98 56.38 82.88 56.43 84.74 58.09C86.6 59.75 85.78 60.73 87.71 62.3C89.64 63.87 90.58 62.67 92.59 64.13C94.6 65.59 94.93 65.05 97 66.42C97.82 66.96 98.36 67.26 98.33 68.24C98.27 70.42 97.68 70.43 96.73 72.39C95.78 74.35 96.31 74.5 95.53 76.53C94.75 78.56 93.33 78.02 92.74 80.09C92.15 82.16 91.3 82.03 90.9 84.14C90.5 86.25 92.07 86.51 91.89 88.65C91.71 90.79 92.2 90.87 91.91 93.01C91.62 95.15 90.9 95.04 90.52 97.15C90.14 99.26 90.73 99.35 90.4 101.47C90.07 103.59 89.02 103.45 88.74 105.59C88.46 107.73 87.59 107.76 87.59 109.92C87.59 112.08 88.81 112.07 89.08 114.22C89.35 116.37 89.97 116.31 90.16 118.47C90.35 120.63 89.74 120.66 89.86 122.8C89.98 124.94 90.69 124.9 90.81 127.04C90.93 129.18 91.02 129.18 91.16 131.33C91.3 133.48 90.02 133.6 90.37 135.72C90.75 138.02 92.36 137.64 92.94 139.89C93.52 142.14 91.32 142.74 91.94 144.98C92.56 147.22 94.85 146.57 95.5 148.79C96.15 151.01 93.72 151.79 94.47 153.98C95.22 156.17 97.29 155.41 98.15 157.55C99.01 159.69 97.67 160.23 98.5 162.39C99.33 164.55 98.93 164.68 99.73 166.85C100.53 169.02 101.16 168.8 102.02 170.94C102.88 173.08 103.08 173.01 104.02 175.13C104.96 177.25 104.53 177.5 105.71 179.49C106.89 181.48 107.11 181.4 108.54 183.25C109.97 185.1 109.7 185.15 110.83 187.19C111.96 189.23 112.88 188.8 113.71 191.02C114.54 193.24 114.88 192.88 116.14 194.89C117.4 196.9 116.97 196.96 118.59 198.65C120.21 200.34 119.35 201.16 120.98 202.84C122.61 204.52 122.47 204.62 124.09 206.28C125.71 207.94 127.39 206.4 128.91 208.15C130.43 209.9 129.33 210.84 130.73 212.68C132.13 214.52 131.91 214.69 133.28 216.55C134.65 218.41 133.95 218.97 135.32 220.89C136.69 222.81 137.3 222.43 138.95 224.12C140.6 225.81 140.49 225.99 142.35 227.39C144.21 228.79 144.3 228.68 146.19 230.06C148.08 231.44 148.57 230.67 150.44 231.98C152.31 233.29 152.56 232.92 154.45 234.21C156.34 235.5 156.57 235.13 158.45 236.39C160.33 237.65 159.84 238.35 161.8 239.51C163.76 240.67 163.71 240.7 165.73 241.75C167.75 242.8 167.77 242.79 169.73 243.94C171.69 245.09 171.76 245.06 173.69 246.31C175.62 247.56 175.06 248.58 177.17 249.49C179.28 250.4 179.36 250.49 181.59 251.03C183.82 251.57 183.88 251.33 186.11 251.89C188.34 252.45 188.18 252.94 190.38 253.51C192.58 254.08 192.57 253.74 194.69 254.55C196.81 255.36 197.54 253.8 199.62 254.84C201.7 255.88 201.54 255.99 203.7 256.84C205.86 257.69 205.23 259.46 207.43 260.1C209.63 260.74 209.85 260.04 212.09 260.52C214.33 261 214.41 260.56 216.67 260.88C218.93 261.2 218.75 262.54 221.01 262.86C223.27 263.18 223.53 261.35 225.79 261.67C228.05 261.99 228.02 261.58 230.3 261.72C232.58 261.86 232.53 262.49 234.83 262.45C237.13 262.41 237.3 261.24 239.59 261.51C241.88 261.78 241.67 263.3 243.89 263.89C246.11 264.48 245.91 265.41 248.16 265.9C250.41 266.39 250.45 266.32 252.7 266.7C254.95 267.08 255.09 266.26 257.36 266.47C259.63 266.68 259.62 267.33 261.9 267.38C264.18 267.43 264.2 266.74 266.48 266.77C268.76 266.8 268.74 268.07 271.02 268.1C273.3 268.13 273.28 267.82 275.56 267.9C277.84 267.98 277.83 267.69 280.11 267.83C282.39 267.97 282.39 267.97 284.67 268.08C286.95 268.19 286.96 267.94 289.24 268.02C291.52 268.1 291.54 268.27 293.82 268.24C296.1 268.21 296.04 266.7 298.32 266.56C300.6 266.42 300.65 266.46 302.93 266.45C305.21 266.44 305.15 268.48 307.43 268.6C309.71 268.72 309.72 268.23 312 268.37C314.28 268.51 314.38 266.99 316.66 267.15C318.94 267.31 318.92 267.16 321.2 267.26C323.48 267.36 323.45 267.57 325.73 267.6C328.01 267.63 327.99 268.02 330.27 267.98C332.55 267.94 332.53 267.79 334.81 267.69C337.09 267.59 337.13 268.53 339.41 268.42C341.69 268.31 341.65 267.47 343.93 267.35C346.21 267.23 346.28 268.2 348.55 267.95C350.82 267.7 350.72 266.83 352.99 266.44C355.26 266.05 355.27 266.31 357.57 266.37C359.87 266.43 360.01 265.73 362.27 266.23C364.53 266.73 364.33 269.02 366.64 268.98C368.95 268.94 368.89 267.55 371.11 266.97C373.33 266.39 373.33 266.82 375.62 266.59C377.91 266.36 377.81 265.26 380.06 265.41C382.31 265.56 382.24 265.03 384.5 264.98C386.76 264.93 386.89 267.11 389.12 266.86C391.35 266.61 391.29 266.63 393.54 266.51C395.79 266.39 395.72 265.71 397.96 265.71C400.2 265.71 400.2 265.2 402.44 265.05C404.68 264.9 404.62 264.44 406.85 264.14C409.08 263.84 409.12 263.27 411.37 263.22C413.62 263.17 413.57 264.97 415.83 265.18C418.09 265.39 418.23 263.67 420.49 263.86C422.75 264.05 422.68 264.73 424.93 264.9C427.18 265.07 427.12 264.32 429.37 264.26C431.62 264.2 431.7 265.78 433.94 265.5C436.18 265.22 436.06 263.65 438.31 263.58C440.56 263.51 440.62 264.03 442.87 264.17C445.12 264.31 445.08 264.74 447.34 264.69C449.6 264.64 449.5 263.92 451.73 263.68C453.96 263.44 454 263.7 456.23 263.48C458.46 263.26 458.42 262.67 460.65 262.46C462.88 262.25 463.06 264.09 465.29 263.87C467.52 263.65 467.33 261.82 469.57 261.58C471.81 261.34 471.79 261.39 474.02 261.11C476.25 260.83 476.53 262.99 478.76 262.68C480.99 262.37 480.91 262.48 483.15 262.34C485.39 262.2 485.33 260.13 487.58 260.16C489.83 260.19 489.85 259.96 492.1 260.02C494.35 260.08 494.31 261.73 496.57 261.81C498.83 261.89 498.78 261.04 501.02 260.76C503.26 260.48 503.54 261.59 505.73 260.94C507.92 260.29 507.82 260.16 510.06 259.7C512.3 259.24 511.98 257.49 514.21 257.23C516.44 256.97 516.47 256.83 518.71 256.67C520.95 256.51 521.06 258.41 523.31 258.34C525.56 258.27 525.51 257.44 527.74 257.19C529.97 256.94 530.18 258.1 532.38 257.67C534.58 257.24 534.31 255.12 536.55 255C538.79 254.88 538.9 255.87 541.19 256.07C543.48 256.27 543.45 256.44 545.75 256.34C548.05 256.24 547.98 256.27 550.19 255.86C552.4 255.45 552.39 255.43 554.57 254.85C556.75 254.27 557.05 255.1 559.19 254.36C561.33 253.62 561.3 253.84 563.5 253.28C565.7 252.72 565.41 251.76 567.62 251.4C569.83 251.04 569.99 251.72 572.18 251.24C574.37 250.76 574.07 249.55 576.23 248.95C578.39 248.35 578.67 249.57 580.86 249.11C583.05 248.65 582.82 247.32 585.05 246.98C587.28 246.64 587.21 246.78 589.37 246.1C591.53 245.42 591.43 245.42 593.45 244.39C595.47 243.36 595.93 244.39 598.01 243.49C600.09 242.59 599.55 241.31 601.65 240.56C603.75 239.81 604.33 241.28 606.39 240.42C608.45 239.56 608.45 239.46 610.46 238.49C612.47 237.52 612.23 237.01 614.21 235.99C616.19 234.97 616.44 235.42 618.39 234.35C620.34 233.28 620.37 233.24 622.25 232.05C624.13 230.86 623.33 229.71 625.12 228.39C626.91 227.07 626.66 226.61 628.53 225.41C630.4 224.21 630.74 224.61 632.72 223.51C634.7 222.41 635.09 223.16 636.84 221.73C638.59 220.3 639.47 221.09 640.93 219.39C642.39 217.69 641.8 217.16 643.21 215.41C644.62 213.66 645.2 214.12 646.55 212.35C647.9 210.58 647.27 210.11 648.62 208.35C649.97 206.59 649.61 206.31 650.97 204.56C652.33 202.81 651.83 202.4 653.23 200.68C654.71 198.86 655.44 199.47 656.96 197.68C658.48 195.89 657.56 195.35 658.72 193.31C659.88 191.27 661.67 192.09 662.42 189.88C663.17 187.67 661.18 186.98 661.98 184.79C662.78 182.6 662.96 182.68 663.78 180.53C664.6 178.38 664.48 178.42 665.1 176.2C665.72 173.98 667.61 174.4 668.02 172.13C668.43 169.86 665.92 169.27 666.56 167.05C667.2 164.83 667.59 164.82 668.46 162.66C669.33 160.5 671.31 161.19 671.95 158.94C672.59 156.69 670.86 156.31 671.26 154.03C671.66 151.75 671.74 151.78 672.08 149.49C672.42 147.2 673.1 147.29 673.37 144.99C673.64 142.69 672.88 142.64 673.04 140.32C673.2 138 674.67 138.07 674.71 135.75C674.75 133.43 675.43 133.3 675.23 130.99C675.03 128.68 674.69 128.59 674.24 126.29C673.79 123.99 671.17 124.3 671.07 121.97C670.97 119.64 672.57 119.58 672.82 117.23C673.07 114.88 673.99 114.87 673.93 112.51C673.87 110.15 672.84 110.23 672.47 107.94C672.1 105.65 672.83 105.45 672.18 103.22C671.53 100.99 670.59 101.29 669.64 99.13C668.69 96.97 668.03 97.24 667.14 95.06C666.25 92.88 666.79 92.71 665.97 90.56C665.15 88.41 666.07 88.08 665.31 85.91C664.55 83.74 663.29 84.16 662.61 81.97C661.93 79.78 662.88 79.48 662.2 77.29C661.52 75.1 661.93 74.94 661.24 72.72C660.55 70.5 660.83 70.23 659.72 68.19C658.61 66.15 657.89 66.5 656.39 64.71C654.89 62.92 655.2 62.79 653.95 60.81C652.7 58.83 651.86 59.34 650.91 57.21C649.96 55.08 651.12 54.41 649.78 52.5C648.44 50.59 648.09 50.77 646.42 49.15C644.75 47.53 645.17 47.17 643.56 45.5C642.03 43.92 641.81 44.17 640.35 42.54C638.89 40.91 637.8 41.95 636.22 40.42C634.64 38.89 634.21 39.37 632.48 37.91C630.75 36.45 632.23 34.27 630.17 33.34C628.11 32.41 627.77 32.5 625.49 32.16C623.21 31.82 622.97 33.27 620.83 32.42C618.69 31.57 619.16 30.87 617.27 29.55C615.38 28.23 615.03 28.96 612.89 28.1C610.75 27.24 611.08 26.34 608.86 26.01C606.64 25.68 606.71 25.16 604.48 24.85C602.25 24.54 601.99 26.55 599.79 26.25C597.59 25.95 597.58 25.85 595.38 25.49C593.18 25.13 593.24 24.8 591.06 24.38C588.88 23.96 588.71 24.73 586.54 24.25C584.37 23.77 584.43 23.37 582.28 22.83C580.13 22.29 580.01 22.74 577.85 22.2C575.69 21.66 575.75 21.37 573.59 20.82C571.43 20.27 571.9 18.14 569.71 17.71C567.52 17.28 567.4 17.78 565.19 17.47C562.98 17.16 562.92 17.22 560.7 17.18C558.48 17.14 558.46 18.06 556.2 18.28C553.94 18.5 553.91 18.54 551.65 18.35C549.39 18.16 549.64 17.23 547.47 16.63C545.3 16.03 545.06 17.24 542.84 16.89C540.62 16.54 540.76 15.83 538.54 15.74C536.32 15.65 536.29 16.13 534.07 15.98C531.85 15.83 531.83 15.95 529.63 15.75C527.43 15.55 527.66 13.84 525.46 13.5C523.26 13.16 522.96 14.86 520.77 14.39C518.58 13.92 518.8 12.06 516.57 11.91C514.34 11.76 514.16 11.8 511.91 11.98C509.66 12.16 509.82 14.38 507.57 14.49C505.32 14.6 505.29 12.45 503.06 12.47C500.83 12.49 500.88 13.49 498.66 13.32C496.44 13.15 496.3 14.08 494.1 13.7C491.9 13.32 492 12.9 489.78 12.68C487.56 12.46 487.62 11.41 485.4 11.35C483.18 11.29 483.16 13.08 480.93 13.07C478.7 13.06 478.69 11.37 476.47 11.41C474.25 11.45 474.36 11.36 472.15 11.1C469.94 10.84 469.66 12.3 467.47 11.75C465.28 11.2 465.28 11.43 463.06 11C460.84 10.57 461.01 10.02 458.8 9.72997C456.59 9.43997 456.64 10.15 454.41 10.12C452.18 10.09 452.15 8.57997 449.92 8.78997C447.69 8.99997 447.69 8.66997 445.45 8.76997C443.21 8.86997 443.26 9.96997 441.04 9.94997C438.82 9.92997 438.73 11.04 436.51 10.89C434.29 10.74 434.28 10.13 432.07 9.85997C429.86 9.58997 429.98 8.65997 427.75 8.54997C425.52 8.43997 425.52 8.41997 423.3 8.46997C421.08 8.51997 421.1 8.40997 418.88 8.23997C416.66 8.06997 416.69 8.01997 414.48 7.62997C412.27 7.23997 412.25 7.34997 410.04 7.01997C407.83 6.68997 407.78 7.17997 405.56 6.91997C403.34 6.65997 403.38 6.80997 401.16 6.73997C398.94 6.66997 398.91 5.44997 396.68 5.57997C394.45 5.70997 394.46 5.52997 392.22 5.59997C389.98 5.66997 390.02 7.71997 387.77 7.73997C385.52 7.75997 385.51 6.73997 383.27 6.62997C381.03 6.51997 381.07 6.09997 378.83 5.85997C376.59 5.61997 376.62 4.53997 374.38 4.45997C372.14 4.37997 372.07 5.13997 369.82 5.22997C367.57 5.31997 367.59 5.34997 365.35 5.34997C363.11 5.34997 363.15 4.65997 360.91 4.58997C358.67 4.51997 358.67 5.38997 356.44 5.18997C354.21 4.98997 353.97 6.66997 351.74 6.32997C349.51 5.98997 349.74 3.32997 347.48 3.30997C345.22 3.28997 345.23 4.73997 342.98 5.04997C340.73 5.35997 340.65 7.07997 338.39 6.92997C336.13 6.77997 336.03 5.79997 333.8 5.19997C331.57 4.59997 331.87 2.03997 329.56 2.02997C327.25 2.01997 327.15 3.13997 324.9 3.70997C322.65 4.27997 322.89 5.51997 320.57 5.49997C318.25 5.47997 318.27 5.11997 316.02 4.51997C313.77 3.91997 313.91 3.28997 311.59 3.26997C309.27 3.24997 309.67 4.90997 307.44 5.46997C305.21 6.02997 304.89 3.90997 302.59 4.03997C300.29 4.16997 300.37 5.34997 298.12 5.04997C295.87 4.74997 295.96 3.69997 293.7 3.54997C291.44 3.39997 291.41 3.78997 289.17 3.78997C286.93 3.78997 286.9 3.80997 284.66 3.97997C282.42 4.14997 282.54 5.10997 280.31 5.43997C278.08 5.76997 278.07 5.77997 275.84 6.05997C273.61 6.33997 273.6 6.37997 271.37 6.58997C269.14 6.79997 269.15 7.02997 266.92 7.22997C264.69 7.42997 264.55 5.76997 262.31 5.93997C260.07 6.10997 260.25 8.09997 258.02 8.30997C255.79 8.51997 255.7 7.50997 253.47 7.75997C251.24 8.00997 251.23 7.95997 249 8.16997C246.77 8.37997 246.74 8.06997 244.49 8.22997C242.24 8.38997 241.99 7.09997 239.79 7.52997C237.59 7.95997 237.96 9.70997 235.8 10.41C233.64 11.11 233.3 9.99997 231.13 10.67C228.96 11.34 229.16 11.9 227 12.53C224.84 13.16 224.82 12.87 222.61 13.32C220.4 13.77 220.51 14.17 218.28 14.41C216.05 14.65 216.06 14.76 213.82 14.99C211.58 15.22 211.45 14 209.2 14.22C206.95 14.44 207.1 15.84 204.87 16.21C202.64 16.58 202.49 15.79 200.3 16.29C198.11 16.79 198.18 17.16 196.09 17.96C194 18.76 194.06 19.03 192.04 20.13C190.02 21.23 190.43 22.37 188.25 23.1C186.07 23.83 185.75 22.68 183.52 23.01C181.29 23.34 180.97 21.82 178.76 22.3C176.42 22.8 176.64 23.92 174.33 24.57C172.02 25.22 172.08 25.4 169.76 26C167.44 26.6 167.45 26.65 165.11 27.22C162.77 27.79 162.47 26.96 160.21 27.78C157.95 28.6 158.57 30.08 156.4 31.15C154.23 32.22 154.01 31.77 151.78 32.67C149.55 33.57 149.16 32.33 146.87 33.05C144.58 33.77 144.92 34.84 142.67 35.68C140.42 36.52 140.25 36.12 138.05 37.07C135.85 38.02 136.12 38.62 133.98 39.7C131.84 40.78 131.13 40 129.38 41.75C127.32 43.81 127.81 45.46 125.33 45.59L125.36 45.57Z" fill="white"/>
<path d="M125.36 45.57C122.92 45.7 123.46 42.57 121.24 41.54C119.02 40.51 118.96 40.55 116.68 39.66C114.4 38.77 113.96 40.24 111.7 39.52C109.44 38.8 109.61 38.32 107.32 37.7C105.03 37.08 104.95 37.5 102.64 36.99C100.33 36.48 100.57 35.41 98.26 34.86C95.95 34.31 95.64 35.59 93.35 35.01C91.06 34.43 91.06 34.29 88.8 33.61C86.54 32.93 86.44 32.98 84.18 32.17C81.92 31.36 82.16 30.98 79.79 30.6C77.59 30.25 77.74 31.22 75.52 31.31C73.3 31.4 73.24 30.16 71.02 30.06C68.8 29.96 68.74 30.66 66.58 30.37C64.42 30.08 64.39 30.56 62.21 30.33C60.03 30.1 60.1 29.72 57.91 29.57C55.72 29.42 55.86 27.76 53.68 27.56C51.5 27.36 51.38 28.36 49.19 28.12C47 27.88 47.02 27.66 44.81 27.61C42.6 27.56 42.7 28.79 40.5 28.94C38.3 29.09 38.17 27.47 35.99 27.75C33.81 28.03 33.77 27.98 31.6 28.39C29.43 28.8 29.36 28.5 27.2 28.96C25.04 29.42 25.06 29.53 22.93 30.03C20.8 30.53 21.07 32.2 18.89 32.45C16.71 32.7 16.59 30.53 14.36 30.52C12.13 30.51 11.91 30.13 9.72001 30.48C7.35001 30.86 7.80001 32.92 5.52001 33.66C3.24001 34.4 1.67001 32.02 2.04001 34.39C2.41001 36.76 3.3 34.11 5.74001 34.39C8.18001 34.67 8.05001 35.98 10.5 36.14C12.79 36.29 12.84 34.42 15.13 34.44C17.42 34.46 17.4 35.91 19.69 36.03C21.98 36.15 22.07 35.06 24.35 35.27C26.63 35.48 26.56 36.26 28.83 36.58C31.1 36.9 30.83 38.34 33.08 38.78C35.33 39.22 35.75 36.79 38.01 37.15C40.27 37.51 39.95 39.91 42.24 40.19C44.53 40.47 44.72 38.98 46.94 39.6C49.16 40.22 49.39 39.77 51.51 40.71C53.63 41.65 53.65 41.61 55.77 42.55C57.89 43.49 57.58 44.09 59.67 45.01C61.76 45.93 61.38 47.07 63.57 47.72C65.76 48.37 65.98 48.2 68.31 48.57C70.64 48.94 71.42 46.5 73.57 47.48C75.87 48.53 74.85 50.36 76.81 51.95C78.77 53.54 79.14 53.1 81.06 54.74C82.98 56.38 82.88 56.43 84.74 58.09C86.6 59.75 85.78 60.73 87.71 62.3C89.64 63.87 90.58 62.67 92.59 64.13C94.6 65.59 94.93 65.05 97 66.42C97.82 66.96 98.36 67.26 98.33 68.24C98.27 70.42 97.68 70.43 96.73 72.39C95.78 74.35 96.31 74.5 95.53 76.53C94.75 78.56 93.33 78.02 92.74 80.09C92.15 82.16 91.3 82.03 90.9 84.14C90.5 86.25 92.07 86.51 91.89 88.65C91.71 90.79 92.2 90.87 91.91 93.01C91.62 95.15 90.9 95.04 90.52 97.15C90.14 99.26 90.73 99.35 90.4 101.47C90.07 103.59 89.02 103.45 88.74 105.59C88.46 107.73 87.59 107.76 87.59 109.92C87.59 112.08 88.81 112.07 89.08 114.22C89.35 116.37 89.97 116.31 90.16 118.47C90.35 120.63 89.74 120.66 89.86 122.8C89.98 124.94 90.69 124.9 90.81 127.04C90.93 129.18 91.02 129.18 91.16 131.33C91.3 133.48 90.02 133.6 90.37 135.72C90.75 138.02 92.36 137.64 92.94 139.89C93.52 142.14 91.32 142.74 91.94 144.98C92.56 147.22 94.85 146.57 95.5 148.79C96.15 151.01 93.72 151.79 94.47 153.98C95.22 156.17 97.29 155.41 98.15 157.55C99.01 159.69 97.67 160.23 98.5 162.39C99.33 164.55 98.93 164.68 99.73 166.85C100.53 169.02 101.16 168.8 102.02 170.94C102.88 173.08 103.08 173.01 104.02 175.13C104.96 177.25 104.53 177.5 105.71 179.49C106.89 181.48 107.11 181.4 108.54 183.25C109.97 185.1 109.7 185.15 110.83 187.19C111.96 189.23 112.88 188.8 113.71 191.02C114.54 193.24 114.88 192.88 116.14 194.89C117.4 196.9 116.97 196.96 118.59 198.65C120.21 200.34 119.35 201.16 120.98 202.84C122.61 204.52 122.47 204.62 124.09 206.28C125.71 207.94 127.39 206.4 128.91 208.15C130.43 209.9 129.33 210.84 130.73 212.68C132.13 214.52 131.91 214.69 133.28 216.55C134.65 218.41 133.95 218.97 135.32 220.89C136.69 222.81 137.3 222.43 138.95 224.12C140.6 225.81 140.49 225.99 142.35 227.39C144.21 228.79 144.3 228.68 146.19 230.06C148.08 231.44 148.57 230.67 150.44 231.98C152.31 233.29 152.56 232.92 154.45 234.21C156.34 235.5 156.57 235.13 158.45 236.39C160.33 237.65 159.84 238.35 161.8 239.51C163.76 240.67 163.71 240.7 165.73 241.75C167.75 242.8 167.77 242.79 169.73 243.94C171.69 245.09 171.76 245.06 173.69 246.31C175.62 247.56 175.06 248.58 177.17 249.49C179.28 250.4 179.36 250.49 181.59 251.03C183.82 251.57 183.88 251.33 186.11 251.89C188.34 252.45 188.18 252.94 190.38 253.51C192.58 254.08 192.57 253.74 194.69 254.55C196.81 255.36 197.54 253.8 199.62 254.84C201.7 255.88 201.54 255.99 203.7 256.84C205.86 257.69 205.23 259.46 207.43 260.1C209.63 260.74 209.85 260.04 212.09 260.52C214.33 261 214.41 260.56 216.67 260.88C218.93 261.2 218.75 262.54 221.01 262.86C223.27 263.18 223.53 261.35 225.79 261.67C228.05 261.99 228.02 261.58 230.3 261.72C232.58 261.86 232.53 262.49 234.83 262.45C237.13 262.41 237.3 261.24 239.59 261.51C241.88 261.78 241.67 263.3 243.89 263.89C246.11 264.48 245.91 265.41 248.16 265.9C250.41 266.39 250.45 266.32 252.7 266.7C254.95 267.08 255.09 266.26 257.36 266.47C259.63 266.68 259.62 267.33 261.9 267.38C264.18 267.43 264.2 266.74 266.48 266.77C268.76 266.8 268.74 268.07 271.02 268.1C273.3 268.13 273.28 267.82 275.56 267.9C277.84 267.98 277.83 267.69 280.11 267.83C282.39 267.97 282.39 267.97 284.67 268.08C286.95 268.19 286.96 267.94 289.24 268.02C291.52 268.1 291.54 268.27 293.82 268.24C296.1 268.21 296.04 266.7 298.32 266.56C300.6 266.42 300.65 266.46 302.93 266.45C305.21 266.44 305.15 268.48 307.43 268.6C309.71 268.72 309.72 268.23 312 268.37C314.28 268.51 314.38 266.99 316.66 267.15C318.94 267.31 318.92 267.16 321.2 267.26C323.48 267.36 323.45 267.57 325.73 267.6C328.01 267.63 327.99 268.02 330.27 267.98C332.55 267.94 332.53 267.79 334.81 267.69C337.09 267.59 337.13 268.53 339.41 268.42C341.69 268.31 341.65 267.47 343.93 267.35C346.21 267.23 346.28 268.2 348.55 267.95C350.82 267.7 350.72 266.83 352.99 266.44C355.26 266.05 355.27 266.31 357.57 266.37C359.87 266.43 360.01 265.73 362.27 266.23C364.53 266.73 364.33 269.02 366.64 268.98C368.95 268.94 368.89 267.55 371.11 266.97C373.33 266.39 373.33 266.82 375.62 266.59C377.91 266.36 377.81 265.26 380.06 265.41C382.31 265.56 382.24 265.03 384.5 264.98C386.76 264.93 386.89 267.11 389.12 266.86C391.35 266.61 391.29 266.63 393.54 266.51C395.79 266.39 395.72 265.71 397.96 265.71C400.2 265.71 400.2 265.2 402.44 265.05C404.68 264.9 404.62 264.44 406.85 264.14C409.08 263.84 409.12 263.27 411.37 263.22C413.62 263.17 413.57 264.97 415.83 265.18C418.09 265.39 418.23 263.67 420.49 263.86C422.75 264.05 422.68 264.73 424.93 264.9C427.18 265.07 427.12 264.32 429.37 264.26C431.62 264.2 431.7 265.78 433.94 265.5C436.18 265.22 436.06 263.65 438.31 263.58C440.56 263.51 440.62 264.03 442.87 264.17C445.12 264.31 445.08 264.74 447.34 264.69C449.6 264.64 449.5 263.92 451.73 263.68C453.96 263.44 454 263.7 456.23 263.48C458.46 263.26 458.42 262.67 460.65 262.46C462.88 262.25 463.06 264.09 465.29 263.87C467.52 263.65 467.33 261.82 469.57 261.58C471.81 261.34 471.79 261.39 474.02 261.11C476.25 260.83 476.53 262.99 478.76 262.68C480.99 262.37 480.91 262.48 483.15 262.34C485.39 262.2 485.33 260.13 487.58 260.16C489.83 260.19 489.85 259.96 492.1 260.02C494.35 260.08 494.31 261.73 496.57 261.81C498.83 261.89 498.78 261.04 501.02 260.76C503.26 260.48 503.54 261.59 505.73 260.94C507.92 260.29 507.82 260.16 510.06 259.7C512.3 259.24 511.98 257.49 514.21 257.23C516.44 256.97 516.47 256.83 518.71 256.67C520.95 256.51 521.06 258.41 523.31 258.34C525.56 258.27 525.51 257.44 527.74 257.19C529.97 256.94 530.18 258.1 532.38 257.67C534.58 257.24 534.31 255.12 536.55 255C538.79 254.88 538.9 255.87 541.19 256.07C543.48 256.27 543.45 256.44 545.75 256.34C548.05 256.24 547.98 256.27 550.19 255.86C552.4 255.45 552.39 255.43 554.57 254.85C556.75 254.27 557.05 255.1 559.19 254.36C561.33 253.62 561.3 253.84 563.5 253.28C565.7 252.72 565.41 251.76 567.62 251.4C569.83 251.04 569.99 251.72 572.18 251.24C574.37 250.76 574.07 249.55 576.23 248.95C578.39 248.35 578.67 249.57 580.86 249.11C583.05 248.65 582.82 247.32 585.05 246.98C587.28 246.64 587.21 246.78 589.37 246.1C591.53 245.42 591.43 245.42 593.45 244.39C595.47 243.36 595.93 244.39 598.01 243.49C600.09 242.59 599.55 241.31 601.65 240.56C603.75 239.81 604.33 241.28 606.39 240.42C608.45 239.56 608.45 239.46 610.46 238.49C612.47 237.52 612.23 237.01 614.21 235.99C616.19 234.97 616.44 235.42 618.39 234.35C620.34 233.28 620.37 233.24 622.25 232.05C624.13 230.86 623.33 229.71 625.12 228.39C626.91 227.07 626.66 226.61 628.53 225.41C630.4 224.21 630.74 224.61 632.72 223.51C634.7 222.41 635.09 223.16 636.84 221.73C638.59 220.3 639.47 221.09 640.93 219.39C642.39 217.69 641.8 217.16 643.21 215.41C644.62 213.66 645.2 214.12 646.55 212.35C647.9 210.58 647.27 210.11 648.62 208.35C649.97 206.59 649.61 206.31 650.97 204.56C652.33 202.81 651.83 202.4 653.23 200.68C654.71 198.86 655.44 199.47 656.96 197.68C658.48 195.89 657.56 195.35 658.72 193.31C659.88 191.27 661.67 192.09 662.42 189.88C663.17 187.67 661.18 186.98 661.98 184.79C662.78 182.6 662.96 182.68 663.78 180.53C664.6 178.38 664.48 178.42 665.1 176.2C665.72 173.98 667.61 174.4 668.02 172.13C668.43 169.86 665.92 169.27 666.56 167.05C667.2 164.83 667.59 164.82 668.46 162.66C669.33 160.5 671.31 161.19 671.95 158.94C672.59 156.69 670.86 156.31 671.26 154.03C671.66 151.75 671.74 151.78 672.08 149.49C672.42 147.2 673.1 147.29 673.37 144.99C673.64 142.69 672.88 142.64 673.04 140.32C673.2 138 674.67 138.07 674.71 135.75C674.75 133.43 675.43 133.3 675.23 130.99C675.03 128.68 674.69 128.59 674.24 126.29C673.79 123.99 671.17 124.3 671.07 121.97C670.97 119.64 672.57 119.58 672.82 117.23C673.07 114.88 673.99 114.87 673.93 112.51C673.87 110.15 672.84 110.23 672.47 107.94C672.1 105.65 672.83 105.45 672.18 103.22C671.53 100.99 670.59 101.29 669.64 99.13C668.69 96.97 668.03 97.24 667.14 95.06C666.25 92.88 666.79 92.71 665.97 90.56C665.15 88.41 666.07 88.08 665.31 85.91C664.55 83.74 663.29 84.16 662.61 81.97C661.93 79.78 662.88 79.48 662.2 77.29C661.52 75.1 661.93 74.94 661.24 72.72C660.55 70.5 660.83 70.23 659.72 68.19C658.61 66.15 657.89 66.5 656.39 64.71C654.89 62.92 655.2 62.79 653.95 60.81C652.7 58.83 651.86 59.34 650.91 57.21C649.96 55.08 651.12 54.41 649.78 52.5C648.44 50.59 648.09 50.77 646.42 49.15C644.75 47.53 645.17 47.17 643.56 45.5C642.03 43.92 641.81 44.17 640.35 42.54C638.89 40.91 637.8 41.95 636.22 40.42C634.64 38.89 634.21 39.37 632.48 37.91C630.75 36.45 632.23 34.27 630.17 33.34C628.11 32.41 627.77 32.5 625.49 32.16C623.21 31.82 622.97 33.27 620.83 32.42C618.69 31.57 619.16 30.87 617.27 29.55C615.38 28.23 615.03 28.96 612.89 28.1C610.75 27.24 611.08 26.34 608.86 26.01C606.64 25.68 606.71 25.16 604.48 24.85C602.25 24.54 601.99 26.55 599.79 26.25C597.59 25.95 597.58 25.85 595.38 25.49C593.18 25.13 593.24 24.8 591.06 24.38C588.88 23.96 588.71 24.73 586.54 24.25C584.37 23.77 584.43 23.37 582.28 22.83C580.13 22.29 580.01 22.74 577.85 22.2C575.69 21.66 575.75 21.37 573.59 20.82C571.43 20.27 571.9 18.14 569.71 17.71C567.52 17.28 567.4 17.78 565.19 17.47C562.98 17.16 562.92 17.22 560.7 17.18C558.48 17.14 558.46 18.06 556.2 18.28C553.94 18.5 553.91 18.54 551.65 18.35C549.39 18.16 549.64 17.23 547.47 16.63C545.3 16.03 545.06 17.24 542.84 16.89C540.62 16.54 540.76 15.83 538.54 15.74C536.32 15.65 536.29 16.13 534.07 15.98C531.85 15.83 531.83 15.95 529.63 15.75C527.43 15.55 527.66 13.84 525.46 13.5C523.26 13.16 522.96 14.86 520.77 14.39C518.58 13.92 518.8 12.06 516.57 11.91C514.34 11.76 514.16 11.8 511.91 11.98C509.66 12.16 509.82 14.38 507.57 14.49C505.32 14.6 505.29 12.45 503.06 12.47C500.83 12.49 500.88 13.49 498.66 13.32C496.44 13.15 496.3 14.08 494.1 13.7C491.9 13.32 492 12.9 489.78 12.68C487.56 12.46 487.62 11.41 485.4 11.35C483.18 11.29 483.16 13.08 480.93 13.07C478.7 13.06 478.69 11.37 476.47 11.41C474.25 11.45 474.36 11.36 472.15 11.1C469.94 10.84 469.66 12.3 467.47 11.75C465.28 11.2 465.28 11.43 463.06 11C460.84 10.57 461.01 10.02 458.8 9.72997C456.59 9.43997 456.64 10.15 454.41 10.12C452.18 10.09 452.15 8.57997 449.92 8.78997C447.69 8.99997 447.69 8.66997 445.45 8.76997C443.21 8.86997 443.26 9.96997 441.04 9.94997C438.82 9.92997 438.73 11.04 436.51 10.89C434.29 10.74 434.28 10.13 432.07 9.85997C429.86 9.58997 429.98 8.65997 427.75 8.54997C425.52 8.43997 425.52 8.41997 423.3 8.46997C421.08 8.51997 421.1 8.40997 418.88 8.23997C416.66 8.06997 416.69 8.01997 414.48 7.62997C412.27 7.23997 412.25 7.34997 410.04 7.01997C407.83 6.68997 407.78 7.17997 405.56 6.91997C403.34 6.65997 403.38 6.80997 401.16 6.73997C398.94 6.66997 398.91 5.44997 396.68 5.57997C394.45 5.70997 394.46 5.52997 392.22 5.59997C389.98 5.66997 390.02 7.71997 387.77 7.73997C385.52 7.75997 385.51 6.73997 383.27 6.62997C381.03 6.51997 381.07 6.09997 378.83 5.85997C376.59 5.61997 376.62 4.53997 374.38 4.45997C372.14 4.37997 372.07 5.13997 369.82 5.22997C367.57 5.31997 367.59 5.34997 365.35 5.34997C363.11 5.34997 363.15 4.65997 360.91 4.58997C358.67 4.51997 358.67 5.38997 356.44 5.18997C354.21 4.98997 353.97 6.66997 351.74 6.32997C349.51 5.98997 349.74 3.32997 347.48 3.30997C345.22 3.28997 345.23 4.73997 342.98 5.04997C340.73 5.35997 340.65 7.07997 338.39 6.92997C336.13 6.77997 336.03 5.79997 333.8 5.19997C331.57 4.59997 331.87 2.03997 329.56 2.02997C327.25 2.01997 327.15 3.13997 324.9 3.70997C322.65 4.27997 322.89 5.51997 320.57 5.49997C318.25 5.47997 318.27 5.11997 316.02 4.51997C313.77 3.91997 313.91 3.28997 311.59 3.26997C309.27 3.24997 309.67 4.90997 307.44 5.46997C305.21 6.02997 304.89 3.90997 302.59 4.03997C300.29 4.16997 300.37 5.34997 298.12 5.04997C295.87 4.74997 295.96 3.69997 293.7 3.54997C291.44 3.39997 291.41 3.78997 289.17 3.78997C286.93 3.78997 286.9 3.80997 284.66 3.97997C282.42 4.14997 282.54 5.10997 280.31 5.43997C278.08 5.76997 278.07 5.77997 275.84 6.05997C273.61 6.33997 273.6 6.37997 271.37 6.58997C269.14 6.79997 269.15 7.02997 266.92 7.22997C264.69 7.42997 264.55 5.76997 262.31 5.93997C260.07 6.10997 260.25 8.09997 258.02 8.30997C255.79 8.51997 255.7 7.50997 253.47 7.75997C251.24 8.00997 251.23 7.95997 249 8.16997C246.77 8.37997 246.74 8.06997 244.49 8.22997C242.24 8.38997 241.99 7.09997 239.79 7.52997C237.59 7.95997 237.96 9.70997 235.8 10.41C233.64 11.11 233.3 9.99997 231.13 10.67C228.96 11.34 229.16 11.9 227 12.53C224.84 13.16 224.82 12.87 222.61 13.32C220.4 13.77 220.51 14.17 218.28 14.41C216.05 14.65 216.06 14.76 213.82 14.99C211.58 15.22 211.45 14 209.2 14.22C206.95 14.44 207.1 15.84 204.87 16.21C202.64 16.58 202.49 15.79 200.3 16.29C198.11 16.79 198.18 17.16 196.09 17.96C194 18.76 194.06 19.03 192.04 20.13C190.02 21.23 190.43 22.37 188.25 23.1C186.07 23.83 185.75 22.68 183.52 23.01C181.29 23.34 180.97 21.82 178.76 22.3C176.42 22.8 176.64 23.92 174.33 24.57C172.02 25.22 172.08 25.4 169.76 26C167.44 26.6 167.45 26.65 165.11 27.22C162.77 27.79 162.47 26.96 160.21 27.78C157.95 28.6 158.57 30.08 156.4 31.15C154.23 32.22 154.01 31.77 151.78 32.67C149.55 33.57 149.16 32.33 146.87 33.05C144.58 33.77 144.92 34.84 142.67 35.68C140.42 36.52 140.25 36.12 138.05 37.07C135.85 38.02 136.12 38.62 133.98 39.7C131.84 40.78 131.13 40 129.38 41.75C127.32 43.81 127.81 45.46 125.33 45.59L125.36 45.57Z" stroke="#DDA15E" stroke-width="4" stroke-miterlimit="10"/>
<path d="M206.723 101.023L232.996 100.419L233.064 102.547L206.791 103.152L206.723 101.023ZM214.141 111.565L228.417 111.236L228.479 113.185L214.203 113.514L214.141 111.565ZM227.446 106.158L229.635 106.107L230.12 121.399C230.162 122.719 229.914 123.415 228.905 123.798C227.957 124.18 226.277 124.219 223.698 124.278C223.588 123.65 223.229 122.728 222.879 122.106C224.891 122.15 226.72 122.078 227.26 122.065C227.769 122.024 227.944 121.87 227.93 121.42L227.446 106.158ZM216.407 96.8995L218.703 97.3867C216.9 103.94 213.51 110.619 207.998 114.737C207.682 114.234 206.937 113.441 206.504 113.031C211.666 109.251 214.976 102.874 216.407 96.8995ZM214.121 116.637L228.578 116.304L228.639 118.253L214.183 118.586L214.121 116.637ZM213.829 106.471L228.075 106.143L228.14 108.182L213.894 108.51L213.829 106.471ZM212.629 106.499L214.879 106.447L215.131 114.393C215.236 117.721 214.861 121.961 212.009 124.787C211.693 124.284 210.824 123.374 210.363 123.054C212.806 120.598 212.971 117.263 212.88 114.415L212.629 106.499ZM250.882 100.337L262.219 100.076L262.284 102.115L250.947 102.376L250.882 100.337ZM250.49 106.917L263.507 106.618L263.572 108.687L250.556 108.986L250.49 106.917ZM255.368 96.0327L257.407 95.9858L257.662 104.022C257.836 109.509 257.141 115.046 251.096 119.386C250.752 118.944 250.074 118.39 249.552 118.012C255.185 113.951 255.772 108.776 255.622 104.069L255.368 96.0327ZM236.251 98.9333L250.077 98.6151L250.136 100.474L236.31 100.792L236.251 98.9333ZM239.137 112.34C241.928 119.897 247.366 121.033 254.834 120.861C256.214 120.829 262.692 120.68 264.43 120.58C264.087 121.128 263.7 122.187 263.571 122.85L254.874 123.05C246.446 123.244 240.726 121.755 237.597 113.006L239.137 112.34ZM241.816 109.758L243.66 110.165C242.443 113.434 240.138 116.458 237.499 118.409C237.335 117.993 236.824 117.014 236.451 116.603C238.711 114.99 240.763 112.513 241.816 109.758ZM238.673 101.488L240.246 101.872C239.63 104.227 238.506 106.653 237.175 108.214C237.014 107.858 236.508 107.059 236.168 106.737C237.297 105.421 238.227 103.509 238.673 101.488ZM241.282 111.84L247.7 111.693L247.758 113.522L240.38 113.692L241.282 111.84ZM247.191 111.704L247.64 111.694L247.997 111.596L249.247 112.197C247.402 118.361 242.959 122.124 237.829 124.103C237.575 123.658 236.948 122.833 236.517 122.483C241.475 120.748 245.689 117.35 247.202 112.064L247.191 111.704ZM242.052 96.3692L244.062 96.323L244.403 107.088L242.393 107.134L242.052 96.3692ZM238.433 104.344L239.421 103.331C240.313 104.001 241.331 104.878 241.829 105.436L240.787 106.631C240.257 106.013 239.265 105.015 238.433 104.344ZM247.072 101.355L248.553 101.681C248.069 103.432 247.107 105.285 246.124 106.478C245.847 106.244 245.175 105.87 244.809 105.698C245.823 104.534 246.613 102.956 247.072 101.355ZM246.598 104.366L247.584 103.293C248.689 104.048 250.011 105.068 250.662 105.713L249.621 106.967C248.969 106.262 247.642 105.123 246.598 104.366ZM242.81 106.074L244.42 106.667C242.829 108.564 239.825 110.374 237.09 111.217C236.774 110.714 236.182 110.007 235.75 109.657C238.401 108.996 241.327 107.578 242.81 106.074ZM242.862 107.723L243.835 106.23C245.843 107.084 248.585 108.342 249.992 109.179L249.024 110.852C247.616 109.984 244.902 108.636 242.862 107.723ZM256.086 109.219L257.677 108.282C259.9 111.202 262.666 115.129 263.971 117.47L262.237 118.62C260.991 116.248 258.281 112.199 256.086 109.219ZM277.385 95.616L278.838 96.9629C276.314 97.8312 272.43 98.3707 269.166 98.6258C269.063 98.2081 268.803 97.5839 268.58 97.169C271.691 96.8573 275.395 96.292 277.385 95.616ZM290.131 95.3227L291.704 96.6368C289.031 97.5385 284.875 98.0542 281.402 98.3142C281.299 97.8965 281.038 97.2423 280.785 96.8281C284.107 96.5415 288.053 96.0306 290.131 95.3227ZM269.546 100.177L279.443 99.9496L279.498 101.689L269.601 101.917L269.546 100.177ZM281.812 99.8951L293.239 99.6321L293.294 101.371L281.867 101.634L281.812 99.8951ZM274.061 100.584L276.1 100.537L276.254 105.394L274.215 105.441L274.061 100.584ZM286.538 100.326L288.578 100.28L288.735 105.227L286.695 105.274L286.538 100.326ZM272.926 111.172L272.993 113.301L287.389 112.97L287.322 110.841L272.926 111.172ZM273.039 114.74L273.108 116.929L287.504 116.598L287.435 114.409L273.039 114.74ZM272.812 107.604L272.879 109.703L287.275 109.372L287.209 107.273L272.812 107.604ZM270.575 106.155L289.44 105.721L289.832 118.075L270.967 118.509L270.575 106.155ZM283.404 119.813L284.258 118.323C287.675 119.145 291.313 120.291 293.592 121.169L292.564 122.813C290.374 121.903 286.825 120.725 283.404 119.813ZM275.951 118.544L277.721 119.464C275.276 120.93 271.395 122.52 268.393 123.459C268.23 123.043 267.597 122.007 267.222 121.566C270.112 120.869 273.766 119.705 275.951 118.544ZM268.58 97.169L270.559 97.1234L270.637 99.5822C270.707 101.771 270.253 104.512 267.916 106.516C267.602 106.104 266.798 105.342 266.37 105.082C268.447 103.383 268.711 101.307 268.657 99.5978L268.58 97.169ZM280.785 96.8281L282.734 96.7832L282.805 99.0321C282.87 101.071 282.537 103.809 280.647 105.743C280.276 105.392 279.417 104.811 278.96 104.612C280.676 102.862 280.907 100.696 280.855 99.047L280.785 96.8281ZM302.888 107.662L317.224 107.332L317.275 108.921L302.939 109.251L302.888 107.662ZM320.263 112.303L322.014 113.553C319.906 115.222 317.199 116.935 315.016 118.125L313.536 116.899C315.66 115.74 318.599 113.752 320.263 112.303ZM302.646 103.797L318.451 103.433L318.748 112.788L302.942 113.152L302.887 111.413L316.444 111.101L316.256 105.194L302.7 105.506L302.646 103.797ZM310.404 95.7563C313.41 98.7178 319.142 101.557 324.013 102.765C323.518 103.256 322.857 104.172 322.545 104.749C317.757 103.299 311.984 100.131 308.664 96.7265L310.404 95.7563ZM309.377 94.5796L311.447 95.5222C308.432 99.8226 303.199 103.274 297.712 105.32C297.394 104.758 296.768 103.962 296.212 103.465C301.47 101.753 306.769 98.4805 309.377 94.5796ZM301.853 122.329C301.658 121.853 301.121 121.026 300.749 120.644C301.219 120.333 301.889 119.688 301.849 118.428L301.386 103.826L303.575 103.775L304.091 120.027C304.091 120.027 301.828 121.549 301.853 122.329ZM301.853 122.329L301.707 120.562L302.912 119.754L311.473 118.087C311.431 118.658 311.458 119.527 311.503 119.976C303.603 121.689 302.501 121.954 301.853 122.329ZM308.625 115.362L310.084 114.038C313.924 115.87 319.054 118.632 321.723 120.461L320.182 122.027C317.633 120.225 312.559 117.312 308.625 115.362ZM305.763 100.814L314.19 100.62L314.242 102.239L305.814 102.433L305.763 100.814ZM339.16 100.556L353.616 100.223L353.685 102.382L339.228 102.715L339.16 100.556ZM347.954 93.9318L350.293 93.878L351.069 118.346C351.119 119.905 350.751 120.603 349.772 120.986C348.765 121.399 346.996 121.47 344.447 121.529C344.277 120.903 343.885 119.891 343.564 119.239C345.516 119.254 347.464 119.179 348.004 119.166C348.573 119.123 348.748 118.969 348.731 118.429L347.954 93.9318ZM347.949 101.344L349.783 102.382C347.731 107.71 343.597 113.657 339.558 116.9C339.179 116.309 338.465 115.545 337.881 115.108C341.871 112.226 346.01 106.459 347.949 101.344ZM326.682 100.813L338.049 100.551L338.118 102.71L326.751 102.972L326.682 100.813ZM331.486 94.2508L333.736 94.199L334.61 121.755L332.36 121.807L331.486 94.2508ZM331.613 102.02L333.22 102.553C332.146 107.469 329.872 113.372 327.389 116.46C327.128 115.806 326.498 114.89 326.061 114.36C328.405 111.606 330.703 106.452 331.613 102.02ZM333.819 103.439C334.806 104.287 338.321 108.167 339.101 109.109L337.723 111.091C336.713 109.524 333.805 105.84 332.685 104.606L333.819 103.439ZM369.194 118.589L361.479 96.7712L364.418 96.7036L368.335 108.526C369.198 111.117 369.803 113.173 370.696 115.763L370.846 115.76C371.573 113.133 372.047 111.051 372.744 108.425L375.875 96.4399L378.725 96.3743L372.404 118.515L369.194 118.589ZM388.118 118.573C385.029 118.644 382.32 117.446 380.337 115.482L381.926 113.525C383.568 115.167 385.821 116.165 388.1 116.113C390.98 116.047 392.644 114.568 392.576 112.439C392.504 110.16 390.891 109.477 388.793 108.625L385.601 107.319C383.503 106.497 381.055 104.993 380.953 101.784C380.845 98.396 383.677 95.8702 387.696 95.7777C390.305 95.7177 392.65 96.774 394.23 98.3579L392.817 100.161C391.427 98.9326 389.782 98.1603 387.773 98.2065C385.283 98.2638 383.704 99.5604 383.766 101.509C383.834 103.668 385.778 104.404 387.511 105.084L390.673 106.362C393.287 107.412 395.285 108.896 395.389 112.164C395.499 115.643 392.737 118.467 388.118 118.573ZM410.405 92.2544L412.404 92.8385C410.831 96.2355 408.265 99.5653 405.695 101.785C405.411 101.371 404.691 100.428 404.229 100.048C406.69 98.1612 409.029 95.2567 410.405 92.2544ZM409.59 95.904L430.254 95.4283L430.319 97.4673L408.905 97.9602L409.59 95.904ZM405.826 103.102L430.78 102.528L430.844 104.567L405.891 105.141L405.826 103.102ZM405.034 110.292L431.637 109.68L431.701 111.719L405.099 112.331L405.034 110.292ZM414.478 99.5723L416.428 99.5274L416.795 111.102L414.846 111.146L414.478 99.5723ZM409.32 99.691L411.359 99.6441L411.729 111.308L409.69 111.355L409.32 99.691ZM419.907 99.4474L421.857 99.4025L422.226 111.067L420.277 111.111L419.907 99.4474ZM425.186 99.3259L427.285 99.2775L427.655 110.942L425.556 110.99L425.186 99.3259ZM413.772 114.202L415.835 113.944C416.281 115.704 416.654 118.006 416.727 119.355L414.548 119.735C414.473 118.327 414.189 115.993 413.772 114.202ZM419.948 114L422.036 113.592C422.9 115.282 423.783 117.572 424.129 119.005L421.924 119.506C421.609 118.102 420.785 115.781 419.948 114ZM426.122 113.708L428.168 112.91C429.393 114.653 430.852 117.11 431.558 118.564L429.369 119.574C428.751 118.058 427.322 115.57 426.122 113.708ZM408.677 113.479L410.823 113.97C410.106 115.967 408.985 118.483 407.957 120.127L405.771 119.337C406.804 117.843 407.989 115.445 408.677 113.479ZM448.964 95.7779L460.301 95.517L460.366 97.5559L449.029 97.8169L448.964 95.7779ZM448.573 102.358L461.589 102.059L461.655 104.128L448.638 104.427L448.573 102.358ZM453.45 91.4737L455.489 91.4268L455.744 99.4627C455.918 104.95 455.223 110.487 449.178 114.827C448.834 114.385 448.156 113.831 447.634 113.453C453.268 109.392 453.854 104.217 453.705 99.5097L453.45 91.4737ZM434.333 94.3743L448.159 94.056L448.218 95.9151L434.392 96.2333L434.333 94.3743ZM437.219 107.781C440.01 115.338 445.449 116.474 452.917 116.302C454.296 116.27 460.775 116.121 462.512 116.021C462.169 116.569 461.783 117.628 461.654 118.291L452.956 118.491C444.528 118.685 438.808 117.196 435.68 108.446L437.219 107.781ZM439.899 105.199L441.742 105.606C440.525 108.875 438.22 111.899 435.581 113.85C435.418 113.434 434.906 112.455 434.533 112.044C436.793 110.431 438.845 107.954 439.899 105.199ZM436.755 96.9291L438.328 97.313C437.712 99.6677 436.589 102.094 435.258 103.655C435.096 103.299 434.591 102.5 434.25 102.178C435.379 100.862 436.309 98.9498 436.755 96.9291ZM439.364 107.281L445.783 107.134L445.841 108.963L438.463 109.133L439.364 107.281ZM445.273 107.145L445.723 107.135L446.08 107.037L447.329 107.638C445.484 113.802 441.041 117.565 435.911 119.544C435.657 119.099 435.031 118.274 434.6 117.923C439.557 116.189 443.771 112.791 445.284 107.505L445.273 107.145ZM440.134 91.8102L442.144 91.7639L442.485 102.529L440.476 102.575L440.134 91.8102ZM436.515 99.7853L437.504 98.7723C438.395 99.4419 439.414 100.319 439.912 100.877L438.869 102.072C438.339 101.454 437.347 100.456 436.515 99.7853ZM445.155 96.7958L446.636 97.1218C446.151 98.8733 445.189 100.726 444.207 101.919C443.929 101.685 443.257 101.31 442.891 101.139C443.905 99.9753 444.695 98.3967 445.155 96.7958ZM444.68 99.8074L445.666 98.7345C446.771 99.4892 448.094 100.509 448.745 101.154L447.704 102.408C447.051 101.703 445.724 100.564 444.68 99.8074ZM440.892 101.515L442.502 102.108C440.911 104.005 437.907 105.815 435.173 106.658C434.857 106.155 434.264 105.448 433.833 105.098C436.483 104.437 439.409 103.019 440.892 101.515ZM440.945 103.164L441.918 101.671C443.926 102.525 446.667 103.783 448.074 104.62L447.107 106.293C445.699 105.425 442.985 104.077 440.945 103.164ZM454.168 104.66L455.759 103.723C457.983 106.643 460.749 110.57 462.053 112.911L460.319 114.061C459.073 111.689 456.364 107.64 454.168 104.66ZM475.467 91.057L476.92 92.4039C474.397 93.2721 470.512 93.8116 467.249 94.0668C467.145 93.6491 466.885 93.0249 466.662 92.6099C469.774 92.2983 473.477 91.7329 475.467 91.057ZM488.214 90.7636L489.786 92.0777C487.113 92.9794 482.958 93.4952 479.484 93.7552C479.381 93.3374 479.12 92.6833 478.867 92.269C482.189 91.9825 486.135 91.4716 488.214 90.7636ZM467.628 95.6184L477.525 95.3906L477.58 97.1297L467.683 97.3575L467.628 95.6184ZM479.895 95.3361L491.322 95.0731L491.377 96.8122L479.95 97.0752L479.895 95.3361ZM472.143 96.0246L474.182 95.9777L474.336 100.835L472.297 100.882L472.143 96.0246ZM484.62 95.7674L486.66 95.7205L486.817 100.668L484.777 100.715L484.62 95.7674ZM471.008 106.613L471.075 108.742L485.472 108.411L485.404 106.282L471.008 106.613ZM471.121 110.181L471.191 112.37L485.587 112.039L485.517 109.85L471.121 110.181ZM470.895 103.045L470.961 105.144L485.358 104.813L485.291 102.714L470.895 103.045ZM468.658 101.596L487.523 101.162L487.915 113.516L469.05 113.95L468.658 101.596ZM481.487 115.254L482.34 113.764C485.757 114.586 489.396 115.732 491.674 116.61L490.646 118.254C488.456 117.344 484.907 116.165 481.487 115.254ZM474.033 113.985L475.803 114.905C473.358 116.371 469.477 117.961 466.475 118.9C466.312 118.484 465.679 117.448 465.305 117.007C468.194 116.31 471.849 115.146 474.033 113.985ZM466.662 92.6099L468.642 92.5644L468.72 95.0231C468.789 97.2121 468.336 99.9531 465.998 101.957C465.685 101.544 464.88 100.783 464.452 100.523C466.529 98.8244 466.793 96.7479 466.739 95.0387L466.662 92.6099ZM478.867 92.269L480.816 92.2242L480.888 94.473C480.952 96.512 480.619 99.2503 478.729 101.184C478.358 100.833 477.499 100.252 477.043 100.053C478.758 98.3029 478.99 96.1371 478.937 94.4879L478.867 92.269ZM500.971 103.103L515.307 102.773L515.357 104.362L501.021 104.692L500.971 103.103ZM518.346 107.744L520.096 108.994C517.988 110.663 515.281 112.376 513.098 113.566L511.618 112.34C513.743 111.181 516.681 109.193 518.346 107.744ZM500.728 99.2376L516.534 98.8738L516.83 108.229L501.025 108.593L500.969 106.854L514.526 106.542L514.339 100.635L500.782 100.947L500.728 99.2376ZM508.487 91.1972C511.492 94.1587 517.225 96.9975 522.095 98.2057C521.601 98.6972 520.939 99.6126 520.627 100.19C515.839 98.7397 510.066 95.5719 506.747 92.1675L508.487 91.1972ZM507.459 90.0206L509.53 90.9632C506.515 95.2635 501.282 98.7147 495.794 100.761C495.476 100.199 494.85 99.4029 494.294 98.9055C499.553 97.1942 504.851 93.9215 507.459 90.0206ZM499.935 117.77C499.74 117.294 499.203 116.467 498.831 116.085C499.301 115.774 499.971 115.129 499.931 113.869L499.468 99.2666L501.658 99.2162L502.173 115.468C502.173 115.468 499.91 116.99 499.935 117.77ZM499.935 117.77L499.789 116.003L500.994 115.195L509.555 113.528C509.513 114.099 509.541 114.968 509.585 115.417C501.686 117.13 500.583 117.395 499.935 117.77ZM506.707 110.803L508.166 109.479C512.006 111.311 517.136 114.073 519.805 115.902L518.264 117.468C515.716 115.666 510.641 112.753 506.707 110.803ZM503.845 96.2552L512.273 96.0612L512.324 97.6804L503.896 97.8744L503.845 96.2552ZM537.242 95.9966L551.698 95.6639L551.767 97.8228L537.311 98.1555L537.242 95.9966ZM546.036 89.3728L548.376 89.3189L549.152 113.787C549.201 115.346 548.833 116.044 547.855 116.427C546.847 116.84 545.079 116.911 542.529 116.97C542.36 116.343 541.967 115.332 541.646 114.68C543.598 114.695 545.546 114.62 546.086 114.607C546.655 114.564 546.83 114.41 546.813 113.87L546.036 89.3728ZM546.031 96.7846L547.865 97.8226C545.813 103.151 541.68 109.097 537.64 112.341C537.262 111.75 536.547 110.986 535.963 110.549C539.953 107.667 544.093 101.9 546.031 96.7846ZM524.765 96.2538L536.132 95.9922L536.2 98.1511L524.833 98.4127L524.765 96.2538ZM529.569 89.6918L531.818 89.64L532.692 117.196L530.443 117.248L529.569 89.6918ZM529.695 97.4606L531.303 97.9937C530.228 102.91 527.954 108.813 525.471 111.901C525.21 111.247 524.581 110.331 524.144 109.801C526.487 107.047 528.785 101.893 529.695 97.4606ZM531.901 98.8802C532.888 99.7276 536.403 103.608 537.183 104.55L535.805 106.532C534.795 104.965 531.887 101.281 530.768 100.047L531.901 98.8802Z" fill="#492300"/>
<path d="M250.485 166.296L287.276 165.45L287.406 169.568L250.616 170.414L250.485 166.296ZM306.28 148.889L310.423 149.553C309.206 156.623 306.9 163.398 303.956 167.746C303.096 167.126 301.182 166.09 300.129 165.674C303.166 161.763 305.245 155.394 306.28 148.889ZM306.53 155.524L323.246 155.14L323.365 158.898L304.89 159.323L306.53 155.524ZM322.046 155.167L322.606 155.154L323.359 154.937L326.168 156.433C325.298 160.534 323.674 164.852 322.325 167.764C321.512 167.342 319.968 166.618 319.077 166.278C320.197 163.732 321.617 159.298 322.074 156.047L322.046 155.167ZM314.566 164.101C316.522 172.778 320.495 179.448 328.098 181.954C327.282 182.733 326.172 184.319 325.685 185.37C317.578 182.116 313.586 174.846 311.343 164.696L314.566 164.101ZM310.691 160.55L314.73 160.457L314.841 163.935C315.047 170.452 314.147 179.915 302.144 186.312C301.514 185.367 300.11 183.999 299.207 183.299C310.272 177.603 310.974 169.465 310.798 163.908L310.691 160.55ZM291.196 155.317L301.994 155.069L302.11 158.747L291.313 158.995L291.196 155.317ZM290.874 171.648L303.591 171.356L303.71 175.114L290.993 175.406L290.874 171.648ZM346.914 161.997L350.873 161.905L351.46 180.416C351.533 182.735 351.008 183.827 349.267 184.467C347.526 185.068 344.769 185.211 340.809 185.262C340.574 184.187 339.801 182.525 339.169 181.499C342.292 181.547 345.449 181.435 346.368 181.374C347.248 181.353 347.52 181.107 347.498 180.427L346.914 161.997ZM332.208 151.293L360.68 150.637L360.798 154.355L332.326 155.011L332.208 151.293ZM359.561 150.663L360.6 150.639L361.433 150.38L364.503 152.55C360.719 156.918 354.829 161.734 349.518 164.617C348.933 163.83 347.694 162.619 346.914 161.997C351.674 159.406 357.171 154.799 359.59 151.582L359.561 150.663ZM374.226 157.567L385.583 157.306L385.673 160.144L374.316 160.406L374.226 157.567ZM374.438 164.244L385.795 163.982L385.882 166.741L374.525 167.002L374.438 164.244ZM374.655 171.08L386.012 170.819L386.103 173.697L374.746 173.959L374.655 171.08ZM391.658 165.888L406.814 165.539L406.917 168.777L391.761 169.126L391.658 165.888ZM376.057 150.923L382.535 150.774L382.627 153.693L376.149 153.842L376.057 150.923ZM388.363 149.04L403.679 148.687L403.779 151.846L388.463 152.198L388.363 149.04ZM388.859 173.514L407.774 173.079L407.879 176.397L388.964 176.832L388.859 173.514ZM396.534 161.895L400.133 161.812L400.828 183.721L397.229 183.804L396.534 161.895ZM378.951 158.899L381.55 158.839L381.968 172.032L379.369 172.092L378.951 158.899ZM402.559 148.713L405.958 148.635C405.958 148.635 405.946 149.515 405.92 149.956C405.888 156.518 405.612 159.165 404.763 160.185C404.226 160.917 403.517 161.254 402.52 161.357C401.684 161.496 400.044 161.534 398.402 161.492C398.292 160.534 397.931 159.262 397.425 158.433C398.908 158.519 400.189 158.53 400.749 158.517C401.269 158.505 401.587 158.458 401.856 158.091C402.318 157.521 402.527 155.275 402.574 149.193L402.559 148.713ZM391.265 162.336L394.485 162.902C393.802 166.599 392.559 170.308 391.034 172.704C390.38 172.279 388.918 171.592 388.106 171.251C389.716 169.013 390.771 165.668 391.265 162.336ZM375.46 147.256L378.923 147.937C377.617 153.448 375.344 158.742 372.573 162.206C371.994 161.619 370.517 160.493 369.742 160.031C372.445 156.928 374.455 152.161 375.46 147.256ZM372.787 157.6L375.866 157.529L376.202 168.124C376.36 173.121 376.1 180.049 373.361 184.553C372.786 184.086 371.359 183.239 370.629 182.936C373.215 178.675 373.266 172.713 373.123 168.195L372.787 157.6ZM384.544 157.33L387.703 157.257L388.433 180.285C388.485 181.924 388.157 182.932 387.095 183.517C385.993 184.102 384.355 184.18 381.715 184.241C381.567 183.364 380.962 181.938 380.494 181.068C382.336 181.106 384.056 181.066 384.574 181.014C385.094 181.002 385.289 180.838 385.273 180.318L384.544 157.33ZM393.714 149.957L397.113 149.879C396.693 155.57 395.277 160.123 389.6 162.814C389.175 162.024 388.257 160.845 387.479 160.303C392.293 158.151 393.335 154.407 393.714 149.957ZM381.615 150.795L382.375 150.778L382.85 150.607L385.093 151.956C384.294 154.495 382.87 157.568 381.732 159.515C381.076 159.05 379.976 158.435 379.287 158.131C380.189 156.31 381.176 153.366 381.634 151.395L381.615 150.795ZM420.524 148.62L446.117 148.031L446.206 150.829L420.613 151.418L420.524 148.62ZM421.725 153.673L445.159 153.134L445.242 155.773L421.809 156.312L421.725 153.673ZM419.608 158.843L447.28 158.206L447.369 161.005L419.697 161.642L419.608 158.843ZM426.252 168.973L441.888 168.613L441.969 171.171L426.333 171.531L426.252 168.973ZM440.398 163.286L444.277 163.196L444.777 178.948C444.835 180.788 444.463 181.676 443.201 182.266C441.898 182.816 439.979 182.86 437.219 182.923C436.989 181.968 436.466 180.62 435.957 179.712C437.719 179.751 439.678 179.706 440.198 179.694C440.757 179.641 440.912 179.478 440.897 178.998L440.398 163.286ZM431.327 146.011L435.086 145.924L435.555 160.717L431.796 160.803L431.327 146.011ZM426.418 174.21L442.014 173.851L442.096 176.45L426.5 176.809L426.418 174.21ZM423.443 163.676L427.202 163.589L427.433 170.866C427.557 174.784 427.203 180.033 424.512 183.496C423.928 182.749 422.322 181.346 421.507 180.884C423.695 177.953 423.771 174.031 423.672 170.912L423.443 163.676ZM425.522 163.628L441.718 163.255L441.804 165.974L425.608 166.347L425.522 163.628ZM411.554 149.706L413.671 147.057C415.713 148.33 418.614 150.224 420.052 151.391L417.868 154.442C416.466 153.154 413.601 151.14 411.554 149.706ZM409.825 160.789L411.613 157.867C413.767 158.898 416.901 160.546 418.453 161.55L416.636 164.833C415.121 163.747 412.024 161.978 409.825 160.789ZM411.461 180.836C413.242 177.674 415.756 172.415 417.61 167.771L420.396 169.827C418.731 174.107 416.488 179.079 414.568 182.885L411.461 180.836ZM451.879 163.141L483.271 162.419L483.38 165.857L451.988 166.58L451.879 163.141ZM469.07 170.187L481.587 169.899L481.694 173.258L469.177 173.546L469.07 170.187ZM482.391 162.439L482.991 162.425L483.586 162.252L486.445 162.826C485.639 165.165 484.563 167.83 483.615 169.493L480.232 168.81C480.985 167.313 481.908 164.891 482.406 162.919L482.391 162.439ZM460.648 170.861C462.81 177.213 467.486 178.266 474.765 178.138C476.645 178.095 485.482 177.892 487.999 177.754C487.466 178.606 486.918 180.259 486.792 181.342L474.675 181.621C465.478 181.833 460.545 180.226 457.442 171.975L460.648 170.861ZM457.636 168.01L461.555 167.92C460.977 173.655 459.434 179.291 453.139 182.677C452.67 181.768 451.547 180.433 450.687 179.813C456.083 177.088 457.173 172.342 457.636 168.01ZM466.717 164.12L470.596 164.031L471.109 180.223L467.198 179.273L466.717 164.12ZM451.154 149.115L467.11 148.748L467.211 151.946L451.256 152.313L451.154 149.115ZM457.722 145.483L461.441 145.397L461.956 161.629L458.237 161.715L457.722 145.483ZM468.63 148.713L485.665 148.321L485.766 151.519L468.731 151.911L468.63 148.713ZM474.996 145.045L478.675 144.961L479.189 161.153L475.51 161.237L474.996 145.045ZM461.444 151.799C462.584 152.413 466.544 154.882 467.447 155.582L465.537 158.466C464.496 157.17 461.404 154.32 460.009 153.232L461.444 151.799ZM457.837 150.361L460.145 151.229C458.54 154.866 455.506 158.897 452.734 161.081C452.148 160.255 450.99 159.081 450.211 158.499C453.078 156.792 456.214 153.44 457.837 150.361ZM474.992 149.967L477.26 150.795C475.617 154.513 472.542 158.505 469.568 160.654C468.982 159.827 467.863 158.613 467.084 158.03C470.113 156.36 473.329 153.046 474.992 149.967ZM478.473 151.207C480.066 152.21 485.597 156.284 486.831 157.336L484.882 160.221C483.345 158.456 478.891 154.278 476.92 152.723L478.473 151.207ZM504.259 166.777C500.7 166.859 498.783 163.222 496.264 163.28C494.984 163.31 493.893 164.215 492.951 166.077L490.414 164.295C492.117 161.215 494.198 159.967 496.238 159.92C499.837 159.837 501.753 163.474 504.232 163.417C505.512 163.387 506.605 162.522 507.546 160.66L510.124 162.441C508.38 165.482 506.298 166.73 504.259 166.777Z" fill="#BB6B25"/>
</g>
<defs>
<clipPath id="clip0_462_14331">
<rect width="677.29" height="270.98" fill="white"/>
</clipPath>
</defs>
</svg>
