<svg width="26" height="25" viewBox="0 0 26 25" fill="none" xmlns="http://www.w3.org/2000/svg">
<path d="M21.5 23.6667C22.4389 23.6667 23.2 22.9055 23.2 21.9667C23.2 21.0278 22.4389 20.2667 21.5 20.2667C20.5612 20.2667 19.8 21.0278 19.8 21.9667C19.8 22.9055 20.5612 23.6667 21.5 23.6667Z" stroke="#DDA25F" stroke-width="1.7" stroke-linecap="round" stroke-linejoin="round"/>
<path d="M10.1667 23.6667C11.1055 23.6667 11.8667 22.9055 11.8667 21.9667C11.8667 21.0278 11.1055 20.2667 10.1667 20.2667C9.22779 20.2667 8.46667 21.0278 8.46667 21.9667C8.46667 22.9055 9.22779 23.6667 10.1667 23.6667Z" stroke="#DDA25F" stroke-width="1.7" stroke-linecap="round" stroke-linejoin="round"/>
<path d="M5.06662 3.26667H24.3333L22.0666 15.7333H7.33329L5.06662 3.26667ZM5.06662 3.26667C4.87773 2.51111 3.93329 1 1.66663 1" stroke="#DDA25F" stroke-width="1.7" stroke-linecap="round" stroke-linejoin="round"/>
<path d="M22.0666 15.7333H7.33327H5.32815C3.30593 15.7333 2.23328 16.6187 2.23328 18C2.23328 19.3813 3.30593 20.2666 5.32815 20.2666H21.4999" stroke="#DDA25F" stroke-width="1.7" stroke-linecap="round" stroke-linejoin="round"/>
</svg>
