<?xml version="1.0" encoding="utf-8"?>
<!-- Generator: Adobe Illustrator 27.9.1, SVG Export Plug-In . SVG Version: 6.00 Build 0)  -->
<svg version="1.1" xmlns="http://www.w3.org/2000/svg" xmlns:xlink="http://www.w3.org/1999/xlink" x="0px" y="0px"
	 viewBox="0 0 684.26 1012.85" style="enable-background:new 0 0 684.26 1012.85;" xml:space="preserve">
<style type="text/css">
	.st0{fill:#BC6C25;}
	.st1{fill:#FFFFFF;}
</style>
<g id="背景_xA0_影像_00000005983519200249769600000000827717990742690453_">
</g>
<g id="圖層_4">
</g>
<g id="圖層_2_xA0_影像_00000129172792981016109300000011773951559897851025_">
</g>
<g id="圖層_1_xA0_影像_00000021814363635100106450000000413235976219080108_">
	<path class="st0" d="M627.46,419.17c1.31,1.95,2.74,3.83,3.9,5.87c3.6,6.31,4.84,12.89,1.7,19.79c-3.16,6.94-8.7,7.75-13.52,1.89
		c-3.43-4.17-5.11-9.19-6.04-14.42c-0.26-1.45,0.4-3.07,0.7-5.02c6.69,2.79,6.19,10.62,11.38,13.98c2.44-1.31,2.61-3.61,2.49-5.66
		c-0.4-6.62-3.46-11.81-9.33-15.03c-4.26-2.34-7.98-1.07-9.54,3.61c-1.12,3.36-1.29,7.03-1.91,10.69c1.69,0.66,2.77,1.09,3.98,1.56
		c-0.1,1.23,0.06,2.39-0.32,3.34c-3.16,7.8-6.86,14.74-15.13,19.01c-15.98,8.25-32.54,13.17-50.6,13.07
		c-12.15-0.07-22.47-4.24-30.33-13.43c-5.53-6.46-10.35-13.53-15.43-20.38c-5.3-7.14-10.35-14.48-15.83-21.47
		c-9.95-12.69-23.54-20.76-37.23-28.63c-3.93-2.26-7.96-4.36-11.98-6.47c-1.71-0.9-3.5-1.65-5.92-1.76c0.51,1,0.83,2.17,1.55,2.98
		c6.97,7.82,11.84,16.93,16.48,26.21c2.6,5.2,5.11,10.44,7.91,15.54c6.27,11.43,8.83,23.7,8.82,36.64
		c-0.01,13.34-0.06,13.49,10.5,21.72c8.59,6.7,17.18,13.47,26.33,19.33c8.91,5.71,18.81,9.47,29.68,9.65
		c8.33,0.14,16.77,1.07,24.96,0.06c17.8-2.18,33.13-10.3,46.38-22.24c5.8-5.22,11.27-10.81,16.88-16.24
		c3.52-3.4,6.04-4.96,11.64-6.8c-3.05,3.92-5.22,7.17-7.83,10.01c-10.71,11.69-22.36,22.38-35.67,31.04
		c-9.38,6.1-19.62,9.93-30.94,11.13c-11.71,1.24-23.37,1.05-34.58-2.03c-8.12-2.23-16.28-5.65-23.27-10.28
		c-10.25-6.78-19.48-15.1-29.14-22.77c-1.23-0.98-2.46-1.96-3.66-2.92c-0.55,0.6-0.97,0.84-1,1.12
		c-1.68,19.07-8.98,36.15-18.61,52.39c-1.57,2.66-3.26,5.24-4.85,7.89c-2.73,4.57-2.38,5.65,0.5,10.2
		c7.19,11.39,13.23,23.39,18.19,35.91c1.4,3.54,2.59,7.17,3.91,10.75c5.3,14.34,5.45,29.22,4.12,44.12
		c-1.05,11.74-2.4,23.51-4.53,35.1c-3.36,18.22-8.52,36-14.82,53.45c-3.27,9.04-6.35,18.17-9.01,27.41
		c-3.67,12.74-3.19,25.88-2.67,38.95c0.5,12.49,1.95,24.98,1.85,37.46c-0.25,30.18-5.71,59.51-16.18,87.88
		c-0.87,2.35-1.9,4.9-1.78,7.3c0.94,17.94-5.51,33.84-13.23,49.4c-3.4,6.85-7.31,13.37-12.93,18.73c-5.44,5.2-11.87,8.31-19.26,9.39
		c-14.05,2.04-25.92-9.18-24.76-23.33c0.64-7.87,3.92-14.71,8.6-20.87c5.27-6.94,10.72-13.74,16.29-20.44
		c2.59-3.12,4.42-6.09,2.69-10.31c-0.51-1.25-0.31-2.89-0.13-4.32c1.77-14.5,0-28.99-0.17-43.48c-0.17-14.53-0.38-29.06,0-43.58
		c0.5-19.54-0.89-38.79-6.28-57.66c-1.49-5.21-2.52-10.55-3.88-16.32c-0.59,0.93-1.05,1.45-1.29,2.05
		c-6.34,15.94-18.71,24.55-34.85,28.32c-19.16,4.46-37.14,1.78-53.48-9.66c-5.65-3.96-11.32-7.89-16.97-11.85
		c-8.28-5.79-17.52-9.52-27.02-12.68c-0.98-0.33-2.09-0.26-3.67-0.44c0.25,2.97,0.35,5.63,0.71,8.26c1.13,8.1,1.7,16.22,0.95,24.37
		c-0.21,2.33-0.55,4.71-1.26,6.93c-3.59,11.19-11.54,15.28-22.92,11.93c-13.12-3.85-22.85-16.48-22.68-30.67
		c0.1-8.49,1.35-16.98,2.37-25.43c0.81-6.65,1.63-13.36,3.22-19.85c2.3-9.36,7.57-16.52,17.48-19.02
		c6.88-1.74,13.64-1.37,20.19,1.76c1.52,0.73,3.47,1.02,5.15,0.86c9.61-0.92,19.17-1.16,28.78,0.18c7.64,1.07,15.35,1.73,23.5,2.62
		c-0.21-1.54-0.03-3.47-0.76-4.95c-4.23-8.64-5.07-18.16-6.85-27.35c-2.83-14.59-5.83-29.31-6.62-44.09
		c-1.59-29.69,3.49-58.29,18.9-84.35c3.78-6.4,7.83-12.64,12.03-19.4c-1.22-2.43-2.55-5.18-3.96-7.89
		c-5.36-10.3-10.95-20.5-16.08-30.92c-5.44-11.07-7.81-22.98-8.52-35.25c-0.07-1.26-0.19-2.52-0.37-3.77
		c-0.04-0.31-0.4-0.57-0.82-1.12c-0.69,0.41-1.54,0.7-2.11,1.28c-16.8,16.98-35.99,30.41-58.17,39.45
		c-6.19,2.52-12.75,3.23-19.24,3.21c-14.45-0.04-28.69-1.9-41.77-8.57c-6.29-3.2-12.36-6.92-18.18-10.92
		c-9.12-6.28-17.91-13.03-26.91-19.49c-2.79-2-5.74-3.8-8.74-5.49c-3.4-1.92-7.07-2.55-11.02-2.23
		c-11.57,0.93-23.14,2.07-34.73,2.38c-11.89,0.32-22.24-4.76-31.83-11.27c-4.82-3.28-5.9-7.12-4.37-12.47
		c-0.69-0.38-1.46-0.76-2.2-1.21c-3.58-2.21-4.58-4.61-3.63-8.7c1.04-4.48,3.13-6.67,7.2-6.95c2.51-0.17,5.17-0.19,7.57,0.44
		c9.54,2.53,19.32,3.18,29.07,4.15c1.52,0.15,3.01,0.54,4.49,1.76c-1.33,0.34-2.65,0.92-4,0.99c-10.33,0.59-20.66,1.41-30.92-0.88
		c-1.74-0.39-3.63-0.62-5.35-0.33c-0.99,0.16-2.13,1.37-2.53,2.38c-0.23,0.59,0.68,1.94,1.41,2.54c5.09,4.2,5.12,4.09,12.12,4.47
		c2.52,0.14,5.07,0.53,7.49,1.23c5.12,1.46,10.26,2.31,15.59,1.82c0.54-0.05,1.09-0.05,1.63,0c1.72,0.16,3.89-0.42,4.36,2.13
		c0.34,1.88-1.44,4.11-3.98,4.42c-5.97,0.71-11.96,0.86-17.82-0.95c-3.77-1.17-7.59-1.66-11.64-0.78c6.12,4,12.62,7.05,19.75,8.18
		c4.78,0.76,9.73,0.66,14.6,0.59c8.53-0.12,17.06-0.37,25.58-0.81c7.63-0.39,14.28,2.08,20.39,6.34c4.47,3.12,8.77,6.47,13.25,9.57
		c8.51,5.89,16.86,12.06,25.69,17.43c15.98,9.71,33.4,13.88,52.13,11.93c3.96-0.41,7.94-0.64,11.86-1.3
		c9.72-1.63,17.97-6.46,25.91-12.06c11.02-7.76,21.37-16.29,31.06-25.64c1.7-1.64,3.38-3.3,4.97-5.04
		c2.75-2.99,4.47-6.32,4.96-10.57c0.95-8.1,2.28-16.18,3.93-24.17c3.24-15.69,10.7-29.23,21.78-40.78c0.85-0.89,1.61-1.86,3.19-3.68
		c-2.24,0.48-3.4,0.59-4.46,0.98c-17.85,6.42-33.46,16.54-47.63,28.99c-5.72,5.03-11.55,9.99-16.85,15.45
		c-7.19,7.42-13.86,15.34-20.84,22.97c-2.81,3.08-5.65,6.19-8.81,8.89c-10.75,9.17-23.14,12.44-37.06,9.76
		c-4.46-0.86-8.96-1.51-13.37-2.55c-19.57-4.62-34.5-15.76-44.82-32.89c-5.43-9.02-12.26-16.12-22.44-19.56
		c-1.72-0.58-3.4-1.29-5.03-2.09c-6.31-3.1-11-7.6-12.57-14.77c-0.42-1.9-1.05-3.75-1.59-5.62c-3.07-0.13-4.12,1.49-4.15,3.63
		c-0.04,2.7,0.3,5.41,0.6,8.11c0.34,3.06,1.01,6.09,1.2,9.15c0.16,2.58-0.36,5.1-2.99,6.53l0.06,0.07c0.4-4.97-0.5-9.71-2.15-14.41
		c-1.45-4.12-2.43-8.37-1.32-12.81c1.05-4.22,3.59-6.53,7.46-6.71c3.66-0.17,6.56,1.44,7.38,5.85c1.93,10.33,8.5,15.94,17.65,19.64
		c8.17,3.3,13.72,9.33,18.81,16.6c17.01,24.29,40.12,37.51,70.46,35.21c9-0.68,17.22-4.19,23.27-11.56
		c2.18-2.66,4.62-5.12,7.04-7.57c17.93-18.25,35.27-37.13,56.08-52.29c8.27-6.02,17.28-10.67,26.97-13.96
		c9.79-3.33,19.66-6.42,29.36-9.98c6.09-2.24,6.32-3.16,5.45-10.41c-1.63-0.54-3.48-1.18-5.34-1.75
		c-49.68-15.16-78.39-48.83-87.88-99.51c-2.15-11.51-3.18-23-0.68-34.59c0.26-1.22,0.32-2.53,0.2-3.77
		c-0.69-7.03-1.87-14.04-2.12-21.09c-0.61-17.07,2.05-33.35,9.74-49.06c7.83-16,20.39-27.16,33.97-37.53
		c10.83-8.26,23.77-11.39,37.09-13.02c17.14-2.1,33.15,1.32,48.38,9.34c11.56,6.09,23.28,11.88,36.18,14.84
		c19.43,4.45,38.92,4.34,58.36,0.55c6.32-1.23,12.59-3.07,17.84-7.48c2.88-2.42,6.59-3.85,10.32-5.32
		c-0.46,5.11-3.23,8.74-6.66,11.92c-3.31,3.06-6.8,5.93-10.47,9.11c0.48,1.24,0.85,2.63,1.5,3.87c9.18,17.52,11.35,36.24,9.13,55.57
		c-0.7,6.08-0.29,11.91,0.96,17.81c2.84,13.35,5.06,26.89,4.59,40.49c-1.53,44.35-24.14,89.44-76.99,106.4
		c-2.22,0.71-4.44,1.41-6.67,2.12c-0.3,3.82,1.35,6.32,4.09,8.03c4,2.49,7.99,5.08,12.26,7.01c7.27,3.28,14.65,6.42,22.18,9.02
		c13.66,4.71,25.27,12.29,35.58,22.42c12.11,11.9,22.78,24.83,32.27,38.9c4.94,7.32,11.01,13.93,16.96,20.51
		c6.02,6.65,14.36,8.76,22.8,8.53c9.76-0.27,19.51-1.61,28.98-4.45c7.76-2.33,15-5.91,21.29-10.75c5.88-4.53,10.76-10.32,9.46-18.97
		c-0.42-2.81-0.17-5.84,0.36-8.67c1.63-8.66,8.65-11.88,16.39-7.72c1.75,0.94,3.44,1.99,5.16,2.99L627.46,419.17z M298.58,770.78
		c-3.12-1.9-2.15-4.56-2.61-6.71c-0.87-4.06-1.3-8.24-2.52-12.19c-1.16-3.77-3.34-7.22-4.6-10.97c-0.79-2.37-2.11-3.77-4.34-4.35
		c-5.59-1.47-11.16-3.09-16.82-4.18c-13.62-2.6-27.34-3.24-41.15-1.57c-8.1,0.98-12.4,6.98-10.59,14.89
		c1.06,4.65,2.47,5.94,7.2,6.83c15.73,2.96,30.31,8.67,43.32,18.13c4.55,3.31,9.19,6.49,13.75,9.8
		c14.01,10.18,29.58,13.34,46.47,10.17c17.02-3.19,29.24-12.34,34.88-29.14c1.55-4.63,3.02-9.38,3.68-14.2
		c1.46-10.58,3.11-21.21,3.32-31.85c0.26-12.85-1-25.72-1.39-38.58c-0.42-13.8-1.3-27.54-3.84-41.14c-0.55-2.96-1.53-5.38-4.07-7.29
		c-2.07-1.55-3.95-3.55-4.21-7.32c1.36,1.03,2.08,1.51,2.72,2.07c7.38,6.44,11.28,6.85,19.55,2.02c1.25-0.73,2.46-1.58,3.78-2.15
		c1.04-0.45,2.22-0.54,3.98-0.94c-1.79,4.75-5.07,7.09-8.6,8.83c-3.39,1.66-4.8,4.18-5.08,7.67c-0.19,2.35-0.67,4.72-0.49,7.04
		c0.55,7.05,1.8,14.07,1.98,21.12c0.34,13.59,0.48,27.21,0.06,40.79c-0.37,12.12-1.54,24.21-2.47,36.31
		c-0.35,4.5-1.06,8.97-1.55,13.46c-0.23,2.13-0.82,4.39-0.37,6.4c1.37,6.19,2.69,12.45,4.86,18.38c5.38,14.65,8.06,29.83,8.6,45.26
		c0.93,26.65,1.14,53.33,1.53,79.99c0.11,7.8-0.27,15.61-0.26,23.41c0.01,5.36,1.87,7.24,7.16,7.38c6.55,0.18,12.5-2,16.33-7.22
		c4.25-5.81,8.58-11.99,10.92-18.69c6.95-19.94,10.68-40.66,12.24-61.74c1.32-17.8-0.27-35.56-1.35-53.28
		c-0.6-9.87-0.02-19.54,1.2-29.24c1.68-13.29,6.89-25.52,11.58-37.91c5.66-14.94,11.58-29.85,14.25-45.67
		c1.9-11.24,2.9-22.64,4.16-33.98c1.35-12.14,1.06-24.28-0.91-36.34c-3.43-21-11.36-40.47-20.38-59.56
		c-0.12-0.25-0.6-0.33-1.21-0.65c-4,5.65-10.26,7.51-16.58,9.25c-10.05,2.77-20.41,3.47-30.72,3.8
		c-17.99,0.57-35.91-0.74-53.63-4.04c-9.52-1.77-18.72-4.52-26.83-10.08c-2.07-1.42-4.05-2.99-5.99-4.43
		c-0.37,0.24-0.58,0.3-0.66,0.43c-1.71,3.19-3.34,6.43-5.13,9.58c-13.38,23.51-20.2,48.78-21.01,75.82
		c-0.4,13.14,0.79,26.09,2.56,39.04c1.08,7.89,2.32,15.71,4.5,23.47c5.85,20.78,11.03,41.74,16.44,62.64
		C301.23,763.19,300.6,766.85,298.58,770.78z M461.85,127.59c-2.6,0.38-4.55,0.68-6.51,0.96c-19.04,2.74-37.99,2.55-56.82-1.66
		c-14.54-3.25-27.58-10.09-40.49-17.16c-23.27-12.75-47.16-12.92-71.48-3.59c-6.5,2.49-12.42,6.11-16.99,11.5
		c-6.92,8.17-13.76,16.41-20.46,24.75c-1.56,1.94-2.65,4.34-3.59,6.68c-6.98,17.44-8.07,35.63-6.48,54.1
		c0.49,5.76,2.26,11.56,1.87,17.23c-1.15,16.7,0.8,32.89,5.03,49.04c7.13,27.2,22.33,48.56,46.51,62.52
		c39.37,22.73,80.69,24.9,122.47,7.29c26.73-11.27,44.99-31.35,54.94-58.76c4.38-12.05,6.76-24.5,7.04-37.3
		c0.24-11.43,0.51-22.88-1.74-34.2c-2.31-11.62-2.95-23.36-2.68-35.2c0.1-4.51-0.58-9.05-0.99-13.56
		C470.46,148.86,466.2,138.46,461.85,127.59z M322.14,371.83c-4.29,0.08-7.23,1.2-9.74,3.51c-7.93,7.29-14.88,15.38-20.33,24.71
		c-9.67,16.59-12.23,35.08-14.28,53.7c-0.12,1.07-0.01,2.18,0.09,3.26c0.29,3.25,0.67,6.49,0.92,9.74
		c1.03,13.33,3.96,26.16,9.79,38.27c3.47,7.19,7.36,14.23,10.2,21.66c3,7.87,8.67,11.9,16.36,13.5c7.98,1.66,16.07,2.8,24.11,4.2
		c7.14,1.24,14.24,2.58,21.59,2.25c9.96-0.46,19.95-0.42,29.92-0.74c12-0.39,23.81-1.96,35.41-5.33
		c6.32-1.83,10.48-5.09,13.73-11.04c12.66-23.11,18.27-47.6,16.33-73.86c-0.74-10.05-2.76-19.72-7.27-28.84
		c-3.22-6.5-6.21-13.12-9.14-19.76c-5.05-11.42-11.99-21.51-20.62-30.51c-2.27-2.37-4.69-3.68-7.85-3.75
		c-0.2,0.48-0.46,0.8-0.45,1.12c0.03,0.71,0.11,1.45,0.31,2.13c3.28,11.47,3.95,23.2,3.57,35.05c-0.42,12.91-4.29,24.52-12.43,34.7
		c-16.29,20.38-43.73,23.91-64.56,8.26c-11.79-8.86-18.63-21.04-23.83-34.43c-4.75-12.23-4.3-24.11,1.88-35.74
		C317.87,380.07,319.84,376.23,322.14,371.83z M334.19,354.73c-0.34,1.27-0.64,1.94-0.69,2.62c-0.31,4.36-1.58,8.13-5.61,10.59
		c-1,0.61-1.76,1.86-2.26,2.97c-2.75,6.12-5.46,12.26-8.05,18.45c-2,4.79-2.75,9.92-2,14.97c3,20.16,11.95,36.93,29.78,47.7
		c10.46,6.32,22.11,7.63,33.5,2.73c15.32-6.59,25.2-18.27,28.29-34.84c3.12-16.73,1.14-33.25-3.47-49.51
		c-0.24-0.86-0.57-1.76-1.09-2.47c-3.27-4.47-6.6-8.9-10.27-13.82C373.53,358.12,353.89,357.88,334.19,354.73z M380.37,941.71
		c-6.29,8.74-12.4,16.86-18.06,25.28c-2.61,3.87-4.8,8.17-6.36,12.56c-1.72,4.84-1.95,10.02,0.7,14.79
		c3.35,6.02,10.53,8.93,17.85,7.42c7.89-1.63,14.03-6.12,18.56-12.48c10.05-14.11,16.24-29.92,19.36-46.92
		c0.29-1.57-0.27-3.29-0.51-5.68C401.72,943.84,391.98,948.76,380.37,941.71z M223.69,723.88c-9.17-1.65-17.44-0.77-23.87,6.56
		c-3.21,3.66-4.94,8.09-5.62,12.78c-2.01,13.97-4.1,27.94-3.82,42.12c0.2,10.18,7.24,19.43,16.87,22.35
		c9.23,2.8,14.85-0.58,16.58-10.02c0.26-1.42,0.49-2.89,0.42-4.32c-0.46-10.47-1.01-20.93-1.53-31.55
		c-5.98-1.49-9.61-5.07-11.29-10.78c-1.65-5.59-1.77-11.02,0.55-16.45C214.23,729.25,219.17,726.87,223.69,723.88z M433.38,542.53
		c-1.46,0.7-2.45,1.09-3.36,1.63c-8.3,4.94-17.44,7.03-26.93,7.8c-3.97,0.32-7.98,0.63-11.95,0.48c-3.65-0.14-5.9,1.02-6.68,4.71
		c-0.21,1.01-0.71,1.96-1.11,3.03c0.83,0.25,1.33,0.55,1.82,0.53c11.06-0.35,22.12-0.94,32.84-3.96c3.63-1.02,7.18-2.55,10.5-4.35
		C432.04,550.48,433.85,547.3,433.38,542.53z M356.45,551.47c-8.84-0.58-17.13-1.06-25.4-1.68c-8.3-0.63-16.63-1.27-24.06-5.66
		c-0.27-0.16-0.78,0.11-1.29,0.2c6.06,9.73,41.64,16.72,51.92,14.42C357.24,556.47,356.88,554.19,356.45,551.47z M378.87,552.79
		c-5.96-1.13-11.29-1.38-16.9-0.46c1.74,3.97,1.84,4.3,5.02,4.3C371.05,556.64,375.6,557.74,378.87,552.79z"/>
	<path class="st0" d="M135.63,181.2c5.29-3.05,10.56-6.15,15.88-9.14c6.96-3.91,14.02-7.64,20.94-11.63
		c18.26-10.53,32.11-25.32,41.83-43.98c6.62-12.72,12.83-25.66,19.69-38.24c10.6-19.44,23.69-37,41.34-50.71
		c17.61-13.68,37.31-22.16,59.77-23.84c22.73-1.7,43.57,4.01,62.61,16.14c20.71,13.19,36.97,30.86,49.92,51.64
		c1.01,1.62,1.79,3.38,1.97,5.54c-1.07-1.36-2.15-2.7-3.2-4.07c-12.82-16.86-27.24-32.05-44.93-43.96
		c-16-10.77-33.44-17.18-52.74-18.65c-22.25-1.69-42.33,4.6-60.93,16.24c-19.53,12.22-34.05,29.31-45.65,48.89
		c-6.01,10.13-11.05,20.84-16.57,31.26c-3.57,6.73-7.04,13.53-10.85,20.12c-9.4,16.23-22.35,28.93-38.7,38.14
		c-10.77,6.07-21.71,11.76-33.48,15.68c-2.03,0.68-4.11,1.23-6.17,1.84C136.11,182.04,135.87,181.62,135.63,181.2z"/>
	<path class="st0" d="M627.55,419.25c-1.33-10.79-2.69-21.57-3.95-32.36c-0.33-2.87-0.67-5.8-0.43-8.65
		c0.53-6.24,5.82-11,12.03-11.24c4.76-0.18,8.74,3.3,9.23,8.85c0.37,4.3,0.1,8.69-0.22,13.02c-0.39,5.2-1.13,10.37-1.77,16.08
		c1.87,0,3.07,0.07,4.25-0.01c5.58-0.41,10.81,0.81,15.79,3.28c1.46,0.72,2.92,1.74,4.46,1.92c5.28,0.61,7.56,4.1,8.39,8.67
		c1.55,8.5,1.21,16.97-1.53,25.25c-0.23,0.69-0.57,1.34-0.78,2.03c-4.05,13.37-13.62,20.05-26.94,22.06
		c-3.75,0.57-7.55,0.9-11.34,1.17c-0.95,0.07-1.96-0.53-4.21-1.2c2.34-0.93,3.52-1.48,4.74-1.87c5.01-1.59,10.12-2.91,15.03-4.76
		c7.73-2.91,12.83-8.33,15.6-16.31c2.38-6.84,3.34-13.71,2.93-20.85c-0.08-1.41-0.44-2.8-0.55-3.44c-2.66-1.21-4.75-1.97-6.65-3.06
		c-4.48-2.58-9.17-4.17-14.94-3.94c-0.3,5.73,2.3,10.25,4.63,14.84c0.99,1.94,2.2,3.71,5.06,3.93c1.38-4.75,0.34-9.36-0.02-14.31
		c2.66,0.88,3.07,2.93,3.63,4.71c0.59,1.89,1.17,3.88,1.23,5.84c0.1,3.37,1.24,5.91,4.43,7.03c0.42,4.27-2.75,5.38-4.84,6.91
		c-9.09-1.38-14.01-6.86-16.84-14.81c-1.76-4.94-3.75-9.82-5.85-14.63c-2.34-5.37-2.39-10.94-1.85-16.57
		c0.42-4.33,1.08-8.64,1.54-12.96c0.33-3.05,0.68-6.15-1.34-8.8c-5.23,0.25-7.74,2.25-7.92,6.91c-0.14,3.79,0.39,7.59,0.54,11.39
		c0.26,6.88,0.47,13.76,0.65,20.65c0.05,2.04-0.18,4.03-2.27,5.17C627.46,419.17,627.55,419.25,627.55,419.25z"/>
	<path class="st0" d="M610.3,191.76c-0.83,0.63-1.32,1.22-1.94,1.45c-14.1,5.39-27.92,6.3-41.03-2.76
		c-8.18-5.66-14.83-12.91-20.22-21.14c-8.15-12.44-15.74-25.26-23.64-37.87c-8.87-14.14-17.37-28.55-26.9-42.23
		c-5.66-8.13-12.63-15.47-19.67-22.5c-10.15-10.12-22.42-17.19-35.76-22.41c-2.01-0.79-4-1.6-5.81-3.31
		c1.57,0.35,3.18,0.61,4.72,1.07c19.44,5.9,35.58,16.87,49.28,31.76c14.86,16.16,26.24,34.7,37.49,53.38
		c6.84,11.35,13.83,22.61,21.13,33.67c3.58,5.43,7.81,10.49,12.1,15.4c10.78,12.32,24.33,17.2,40.57,14.53
		C603.73,190.3,606.97,189.66,610.3,191.76z"/>
	<path class="st0" d="M236.59,266.33c-3.99,4.53-8.52,1.73-12.74,1.29c-1.78,4.2-1.12,8.59,2.58,10.32
		c3.43,1.6,7.54,1.73,11.56,2.55c0.75,1.64-0.4,2.81-1.72,3.85c-3.14,2.47-7.57,2.64-11.26,0.5c-5.57-3.22-8.72-10.04-7.11-16.87
		c0.89-3.78,0.26-6.79-1.13-10.36c-2.7-6.95-7.18-12.47-11.76-18.13c-9.5-11.76-13.62-25.06-10.26-40.16
		c1.25-5.6,3.53-10.74,8.02-14.51c10.42-8.76,20.74-3.53,25.98,3.71c0.72,1,0.87,2.41,0.51,4.05c-1.82-1.42-3.55-2.97-5.47-4.23
		c-6.82-4.45-13.63-3.33-18.79,2.98c-4.16,5.09-5.1,11.15-4.96,17.41c0.2,9.03,3.16,17.12,9.35,23.77
		c6.06,6.51,12.54,12.67,14.81,21.76c2.18,0.16,3.89,0.29,6.17,0.46c-0.87,1.5-1.47,2.52-2.18,3.74
		C229.81,262.13,236.04,260.94,236.59,266.33z"/>
	<path class="st0" d="M472.8,309.29c3.91,0,7.81,0.12,11.71-0.02c21.6-0.8,39.78-9.46,54.57-24.89c8.9-9.29,16.97-19.37,25.46-29.05
		c2.96-3.37,6.08-6.61,10.02-9.35c-0.39,1.03-0.61,2.18-1.2,3.09c-11.26,17.48-23.79,33.84-40.32,46.8
		c-17,13.33-36.5,17.06-57.47,15.29c-0.98-0.08-1.92-0.58-2.89-0.88C472.74,309.94,472.77,309.62,472.8,309.29z"/>
	<path class="st0" d="M242,311.81c-2.25,1.95-4.74,1.53-7.21,1.07c-15.76-2.91-28.71-10.95-39.57-22.39
		c-13.49-14.2-23.38-30.88-32.06-48.32c-0.21-0.42-0.17-0.97-0.42-2.53c1.38,1.67,2.2,2.52,2.84,3.48
		c5.82,8.76,11.5,17.61,17.43,26.3c6.55,9.61,13.5,18.96,22.81,26.11c5.01,3.85,10.38,7.31,15.93,10.34
		C227.98,309.27,234.63,311.74,242,311.81z"/>
	<path class="st0" d="M61.82,415.82c-2.96,4.07-7.54,4.19-11.78,4.21c-6.87,0.04-13.75-0.59-20.62-0.96
		c-0.9-0.05-1.81-0.24-2.71-0.24c-4.05-0.01-8.15-0.06-9.19,5.62c-3.33-1.34-4.41-3.73-4.46-6.49c-0.05-2.93,2.37-4.18,4.71-4.42
		c4.09-0.42,8.28-0.67,12.35-0.24c7.37,0.79,14.66,2.33,22.03,3.14c3.19,0.35,6.49-0.34,9.73-0.56
		C61.88,415.9,61.82,415.82,61.82,415.82z"/>
	<path class="st0" d="M592.56,224.3c-5.68,7.39-12.69,13.29-20.78,17.88c-11.25,6.38-23.31,9.84-36.34,9.34
		c-4.1-0.16-8.18-0.62-12.36-3.98c20.59,4.2,37.61-2.31,53.53-12.92c5.25-3.5,10.18-7.47,15.26-11.22
		C592.09,223.69,592.32,224,592.56,224.3z"/>
	<path class="st0" d="M150.66,214.34c4.44,5.24,8.77,10.58,13.36,15.68c5.56,6.19,11.17,12.38,17.09,18.22
		c6.21,6.13,13.7,10.07,22.51,11.16c0.5,0.06,0.96,0.42,2.37,1.07c-1.7,0.22-2.59,0.54-3.43,0.42c-6.54-0.96-12.71-2.89-18.12-6.88
		c-14.36-10.6-24.45-24.93-34.9-38.95C149.9,214.83,150.28,214.59,150.66,214.34z"/>
	<path class="st0" d="M599.24,209.79c-0.5,0.96-0.55,1.21-0.67,1.26c-13.35,5.91-27.14,10.07-41.9,9.91
		c-5.27-0.06-10.28-1.4-14.41-5.19c11.38,5.08,22.64,2.59,33.87-0.19c6.32-1.56,12.59-3.37,18.89-5.03
		C596.19,210.24,597.42,210.11,599.24,209.79z"/>
	<path class="st0" d="M136.65,195.14c4.41,3.9,8.74,7.89,13.25,11.68c5.82,4.9,11.63,9.82,17.71,14.39
		c5.39,4.06,11.43,6.95,18.96,7.82c-5.86,1.09-10.46-0.74-14.72-3.11c-4.57-2.55-9.13-5.34-13.09-8.72
		c-7.3-6.22-14.18-12.95-21.21-19.49c-0.6-0.55-1.04-1.27-1.56-1.91C136.21,195.58,136.43,195.36,136.65,195.14z"/>
	<path class="st0" d="M64.03,437.01c-2.98-4.72-1.98-11.7,1.88-15.72C67.22,424.42,66.58,430.31,64.03,437.01z"/>
	<path class="st0" d="M413.34,782.13c-11.64,9.71-26.75,8.89-34.04-2.22c2.05,1.08,3.45,1.72,4.76,2.52
		c5.23,3.19,10.78,3.81,16.69,2.38C404.52,783.91,408.34,783.19,413.34,782.13z"/>
	<path class="st0" d="M326.15,281.88c-2.54,0.88-4.04,1.39-5.39,1.86c-2.01-1.46-1.78-2.93-0.59-4.38c1.11-1.34,2.3-2.64,3.57-3.83
		c0.22-0.21,1.13-0.01,1.5,0.29c6.68,5.34,14.93,6.13,22.83,7.76c4.24,0.88,8.67,0.79,12.97,1.45c2.6,0.4,5.1,1.46,7.67,2.14
		c1.16,0.31,2.45,0.78,3.56,0.56c5.15-0.99,10.21-2.57,15.4-3.22c7.83-0.98,13.68-4.4,17.13-11.63c0.72-1.5,1.58-2.96,4.33-2.2
		c0.63,1.79,1.38,3.92,2.29,6.52c-4.82,0.13-6.52,3.42-7.78,6.72c-2.42,6.32-6.64,11.17-11.62,15.51c-3.28,2.86-6.46,5.84-9.74,8.69
		c-6.72,5.82-14.44,6.05-21.88,2.43c-7.62-3.71-14.81-8.26-20.5-14.96C335.69,290.66,330.71,286.38,326.15,281.88z M339.3,287.33
		c7.33,7.52,17.03,13.34,25.08,15.49c3.78,1,7.65,1.51,11.04-0.71c3.38-2.21,6.39-4.98,9.57-7.5c-0.13-0.38-0.26-0.76-0.4-1.15
		C369.16,296.36,354.59,292.81,339.3,287.33z"/>
	<path class="st0" d="M344.33,254.68c1.34,1.58,2.26,2.67,3.2,3.76c1.66,1.94,3.8,2.89,6.29,2.34c5.48-1.21,10.8,0.03,16.11,0.99
		c5.03,0.91,9.31,0.45,12.41-4.24c0.56-0.85,2.02-1.12,3.06-1.65c0.5,1.23,1.45,2.48,1.41,3.7c-0.14,4.28-3.41,7.9-8.27,8.79
		c-2.79,0.51-5.75,0.35-8.61,0.13c-5.57-0.43-11.12-1.21-16.69-1.67c-5.44-0.45-9.73-4.7-9.93-10.23
		C343.29,256.17,343.76,255.72,344.33,254.68z"/>
	<path class="st0" d="M441.1,159.87c-2.58-0.6-5.22-1.03-7.74-1.85c-3.62-1.18-7.16-2.62-10.72-3.97
		c-4.86-1.84-9.88-2.12-15.02-1.81c-2.29,0.14-5.31,0.51-5.65-2.71c-0.3-2.83,2.61-3.16,4.61-3.7c4.42-1.19,9.06-2.03,13.41-0.29
		c6.04,2.4,11.93,5.21,17.7,8.22c1.74,0.91,2.85,3.02,4.25,4.59C441.66,158.85,441.38,159.36,441.1,159.87z"/>
	<path class="st0" d="M272.81,163.71c0.79-0.93,1.42-2.1,2.4-2.74c6.47-4.24,12.96-8.47,19.6-12.46c1.43-0.86,3.45-0.93,5.2-0.99
		c2.14-0.08,3.34,1.25,3.39,3.38c0.05,1.93-1.44,2.26-2.94,2.46c-7.53,1.01-13.97,4.59-20.32,8.47c-2.07,1.26-4.38,2.12-6.59,3.16
		C273.3,164.55,273.05,164.13,272.81,163.71z"/>
	<path class="st0" d="M363.05,246.98c0-5.09,0-10.18,0-15.27c0.18-0.01,0.35-0.03,0.53-0.04c0.39,5.14,0.79,10.28,1.18,15.42
		C364.19,247.05,363.62,247.02,363.05,246.98z"/>
	<path class="st1" d="M282.58,220.12c3.71,1.24,6.77,2.26,9.83,3.29c7.72,2.62,16.31-3.41,18.32-9.77c2.8-8.87,2.28-17.13-4-24.5
		c-0.33-0.38-0.52-0.88-1.29-2.19c7.41,0.35,13.64,1.87,18.8,6.49c0.84,0.75,1.16,2.21,1.45,3.41c3.95,16.57-6.74,32.67-23.56,35.55
		C294.2,233.77,286.82,229.3,282.58,220.12z"/>
	<path class="st1" d="M285.4,197.06c0.13-4.16,5.36-9.01,9.45-8.76c4.2,0.26,7.69,4.48,7.5,9.05c-0.21,4.76-4.77,9.1-9.24,8.78
		C289.16,205.86,285.27,201.29,285.4,197.06z"/>
	<path class="st0" d="M328.65,187.41c-4.52-10.36-14.75-15.98-26.06-14.78c-6.78,0.72-12.31,3.97-17.42,8.26
		c-4.87,4.09-7.7,3.71-11.99-1.1c-1.09-1.22-2.44-2.21-4.56-4.1c-0.94,6.12,2.41,9.07,5.08,12.35c-4.82,2.7-8.29-3.37-12.95-1.04
		c1.99,6.44,6.74,8.42,12.89,8.45c-2.39,15.68,2.07,28.67,13.25,38.95c0.07,2.08-2.24,3.84-0.01,5.75c1.2-1.38,2.23-2.57,3.18-3.66
		c4.82,0.75,1.46,7.08,5.99,8.02c0.35-2.06,0.66-3.96,0.99-5.92c2.08-0.21,3.93-0.17,5.64-0.63c2.94-0.78,5.13-0.23,7.21,2.16
		c1.27,1.45,3.34,2.2,5.05,3.26c0.32-0.42,0.64-0.85,0.95-1.27c-1.83-1.75-3.66-3.5-5.96-5.7c1.34-0.77,2.25-1.35,3.2-1.82
		C332.39,225.06,335.67,203.5,328.65,187.41z M294.85,188.31c4.2,0.26,7.69,4.48,7.5,9.05c-0.21,4.76-4.77,9.1-9.24,8.78
		c-3.95-0.28-7.84-4.85-7.71-9.07C285.53,192.9,290.76,188.06,294.85,188.31z M290.23,210.01c-4.28,2.28-4.28,2.28-5.51-3.05
		C287.09,208.27,288.44,209.01,290.23,210.01z M302.15,232.4c-7.95,1.36-15.33-3.11-19.56-12.28c3.71,1.24,6.77,2.26,9.83,3.29
		c7.72,2.62,16.31-3.41,18.32-9.77c2.8-8.87,2.28-17.13-4-24.5c-0.33-0.38-0.52-0.88-1.29-2.19c7.41,0.35,13.64,1.87,18.8,6.49
		c0.84,0.75,1.16,2.21,1.45,3.41C329.65,213.42,318.96,229.52,302.15,232.4z"/>
	<path class="st1" d="M284.72,206.95c2.37,1.32,3.72,2.06,5.51,3.05C285.96,212.28,285.96,212.28,284.72,206.95z"/>
	<path class="st1" d="M399.76,216.93c1.53,0.75,2.21,0.96,2.74,1.37c6.11,4.74,12.87,5.33,19.39,1.68
		c6.8-3.81,9.21-10.66,8.95-18.09c-0.12-3.49-1.83-6.93-2.88-10.37c-0.24-0.79-0.74-1.49-0.49-3.08c4.36,2.02,8.93,3.69,13,6.18
		c3.09,1.89,5.45,5.04,5.7,8.9c0.54,8.33-0.59,16.27-6.11,23.08c-2.79,3.45-6.35,5.48-10.63,6.01
		C417.93,234.03,405.49,228.94,399.76,216.93z"/>
	<path class="st1" d="M418.22,194.3c-0.18,5.65-4.87,11.12-9.38,10.94c-4.45-0.17-8.66-4.98-8.51-9.72c0.14-4.62,4.15-8.4,8.81-8.32
		C414.96,187.32,418.36,189.97,418.22,194.3z"/>
	<path class="st0" d="M457.82,180.61c-3.84,1.82-6.92,3.27-10.71,5.07c5.11-9.71,5.11-9.71,3.83-14.09
		c-2.37,3.64-4.56,7.01-6.77,10.42c-10.62-8.62-15.95-10.55-27.42-9.1c-15.75,1.99-26.78,12.85-24.95,30.92
		c1.32,13.04,7.69,23.25,18.83,30.35c1.2,0.77,2.39,1.56,3.55,2.32c0.31,2.71-1.67,5.45,0.38,7.77c0.45-0.05,0.73-0.02,0.77-0.1
		c0.99-2.06,1.95-4.13,2.95-6.28c2.79-0.71,4.41,0.43,5.25,3.16c0.49,1.6,0.82,3.51,3.3,4.01c0-2.19,0-4.11,0-6.18
		c3.19-0.94,6.26-1.85,9.02-2.66c2.34,1.1,3.04,3.93,6.26,4.06c-1.17-2.09-2.04-3.65-2.99-5.36c2.92-3.38,5.87-6.15,8.04-9.45
		c5.34-8.11,5.6-17.03,3.28-26.2c-0.7-2.76-1.36-5.52-1.99-8.06C452.14,188.03,457.08,186.8,457.82,180.61z M409.13,187.21
		c5.83,0.11,9.23,2.75,9.09,7.09c-0.18,5.65-4.87,11.12-9.38,10.94c-4.45-0.17-8.66-4.98-8.51-9.72
		C400.46,190.9,404.47,187.13,409.13,187.21z M410.36,211.57c-1.07,1.08-1.75,1.76-2.44,2.45c-0.75-0.87-1.58-1.7-2.17-2.68
		c-0.07-0.12,1.18-1.48,1.75-1.43C408.34,209.99,409.12,210.8,410.36,211.57z M440.06,226.61c-2.79,3.45-6.35,5.48-10.63,6.01
		c-11.5,1.41-23.95-3.68-29.67-15.68c1.53,0.75,2.21,0.96,2.74,1.37c6.11,4.74,12.87,5.33,19.39,1.68
		c6.8-3.81,9.21-10.66,8.95-18.09c-0.12-3.49-1.83-6.93-2.88-10.37c-0.24-0.79-0.74-1.49-0.49-3.08c4.36,2.02,8.93,3.69,13,6.18
		c3.09,1.89,5.45,5.04,5.7,8.9C446.71,211.86,445.58,219.8,440.06,226.61z"/>
	<path class="st1" d="M410.36,211.57c-1.07,1.08-1.75,1.76-2.44,2.45c-0.75-0.87-1.58-1.7-2.17-2.68c-0.07-0.12,1.18-1.48,1.75-1.43
		C408.34,209.99,409.12,210.8,410.36,211.57z"/>
	<path class="st0" d="M511.8,183.43c-7.03-10.73-17.99-11.03-28.23-5.6c-0.59,0.32-0.82,1.32-1.77,2.94
		c3.04-0.49,5.12-0.87,7.22-1.15c10.2-1.36,17.3,3.68,19.6,13.63c1.75,7.57,0.35,14.57-4.19,20.64c-4.86,6.5-8.41,13.92-10.34,21.81
		c-1.37,5.62-1.01,11.52-2.69,17.08c-0.14,0.46-0.29,0.92-0.44,1.38c-0.58-0.26-1.16-0.51-1.77-0.7c-1.49-0.46-3.11-0.63-4.61-0.21
		c0.19,0.67,0.84,1.07,1.42,1.44c1.35,0.89,2.53,1.98,3.64,3.15c-1.19,3.3-2.3,6.63-2.2,10.17c0.02,0.78,0.16,1.66,0.8,2.11
		c0.32,0.22,0.72,0.3,1.11,0.33c2.64,0.23,4-1.27,6-2.51c0.66,1.57,0.61,3.84,0.19,5.5c-0.46,1.84-1.75,3.52-2.84,5.16
		c-2.85,4.3-7.48,5.18-12.26,5.42c1.75,5.99,6.28,8.21,10.84,5.9c8.16-4.14,13.27-15.23,9.76-23.58
		c-2.34-5.55-2.63-10.63-1.14-16.17c0.37-1.39,0.46-2.86,0.61-4.3c0.9-8.47,3.78-16.12,8.64-23.19c2.44-3.54,4.41-7.56,5.8-11.64
		C518.24,201.44,517.44,192.03,511.8,183.43z"/>
</g>
</svg>
