<svg width="1505" height="690" viewBox="0 0 1505 690" fill="none" xmlns="http://www.w3.org/2000/svg">
<path d="M1305.38 685.14L1296.45 681.493L1287.89 686.686L1278.99 682.86L1270.28 684.264L1261.57 686.749L1252.76 684.058L1244.01 685.202L1235.25 684.541L1226.5 687.544L1217.75 682.735L1208.99 684.675L1200.21 686.311L1191.43 686.82L1182.72 684.46L1174.02 682.941L1165.11 686.516L1156.25 685.721L1147.3 684.845L1138.37 681.707L1129.41 682.351L1120.44 685.024L1111.5 682.807L1102.54 683.316L1093.58 683.129L1084.62 684.246L1075.68 682.816L1066.7 686.257L1057.76 683.075L1048.81 681.26L1039.84 683.522L1030.89 682.485L1021.93 685.068L1012.98 683.2L1004.01 686.096L995.062 684.04L986.113 683.844L977.155 682.95L968.187 686.159L959.239 685.175L950.28 683.71L941.322 683.28L932.374 682.521L923.406 686.141L914.458 683.987L905.499 682.548L896.531 685.569L887.583 683.415L878.625 685.935L869.667 682.842L860.708 683.897L851.75 683.057L842.802 680.992L833.834 682.825L824.866 685.765L815.907 684.818L806.939 685.041L797.981 683.978L788.883 681.815L779.785 683.111L770.686 682.011L761.588 683.191L752.49 682.851L743.402 680.42L734.304 680.679L725.205 680.527L716.097 684.514L706.999 684.612L697.911 683.987L688.803 685.533L679.725 680.76L670.616 685.417L661.518 683.388L652.43 681.672L643.322 684.729L634.234 683.486L625.135 681.234L616.047 681.922L606.949 680.974L597.851 681.564L588.753 682.333L579.655 685.238L570.566 681.85L561.468 684.308L552.38 684.344L543.272 683.155L534.174 683.477L525.075 680.733L515.987 683.325L506.889 681.198L497.801 683.307L488.703 682.476L479.595 680.983L470.506 681.189L461.438 683.298L452.36 684.791L443.242 683.459L434.204 685.461L425.135 685.533L415.907 682.485L406.849 683.754L398.011 685.551L388.993 684.907L380.134 687.66L371.066 684.845L362.138 686.615L353.17 687.526L344.182 685.81L335.203 683.879L326.235 686.954L317.267 687.634L308.289 687.562L299.341 683.96L290.372 684.139L281.364 688L272.426 684.586L263.468 683.888L254.51 683.325L245.471 687.777L236.553 684.273L227.525 687.401L218.577 685.98L209.608 685.613L200.66 683.558L191.692 683.245L182.724 683.263L173.706 685.604L164.747 684.559L155.809 682.083L146.801 683.406L137.783 686.203L128.545 685.989L119.327 684.568L110.178 681.368L100.9 682.977L91.6721 682.914L82.5039 682.011L72.9558 684.648L64.2276 680.313L55.5493 677.578L46.911 675.388L36.793 675.62L28.2648 671.66L23.9156 663.428L15.5973 659.263L10.0684 652.568L8.89862 644.139L5.96921 636.559L6.15917 628.452L3.93961 620.621L6.36913 612.568L5.5093 604.621L2 596.541L3.4897 588.559L3.80964 580.55L2.87982 572.478L7.94881 564.711L5.18936 556.541L7.15897 548.622L4.63947 540.47L8.33873 532.63L11.0682 524.747L7.64887 516.559L10.8882 508.684L7.42891 500.514L7.24895 492.496L11.788 484.648L9.05859 476.541L10.9882 468.577L11.968 460.586L12.6579 452.577L13.7377 444.577L9.0086 436.47L11.878 428.506L9.9984 420.461L13.0878 412.506L12.6479 404.479L10.8982 396.443L11.2681 388.434L14.4375 380.461L15.3873 372.461L11.7381 364.416L14.0276 356.407L14.9174 348.389L11.1882 340.425L12.9378 332.381L11.4281 324.443L13.1878 316.291L11.898 308.247L9.4985 300.229L10.6183 292.041L10.6583 283.907L8.95861 275.809L10.8282 267.648L8.56869 259.54L8.04879 251.406L10.5283 243.272L12.018 235.147L11.4881 227.013L11.1682 218.879L9.04859 210.727L11.1682 202.611L9.32853 194.45L9.0086 186.316L8.62868 178.173L11.7381 170.066L10.7882 161.914L8.4887 154.119L13.7077 146.888L11.908 138.754L14.9974 131.416L20.2264 125.132L27.7848 121.163L33.3637 115.38L40.2424 109.838L49.1106 108.292L58.2688 109.766L66.7571 105.842L75.6553 105.905L84.5235 105.413L93.5617 105.378L102.66 108.515L111.628 104.385L120.656 103.509L129.724 105.673L138.773 105.494L147.791 107.487L156.789 107.308L165.847 106.62L174.795 104.993L183.734 104.797L192.682 108.435L201.63 107.174L210.588 107.478L219.537 107.496L228.485 107.737L237.433 104.171L246.391 107.791L255.349 108.301L264.298 106.906L273.246 106.12L282.194 104.609L291.152 107.541L300.09 104.01L309.049 105.172L318.007 105.86L326.955 104.234L335.923 109.06L344.871 108.265L353.82 106.602L362.778 108.81L371.726 107.022L380.674 105.968L389.623 104.68L398.571 104.788L407.539 107.514L416.487 107.532L425.425 103.804L434.394 107.72L443.342 106.191L452.29 105.574L461.238 104.707L470.206 108.399L479.145 107.022L488.093 103.849L497.041 103.483L506.009 107.657L514.957 105.53L523.906 103.849L532.874 108.345L541.822 104.797L550.79 107.112L559.719 103.304L568.697 108.426L577.645 107.55L586.593 107.317L595.541 103.956L604.51 107.487L613.458 106.111L622.426 108.22L631.374 106.924L640.332 108.05L649.281 105.869L658.229 103.134L667.187 103.492L676.145 105.154L685.113 107.711L694.052 103.724L703.01 104.126L711.968 103.796L720.926 103.983L729.885 104.377L738.853 106.325L747.821 107.004L756.789 107.255L765.747 106.066L774.806 103L783.874 104.323L792.942 103.483L802 105.244L811.058 107.147L820.136 104.368L829.185 107.201L838.263 105.637L847.321 106.638L856.379 106.969L865.467 103.089L874.506 106.754L883.564 107.416L892.632 107.174L901.71 105.565L910.768 105.86L919.857 104.01L928.895 106.996L937.983 104.52L947.051 104.332L956.069 108.444L965.127 108.81L974.216 107.112L983.274 106.96L992.322 108.882L1001.43 104.296L1010.46 108.149L1019.55 105.306L1028.61 104.975L1037.66 107.523L1046.72 108.131L1055.79 108.461L1064.86 107.46L1073.93 106.942L1082.98 107.737L1092.05 105.387L1101.11 104.448L1110.18 108.077L1119.24 106.745L1128.31 107.836L1137.37 106.638L1146.41 104.216L1155.49 105.842L1164.54 104.377L1173.65 108.077L1182.97 103.992L1192.23 107.603L1201.55 107.317L1210.85 107.72L1220.18 107.362L1229.45 108.756L1238.73 110.035L1248.05 109.829L1257.46 106.853L1266.82 105.717L1276.12 106.477L1285.33 110.088L1294.67 108.917L1303.94 110.696L1312.75 110.473L1321.61 107.478L1330.35 109.936L1339.13 110.356L1347.99 107.63L1356.71 111.286L1365.58 108.327L1374.26 112.68L1383.15 108.998L1391.81 113.136L1400.76 109.042L1409.5 110.687L1418.22 112.457L1427.17 110.178L1435.67 114.2L1444.62 112.841L1453.34 114.003L1462.59 113.19L1470.51 117.632L1478.71 120.859L1486.7 125.069L1489.54 133.534L1492.85 140.73L1496.1 148.068L1497.24 155.997L1499.39 163.916L1497.3 172.041L1497.39 180.077L1498.58 188.131L1499.13 196.193L1497.36 204.247L1500.29 212.345L1499.09 220.399L1500.22 228.479L1498.79 236.533L1497.43 244.586L1500.2 252.685L1498.89 260.738L1499.1 268.819L1499.28 276.89L1498.77 284.953L1499.75 293.033L1497.57 301.087L1495.26 309.158L1496.44 317.239L1497.45 325.167L1496.52 333.087L1497.15 341.006L1496.81 348.926L1495.48 356.854L1495.49 364.783L1496.63 372.684L1497.79 380.595L1496.51 388.523L1498.61 396.425L1500.71 404.336L1501.65 412.47L1498.24 420.631L1499.89 428.765L1500.75 436.899L1501.99 445.033L1500.75 453.176L1501.67 461.319L1501.21 469.462L1498.16 477.641L1497.34 485.793L1499.51 493.918L1499.49 502.061L1497.35 510.222L1498.58 518.347L1502.98 526.454L1503 534.597L1502.02 542.749L1502.18 550.892L1501.22 559.044L1497.6 567.178L1501.41 575.33L1498.73 583.446L1501.57 591.634L1501.03 599.777L1500.85 607.938L1498.16 615.938L1496.37 623.92L1495.5 631.938L1492.66 639.535L1491 647.464L1488.06 655.517L1481.48 661.435L1471.94 663.16L1464.69 667.406L1456.94 671.625L1448.44 674.351L1439.11 673.475L1430.49 675.799L1421.45 675.602L1412.56 676.299L1403.71 677.506L1394.91 679.607L1385.89 679.151L1376.93 679.312L1368.04 680.831L1359.1 681.412L1350.19 682.798L1341.11 681.001L1332.3 684.371L1323.29 683.62L1314.26 682.753L1305.38 685.14Z" fill="#FFF8E4"/>
<path d="M1305.38 685.14L1296.45 681.493L1287.89 686.686L1278.99 682.86L1270.28 684.264L1261.57 686.749L1252.76 684.058L1244.01 685.202L1235.25 684.541L1226.5 687.544L1217.75 682.735L1208.99 684.675L1200.21 686.311L1191.43 686.82L1182.72 684.46L1174.02 682.941L1165.11 686.516L1156.25 685.721L1147.3 684.845L1138.37 681.707L1129.41 682.351L1120.44 685.024L1111.5 682.807L1102.54 683.316L1093.58 683.129L1084.62 684.246L1075.68 682.816L1066.7 686.257L1057.76 683.075L1048.81 681.26L1039.84 683.522L1030.89 682.485L1021.93 685.068L1012.98 683.2L1004.01 686.096L995.062 684.04L986.113 683.844L977.155 682.95L968.187 686.159L959.239 685.175L950.28 683.71L941.322 683.28L932.374 682.521L923.406 686.141L914.458 683.987L905.499 682.548L896.531 685.569L887.583 683.415L878.625 685.935L869.667 682.842L860.708 683.897L851.75 683.057L842.802 680.992L833.834 682.825L824.866 685.765L815.907 684.818L806.939 685.041L797.981 683.978L788.883 681.815L779.785 683.111L770.686 682.011L761.588 683.191L752.49 682.851L743.402 680.42L734.304 680.679L725.205 680.527L716.097 684.514L706.999 684.612L697.911 683.987L688.803 685.533L679.725 680.76L670.616 685.417L661.518 683.388L652.43 681.672L643.322 684.729L634.234 683.486L625.135 681.234L616.047 681.922L606.949 680.974L597.851 681.564L588.753 682.333L579.655 685.238L570.566 681.85L561.468 684.308L552.38 684.344L543.272 683.155L534.174 683.477L525.075 680.733L515.987 683.325L506.889 681.198L497.801 683.307L488.703 682.476L479.595 680.983L470.506 681.189L461.438 683.298L452.36 684.791L443.242 683.459L434.204 685.461L425.135 685.533L415.907 682.485L406.849 683.754L398.011 685.551L388.993 684.907L380.134 687.66L371.066 684.845L362.138 686.615L353.17 687.526L344.182 685.81L335.203 683.879L326.235 686.954L317.267 687.634L308.289 687.562L299.341 683.96L290.372 684.139L281.364 688L272.426 684.586L263.468 683.888L254.51 683.325L245.471 687.777L236.553 684.273L227.525 687.401L218.577 685.98L209.608 685.613L200.66 683.558L191.692 683.245L182.724 683.263L173.706 685.604L164.747 684.559L155.809 682.083L146.801 683.406L137.783 686.203L128.545 685.989L119.327 684.568L110.178 681.368L100.9 682.977L91.6721 682.914L82.5039 682.011L72.9558 684.648L64.2276 680.313L55.5493 677.578L46.911 675.388L36.793 675.62L28.2648 671.66L23.9156 663.428L15.5973 659.263L10.0684 652.568L8.89862 644.139L5.96921 636.559L6.15917 628.452L3.93961 620.621L6.36913 612.568L5.5093 604.621L2 596.541L3.4897 588.559L3.80964 580.55L2.87982 572.478L7.94881 564.711L5.18936 556.541L7.15897 548.622L4.63947 540.47L8.33873 532.63L11.0682 524.747L7.64887 516.559L10.8882 508.684L7.42891 500.514L7.24895 492.496L11.788 484.648L9.05859 476.541L10.9882 468.577L11.968 460.586L12.6579 452.577L13.7377 444.577L9.0086 436.47L11.878 428.506L9.9984 420.461L13.0878 412.506L12.6479 404.479L10.8982 396.443L11.2681 388.434L14.4375 380.461L15.3873 372.461L11.7381 364.416L14.0276 356.407L14.9174 348.389L11.1882 340.425L12.9378 332.381L11.4281 324.443L13.1878 316.291L11.898 308.247L9.4985 300.229L10.6183 292.041L10.6583 283.907L8.95861 275.809L10.8282 267.648L8.56869 259.54L8.04879 251.406L10.5283 243.272L12.018 235.147L11.4881 227.013L11.1682 218.879L9.04859 210.727L11.1682 202.611L9.32853 194.45L9.0086 186.316L8.62868 178.173L11.7381 170.066L10.7882 161.914L8.4887 154.119L13.7077 146.888L11.908 138.754L14.9974 131.416L20.2264 125.132L27.7848 121.163L33.3637 115.38L40.2424 109.838L49.1106 108.292L58.2688 109.766L66.7571 105.842L75.6553 105.905L84.5235 105.413L93.5617 105.378L102.66 108.515L111.628 104.385L120.656 103.509L129.724 105.673L138.773 105.494L147.791 107.487L156.789 107.308L165.847 106.62L174.795 104.993L183.734 104.797L192.682 108.435L201.63 107.174L210.588 107.478L219.537 107.496L228.485 107.737L237.433 104.171L246.391 107.791L255.349 108.301L264.298 106.906L273.246 106.12L282.194 104.609L291.152 107.541L300.09 104.01L309.049 105.172L318.007 105.86L326.955 104.234L335.923 109.06L344.871 108.265L353.82 106.602L362.778 108.81L371.726 107.022L380.674 105.968L389.623 104.68L398.571 104.788L407.539 107.514L416.487 107.532L425.425 103.804L434.394 107.72L443.342 106.191L452.29 105.574L461.238 104.707L470.206 108.399L479.145 107.022L488.093 103.849L497.041 103.483L506.009 107.657L514.957 105.53L523.906 103.849L532.874 108.345L541.822 104.797L550.79 107.112L559.719 103.304L568.697 108.426L577.645 107.55L586.593 107.317L595.541 103.956L604.51 107.487L613.458 106.111L622.426 108.22L631.374 106.924L640.332 108.05L649.281 105.869L658.229 103.134L667.187 103.492L676.145 105.154L685.113 107.711L694.052 103.724L703.01 104.126L711.968 103.796L720.926 103.983L729.885 104.377L738.853 106.325L747.821 107.004L756.789 107.255L765.747 106.066L774.806 103L783.874 104.323L792.942 103.483L802 105.244L811.058 107.147L820.136 104.368L829.185 107.201L838.263 105.637L847.321 106.638L856.379 106.969L865.467 103.089L874.506 106.754L883.564 107.416L892.632 107.174L901.71 105.565L910.768 105.86L919.857 104.01L928.895 106.996L937.983 104.52L947.051 104.332L956.069 108.444L965.127 108.81L974.216 107.112L983.274 106.96L992.322 108.882L1001.43 104.296L1010.46 108.149L1019.55 105.306L1028.61 104.975L1037.66 107.523L1046.72 108.131L1055.79 108.461L1064.86 107.46L1073.93 106.942L1082.98 107.737L1092.05 105.387L1101.11 104.448L1110.18 108.077L1119.24 106.745L1128.31 107.836L1137.37 106.638L1146.41 104.216L1155.49 105.842L1164.54 104.377L1173.65 108.077L1182.97 103.992L1192.23 107.603L1201.55 107.317L1210.85 107.72L1220.18 107.362L1229.45 108.756L1238.73 110.035L1248.05 109.829L1257.46 106.853L1266.82 105.717L1276.12 106.477L1285.33 110.088L1294.67 108.917L1303.94 110.696L1312.75 110.473L1321.61 107.478L1330.35 109.936L1339.13 110.356L1347.99 107.63L1356.71 111.286L1365.58 108.327L1374.26 112.68L1383.15 108.998L1391.81 113.136L1400.76 109.042L1409.5 110.687L1418.22 112.457L1427.17 110.178L1435.67 114.2L1444.62 112.841L1453.34 114.003L1462.59 113.19L1470.51 117.632L1478.71 120.859L1486.7 125.069L1489.54 133.534L1492.85 140.73L1496.1 148.068L1497.24 155.997L1499.39 163.916L1497.3 172.041L1497.39 180.077L1498.58 188.131L1499.13 196.193L1497.36 204.247L1500.29 212.345L1499.09 220.399L1500.22 228.479L1498.79 236.533L1497.43 244.586L1500.2 252.685L1498.89 260.738L1499.1 268.819L1499.28 276.89L1498.77 284.953L1499.75 293.033L1497.57 301.087L1495.26 309.158L1496.44 317.239L1497.45 325.167L1496.52 333.087L1497.15 341.006L1496.81 348.926L1495.48 356.854L1495.49 364.783L1496.63 372.684L1497.79 380.595L1496.51 388.523L1498.61 396.425L1500.71 404.336L1501.65 412.47L1498.24 420.631L1499.89 428.765L1500.75 436.899L1501.99 445.033L1500.75 453.176L1501.67 461.319L1501.21 469.462L1498.16 477.641L1497.34 485.793L1499.51 493.918L1499.49 502.061L1497.35 510.222L1498.58 518.347L1502.98 526.454L1503 534.597L1502.02 542.749L1502.18 550.892L1501.22 559.044L1497.6 567.178L1501.41 575.33L1498.73 583.446L1501.57 591.634L1501.03 599.777L1500.85 607.938L1498.16 615.938L1496.37 623.92L1495.5 631.938L1492.66 639.535L1491 647.464L1488.06 655.517L1481.48 661.435L1471.94 663.16L1464.69 667.406L1456.94 671.625L1448.44 674.351L1439.11 673.475L1430.49 675.799L1421.45 675.602L1412.56 676.299L1403.71 677.506L1394.91 679.607L1385.89 679.151L1376.93 679.312L1368.04 680.831L1359.1 681.412L1350.19 682.798L1341.11 681.001L1332.3 684.371L1323.29 683.62L1314.26 682.753L1305.38 685.14Z" stroke="#DDA15E" stroke-width="4" stroke-linecap="round" stroke-linejoin="round"/>
<path d="M1138.54 215.231C1138.54 211.205 1141.1 208.295 1139.44 204.282C1135.77 195.378 1120.82 190.975 1111.74 187.251C1107.22 185.397 1082.76 181.225 1082.53 175.781C1082.31 170.708 1080.3 166.42 1080.82 161.269C1081.24 157.12 1087.57 149.387 1083.13 145.541C1070.77 134.847 1052.57 129.386 1036.35 124.86C1030.56 123.246 1021.77 120.969 1017.88 116.345C1015.38 113.37 1017.48 103.208 1017.48 99.6609C1017.48 91.1491 1018.03 82.4004 1014.87 74.2008C1011.98 66.6896 994.673 62.9515 987.165 60.7322C975.469 57.2749 965.108 53.171 954.24 48.2194C943.543 43.346 947.004 29.0953 938.882 22.0641C931.836 15.9647 924.056 14.7957 914.891 11.5498C909.913 9.78713 893.038 7.60557 891 4.0769" stroke="#DDA25F" stroke-width="8" stroke-linecap="round"/>
</svg>
