<svg width="488" height="149" viewBox="0 0 488 149" fill="none" xmlns="http://www.w3.org/2000/svg">
<g clip-path="url(#clip0_376_19967)">
<path d="M67.1746 52.9529L61.8342 54.508L56.5408 56.1428L50.6816 56.1129L45.4355 57.9073L40.0007 59.1533L34.5305 60.2798L29.1546 61.6953L24.1089 64.0878L18.1907 63.8784L12.862 65.4435L7.43903 66.6796L2.35791 68.5537L7.72197 69.8695L13.4161 70.029L19.1103 70.2284L24.6866 71.0857L30.0978 72.7205L35.6387 73.6676L41.4743 73.3785L46.7912 75.2027L52.2378 76.4787L58.5804 77.964L64.2627 80.1471L65.536 79.868L65.866 84.4236L68.8841 88.1718L70.9472 92.2091L71.9492 96.6251L74.201 101.011L77.0657 105.118L79.8244 109.285L84.2335 112.495L87.6288 116.243L91.0712 120.191L95.6926 123.171L99.8895 126.79L105.36 128.704L110.794 130.528L115.935 132.97L121.428 134.695L127.37 135.203L132.581 137.735L138.346 138.712L143.934 140.248L149.675 141.284L155.676 140.975L161.252 142.76L166.84 143.737L172.676 143.069L178.228 144.355L183.864 145.092L189.629 144.674L195.217 145.91L200.958 145.421L206.64 145.76L212.334 145.66L217.993 146.308L223.676 146.667L229.37 146.279L235.052 146.418L240.746 146.797L246.452 147.006L252.111 145.92L257.793 145.8L263.523 146.727L269.158 145.581L274.899 146.368L280.605 146.269L286.229 145.322L291.935 145.262L297.511 144.145L303.205 143.986L308.852 143.428L314.487 143.168L320.075 142.56L325.51 141.055L331.051 140.148L336.722 140.058L342.392 139.978L347.827 138.483L353.333 137.466L358.956 137.097L364.462 136.041L370.05 135.532L375.65 135.014L381.108 133.778L386.814 133.768L392.154 132.043L397.754 131.455L403.201 130.259L408.824 129.741L414.176 128.225L419.753 127.498L425.353 126.78L430.587 124.946L435.845 123.221L441.515 122.523L446.856 120.919L451.513 118.048L456.535 115.934L461.286 113.422L465.707 110.551L470.918 108.478L475.35 105.437L477.814 100.971L481.398 97.293L483.155 92.7773L485.076 88.4609L485.642 83.8754L485.418 79.2998L485.336 74.7242L484.18 70.2384L482.683 65.8323L481.162 61.4062L478.793 57.2394L477.237 52.6838L473.959 48.9156L470.375 45.3668L467.051 41.7084L463.997 37.8306L459.671 34.6108L455.533 31.1816L449.992 29.5069L444.899 27.3935L439.877 25.1107L434.631 23.1768L429.125 21.8311L423.631 20.4853L418.362 18.4019L412.797 17.1658L406.95 17.0561L401.597 14.9029L395.726 15.0724L390.268 13.2581L384.515 12.9092L378.844 12.1217L372.997 12.4507L367.491 10.6165L361.785 10.128L356.08 9.49001L350.374 8.98161L344.656 8.46324L338.844 8.83208L333.126 8.33365L327.361 8.40343L321.738 8.01466L316.197 6.75862L310.514 6.91812L304.938 5.95117L299.362 5.11381L293.609 6.05085L288.08 4.56554L282.397 4.85463L276.75 4.63532L271.174 3.6584L265.492 4.12692L259.868 3.6285L254.221 3.6584L248.574 3.50887L242.974 2.67151L237.304 3.29953L231.704 2.01359L226.045 3.04035L220.41 2.21296L214.763 1.99365L209.14 3.1201L203.504 3.14004L197.857 3.08022L192.222 3.42912L186.658 4.3562L181.046 4.63532L175.375 4.59545L169.658 4.46585L164.353 6.58916L158.505 6.06082L153.353 8.49315L147.907 9.6495L142.106 9.75916L136.931 11.7529L131.791 13.7266L126.462 15.2518L121.346 17.2057L116.312 19.319L111.018 21.0336L106.043 23.3064L101.493 26.1475L96.3292 28.2409L92.5449 32.2881L87.6996 35.1391L82.8778 38.0599L78.5512 41.4791L75.0616 45.5662L70.2516 48.6266L67.1746 52.9529Z" fill="white"/>
<path d="M67.1746 52.9529L61.8342 54.508L56.5408 56.1428L50.6816 56.1129L45.4355 57.9073L40.0007 59.1533L34.5305 60.2798L29.1546 61.6953L24.1089 64.0878L18.1907 63.8784L12.862 65.4435L7.43903 66.6796L2.35791 68.5537L7.72197 69.8695L13.4161 70.029L19.1103 70.2284L24.6866 71.0857L30.0978 72.7205L35.6387 73.6676L41.4743 73.3785L46.7912 75.2027L52.2378 76.4787L58.5804 77.964L64.2627 80.1471L65.536 79.868L65.866 84.4236L68.8841 88.1718L70.9472 92.2091L71.9492 96.6251L74.201 101.011L77.0657 105.118L79.8244 109.285L84.2335 112.495L87.6288 116.243L91.0712 120.191L95.6926 123.171L99.8895 126.79L105.36 128.704L110.794 130.528L115.935 132.97L121.428 134.695L127.37 135.203L132.581 137.735L138.346 138.712L143.934 140.248L149.675 141.284L155.676 140.975L161.252 142.76L166.84 143.737L172.676 143.069L178.228 144.355L183.864 145.092L189.629 144.674L195.217 145.91L200.958 145.421L206.64 145.76L212.334 145.66L217.993 146.308L223.676 146.667L229.37 146.279L235.052 146.418L240.746 146.797L246.452 147.006L252.111 145.92L257.793 145.8L263.523 146.727L269.158 145.581L274.899 146.368L280.605 146.269L286.229 145.322L291.935 145.262L297.511 144.145L303.205 143.986L308.852 143.428L314.487 143.168L320.075 142.56L325.51 141.055L331.051 140.148L336.722 140.058L342.392 139.978L347.827 138.483L353.333 137.466L358.956 137.097L364.462 136.041L370.05 135.532L375.65 135.014L381.108 133.778L386.814 133.768L392.154 132.043L397.754 131.455L403.201 130.259L408.824 129.741L414.176 128.225L419.753 127.498L425.353 126.78L430.587 124.946L435.845 123.221L441.515 122.523L446.856 120.919L451.513 118.048L456.535 115.934L461.286 113.422L465.707 110.551L470.918 108.478L475.35 105.437L477.814 100.971L481.398 97.293L483.155 92.7773L485.076 88.4609L485.642 83.8754L485.418 79.2998L485.336 74.7242L484.18 70.2384L482.683 65.8323L481.162 61.4062L478.793 57.2394L477.237 52.6838L473.959 48.9156L470.375 45.3668L467.051 41.7084L463.997 37.8306L459.671 34.6108L455.533 31.1816L449.992 29.5069L444.899 27.3935L439.877 25.1107L434.631 23.1768L429.125 21.8311L423.631 20.4853L418.362 18.4019L412.797 17.1658L406.95 17.0561L401.597 14.9029L395.726 15.0724L390.268 13.2581L384.515 12.9092L378.844 12.1217L372.997 12.4507L367.491 10.6165L361.785 10.128L356.08 9.49001L350.374 8.98161L344.656 8.46324L338.844 8.83208L333.126 8.33365L327.361 8.40343L321.738 8.01466L316.197 6.75862L310.514 6.91812L304.938 5.95117L299.362 5.11381L293.609 6.05085L288.08 4.56554L282.397 4.85463L276.75 4.63532L271.174 3.6584L265.492 4.12692L259.868 3.6285L254.221 3.6584L248.574 3.50887L242.974 2.67151L237.304 3.29953L231.704 2.01359L226.045 3.04035L220.41 2.21296L214.763 1.99365L209.14 3.1201L203.504 3.14004L197.857 3.08022L192.222 3.42912L186.658 4.3562L181.046 4.63532L175.375 4.59545L169.658 4.46585L164.353 6.58916L158.505 6.06082L153.353 8.49315L147.907 9.6495L142.106 9.75916L136.931 11.7529L131.791 13.7266L126.462 15.2518L121.346 17.2057L116.312 19.319L111.018 21.0336L106.043 23.3064L101.493 26.1475L96.3292 28.2409L92.5449 32.2881L87.6996 35.1391L82.8778 38.0599L78.5512 41.4791L75.0616 45.5662L70.2516 48.6266L67.1746 52.9529Z" stroke="#DDA15E" stroke-width="4" stroke-linecap="round" stroke-linejoin="round"/>
<path d="M127.59 43.33H139.86V45.4H127.59V43.33ZM127.98 50.41H140.1V52.45H127.98V50.41ZM127.74 57.4H139.92V59.41H127.74V57.4ZM138.78 43.33H141.03C141.03 43.33 141.03 44.26 141.03 44.59C140.94 61.03 140.94 66.22 140.07 67.63C139.5 68.53 138.93 68.83 138.06 68.95C137.19 69.07 135.81 69.04 134.49 68.98C134.46 68.29 134.19 67.27 133.83 66.58C135.18 66.7 136.41 66.7 136.98 66.7C137.43 66.73 137.7 66.61 137.94 66.16C138.6 65.14 138.72 59.83 138.78 43.96V43.33ZM132.33 44.2H134.61C134.46 55.66 133.83 63.88 129.06 69.4C128.76 69.01 127.77 68.11 127.26 67.75C131.85 62.95 132.33 54.79 132.33 44.2ZM143.58 43.42H152.91V45.55H145.71V69.37H143.58V43.42ZM152.1 43.42H152.55L152.91 43.33L154.47 44.35C153.21 47.11 151.56 50.5 150.06 53.29C153.24 56.08 154.08 58.42 154.08 60.49C154.11 62.29 153.66 63.7 152.52 64.39C151.98 64.72 151.23 64.93 150.45 65.02C149.55 65.11 148.35 65.11 147.33 65.05C147.27 64.45 147.03 63.52 146.64 62.89C147.75 63.01 148.77 63.04 149.52 62.98C150.06 62.95 150.6 62.86 151.02 62.65C151.74 62.26 151.98 61.39 151.98 60.31C151.98 58.45 150.96 56.23 147.75 53.59C149.4 50.5 151.11 46.48 152.1 44.08V43.42ZM165.66 43.27H173.64V45.22H165.66V43.27ZM165.63 50.35H173.67V52.3H165.63V50.35ZM165.6 57.58H173.79V59.5H165.6V57.58ZM172.74 43.27H174.66C174.66 43.27 174.66 44.14 174.63 44.41C174.57 61.48 174.57 66.79 173.82 68.11C173.34 68.95 172.83 69.16 172.08 69.28C171.33 69.37 170.34 69.37 169.26 69.31C169.23 68.74 169.05 67.87 168.75 67.3C169.83 67.36 170.76 67.36 171.24 67.36C171.63 67.39 171.84 67.3 172.08 66.79C172.62 65.8 172.71 60.43 172.74 43.84V43.27ZM168.3 44.2H170.19V52.18C170.19 57.31 169.56 64.6 165.3 69.49C165.03 69.07 164.31 68.35 163.92 68.08C167.91 63.46 168.3 57.01 168.3 52.15V44.2ZM176.55 43.27H182.88V45.16H178.47V69.43H176.55V43.27ZM182.46 43.27H182.82L183.09 43.21L184.5 43.99C183.69 46.87 182.61 50.59 181.62 53.35C183.72 56.17 184.17 58.6 184.17 60.73C184.17 62.5 183.87 63.91 183.06 64.54C182.67 64.84 182.16 65.02 181.59 65.08C181.08 65.14 180.42 65.17 179.82 65.14C179.79 64.6 179.64 63.76 179.34 63.19C179.91 63.25 180.42 63.25 180.84 63.22C181.17 63.22 181.47 63.1 181.71 62.89C182.16 62.53 182.28 61.54 182.28 60.46C182.28 58.57 181.83 56.26 179.79 53.56C180.81 50.44 181.86 46.21 182.46 43.93V43.27ZM159.09 44.68H164.55V61.45H159.09V59.35H162.72V46.78H159.09V44.68ZM158.19 44.68H159.96V64.39H158.19V44.68ZM191.04 59.89H211.29V62.05H191.04V59.89ZM187.68 66.46H214.32V68.68H187.68V66.46ZM195 46.96H200.97V49H195V46.96ZM202.53 41.83H204.75V53.65C204.75 54.7 204.99 54.91 206.37 54.91C206.97 54.91 210.27 54.91 211.14 54.91C212.25 54.91 212.46 54.37 212.58 51.34C213.09 51.73 214.02 52.09 214.65 52.24C214.38 55.99 213.69 57.04 211.29 57.04C210.66 57.04 206.73 57.04 206.13 57.04C203.28 57.04 202.53 56.29 202.53 53.65V41.83ZM187.23 55.72C190.71 55.36 196.02 54.73 201.15 54.1L201.21 56.17C196.29 56.83 191.13 57.49 187.5 57.94L187.23 55.72ZM194.01 41.83H196.2V55.57L194.01 55.81V41.83ZM189.24 45.1H191.31V56.11L189.24 56.32V45.1ZM203.67 46.99H212.64V49.03H203.67V46.99ZM229.71 41.92H232.2C232.08 47.23 231.84 62.47 219.09 69.31C218.7 68.71 217.95 68.02 217.26 67.54C229.77 61.21 229.59 46.54 229.71 41.92ZM231.93 45.61C232.2 47.77 233.43 62.14 244.95 67.27C244.29 67.78 243.63 68.56 243.3 69.19C231.42 63.64 230.19 48.46 229.77 45.85L231.93 45.61ZM248.07 43.93H273.9V46.21H248.07V43.93ZM262.77 52.66L264.45 51.22C267.96 53.5 272.55 56.89 274.77 59.2L272.94 60.91C270.84 58.6 266.34 55.09 262.77 52.66ZM262.2 44.71L264.66 45.61C261.24 51.82 255.63 57.76 248.85 61.33C248.49 60.76 247.77 59.86 247.32 59.38C253.83 56.11 259.41 50.35 262.2 44.71ZM259.74 50.71L262.17 48.31V69.37H259.74V50.71ZM287.64 52.48H289.77V66.97C289.77 68.11 289.53 68.65 288.75 68.98C287.94 69.28 286.65 69.31 284.76 69.31C284.64 68.77 284.31 67.99 284.04 67.45C285.45 67.51 286.71 67.48 287.13 67.48C287.55 67.48 287.64 67.36 287.64 66.97V52.48ZM280.35 52.48H288.78V54.43H280.35V52.48ZM292.53 55.81H294.75V65.95C294.75 66.97 295.02 67.15 296.46 67.15C297.09 67.15 300.48 67.15 301.41 67.15C302.64 67.15 302.85 66.61 303 63.34C303.51 63.7 304.41 64.06 305.01 64.18C304.74 68.11 304.08 69.16 301.59 69.16C300.9 69.16 296.85 69.16 296.22 69.16C293.31 69.16 292.53 68.47 292.53 65.98V55.81ZM286.02 44.71L287.85 43.99C289.32 46.06 291.03 48.91 291.78 50.68L289.86 51.55C289.17 49.75 287.49 46.84 286.02 44.71ZM293.82 46H302.88V47.98H293.82V46ZM293.85 59.41H303.21V61.45H293.85V59.41ZM278.94 50.62C278.82 50.17 278.46 49.06 278.22 48.49C278.7 48.4 279.18 47.98 279.78 47.32C280.41 46.66 282.39 44.23 283.65 41.8L285.93 42.55C284.28 45.16 282.21 47.77 280.35 49.45V49.48C280.35 49.48 278.94 50.17 278.94 50.62ZM278.94 50.62L278.88 48.94L280.08 48.22L289.5 47.59C289.59 48.16 289.77 48.94 289.92 49.39C280.8 50.17 279.66 50.32 278.94 50.62ZM279.27 52.48H281.37V59.89C281.37 62.86 281.01 66.82 278.94 69.46C278.64 69.01 277.83 68.2 277.38 67.9C279.09 65.59 279.27 62.44 279.27 59.86V52.48ZM281.07 63.73C282.9 62.92 285.63 61.54 288.27 60.19L288.72 61.66C286.35 63.07 283.92 64.51 281.88 65.65L281.07 63.73ZM281.61 57.28L282.78 56.14C284.4 57.1 286.5 58.42 287.58 59.26L286.38 60.55C285.33 59.65 283.23 58.24 281.61 57.28ZM292.53 41.83H294.75V51.37C294.75 52.48 294.99 52.84 295.98 52.84C296.82 52.84 300.63 52.84 301.53 52.84C302.25 52.84 303.45 52.81 304.02 52.66C304.08 53.26 304.17 54.1 304.26 54.64C303.75 54.76 302.67 54.79 301.59 54.79C300.69 54.79 296.55 54.79 295.95 54.79C293.28 54.79 292.53 53.89 292.53 51.31V41.83ZM309.42 44.56H316.23V62.02H309.42V59.86H314.16V46.72H309.42V44.56ZM308.28 44.56H310.35V64.39H308.28V44.56ZM320.67 46.42H334.35V48.55H320.67V46.42ZM320.01 52.63H330.78V54.73H320.01V52.63ZM321.93 41.8L324.18 42.31C322.92 46.6 320.88 50.65 318.57 53.29C318.15 52.9 317.25 52.15 316.71 51.82C319.02 49.42 320.88 45.67 321.93 41.8ZM330.45 52.63H330.81L331.35 52.54L332.88 53.38C332.79 53.53 332.67 53.68 332.52 53.83C321.24 63.04 320.46 64.6 320.46 65.59C320.46 66.4 321.33 66.73 322.68 66.73H331.17C332.46 66.73 332.79 66.19 332.91 62.23C333.51 62.56 334.32 62.86 334.98 62.98C334.68 68.11 333.75 68.95 331.05 68.95H322.77C319.56 68.95 318.12 67.81 318.12 65.89C318.12 64.3 318.63 62.38 330.45 52.63ZM337.89 45.7H364.17V47.83H337.89V45.7ZM344.97 56.41H359.25V58.36H344.97V56.41ZM358.44 51.31H360.63V66.61C360.63 67.93 360.36 68.62 359.34 68.98C358.38 69.34 356.7 69.34 354.12 69.34C354.03 68.71 353.7 67.78 353.37 67.15C355.38 67.24 357.21 67.21 357.75 67.21C358.26 67.18 358.44 67.03 358.44 66.58V51.31ZM347.7 41.8L349.98 42.34C347.97 48.85 344.37 55.45 338.73 59.44C338.43 58.93 337.71 58.12 337.29 57.7C342.57 54.04 346.08 47.74 347.7 41.8ZM344.79 61.48H359.25V63.43H344.79V61.48ZM344.82 51.31H359.07V53.35H344.82V51.31ZM343.62 51.31H345.87V59.26C345.87 62.59 345.36 66.82 342.42 69.58C342.12 69.07 341.28 68.14 340.83 67.81C343.35 65.41 343.62 62.08 343.62 59.23V51.31ZM382.05 46.03H393.39V48.07H382.05V46.03ZM381.45 52.6H394.47V54.67H381.45V52.6ZM386.67 41.83H388.71V49.87C388.71 55.36 387.84 60.88 381.66 65.08C381.33 64.63 380.67 64.06 380.16 63.67C385.92 59.74 386.67 54.58 386.67 49.87V41.83ZM367.47 44.29H381.3V46.15H367.47V44.29ZM369.93 57.76C372.48 65.38 377.88 66.64 385.35 66.64C386.73 66.64 393.21 66.64 394.95 66.58C394.59 67.12 394.17 68.17 394.02 68.83H385.32C376.89 68.83 371.22 67.21 368.37 58.39L369.93 57.76ZM372.69 55.24L374.52 55.69C373.2 58.93 370.8 61.9 368.1 63.79C367.95 63.37 367.47 62.38 367.11 61.96C369.42 60.4 371.55 57.97 372.69 55.24ZM369.81 46.9L371.37 47.32C370.68 49.66 369.48 52.06 368.1 53.59C367.95 53.23 367.47 52.42 367.14 52.09C368.31 50.8 369.3 48.91 369.81 46.9ZM372.09 57.31H378.51V59.14H371.13L372.09 57.31ZM378 57.31H378.45L378.81 57.22L380.04 57.85C378 63.97 373.44 67.63 368.25 69.49C368.01 69.04 367.41 68.2 366.99 67.84C372 66.22 376.32 62.92 378 57.67V57.31ZM373.35 41.86H375.36V52.63H373.35V41.86ZM369.48 49.75L370.5 48.76C371.37 49.45 372.36 50.35 372.84 50.92L371.76 52.09C371.25 51.46 370.29 50.44 369.48 49.75ZM378.21 46.96L379.68 47.32C379.14 49.06 378.12 50.89 377.1 52.06C376.83 51.82 376.17 51.43 375.81 51.25C376.86 50.11 377.7 48.55 378.21 46.96ZM377.64 49.96L378.66 48.91C379.74 49.69 381.03 50.74 381.66 51.4L380.58 52.63C379.95 51.91 378.66 50.74 377.64 49.96ZM373.8 51.58L375.39 52.21C373.74 54.07 370.68 55.81 367.92 56.59C367.62 56.08 367.05 55.36 366.63 55C369.3 54.4 372.27 53.05 373.8 51.58ZM373.8 53.23L374.82 51.76C376.8 52.66 379.5 53.98 380.88 54.85L379.86 56.5C378.48 55.6 375.81 54.19 373.8 53.23ZM386.97 55.03L388.59 54.13C390.72 57.1 393.36 61.09 394.59 63.46L392.82 64.57C391.65 62.17 389.07 58.06 386.97 55.03ZM408.69 41.92L410.1 43.3C407.55 44.11 403.65 44.56 400.38 44.74C400.29 44.32 400.05 43.69 399.84 43.27C402.96 43.03 406.68 42.55 408.69 41.92ZM421.44 41.92L422.97 43.27C420.27 44.11 416.1 44.53 412.62 44.71C412.53 44.29 412.29 43.63 412.05 43.21C415.38 43 419.34 42.58 421.44 41.92ZM400.71 46.3H410.61V48.04H400.71V46.3ZM412.98 46.3H424.41V48.04H412.98V46.3ZM405.21 46.81H407.25V51.67H405.21V46.81ZM417.69 46.84H419.73V51.79H417.69V46.84ZM403.74 57.37V59.5H418.14V57.37H403.74ZM403.74 60.94V63.13H418.14V60.94H403.74ZM403.74 53.8V55.9H418.14V53.8H403.74ZM401.55 52.3H420.42V64.66H401.55V52.3ZM413.94 66.25L414.84 64.78C418.23 65.68 421.83 66.91 424.08 67.84L423 69.46C420.84 68.5 417.33 67.24 413.94 66.25ZM406.53 64.81L408.27 65.77C405.78 67.18 401.85 68.68 398.82 69.55C398.67 69.13 398.07 68.08 397.71 67.63C400.62 67 404.31 65.92 406.53 64.81ZM399.84 43.27H401.82V45.73C401.82 47.92 401.28 50.65 398.88 52.6C398.58 52.18 397.8 51.4 397.38 51.13C399.51 49.48 399.84 47.41 399.84 45.7V43.27ZM412.05 43.21H414V45.46C414 47.5 413.58 50.23 411.63 52.12C411.27 51.76 410.43 51.16 409.98 50.95C411.75 49.24 412.05 47.08 412.05 45.43V43.21ZM129.93 86.63H139.05V106.25H129.93V104.21H136.95V88.64H129.93V86.63ZM128.58 86.63H130.68V108.65H128.58V86.63ZM129.78 94.97H138.06V96.98H129.78V94.97ZM133.17 81.74L135.6 82.19C135 84.05 134.25 86.12 133.65 87.47L131.85 87.02C132.36 85.58 132.93 83.3 133.17 81.74ZM143.31 86.54H152.52V88.64H143.31V86.54ZM151.74 86.54H153.84C153.84 86.54 153.84 87.38 153.84 87.71C153.36 101.48 152.94 106.13 151.74 107.6C151.08 108.47 150.39 108.74 149.34 108.83C148.32 108.95 146.55 108.89 144.87 108.8C144.81 108.14 144.54 107.21 144.12 106.61C146.07 106.76 147.87 106.79 148.56 106.79C149.16 106.79 149.52 106.7 149.85 106.31C150.84 105.23 151.32 100.25 151.74 87.02V86.54ZM143.94 81.68L146.1 82.19C144.99 86.66 143.22 91.07 141.15 93.92C140.76 93.56 139.83 92.93 139.29 92.63C141.33 89.99 142.98 85.85 143.94 81.68ZM142.56 94.34L144.3 93.32C146.01 95.45 148.08 98.36 149.04 100.13L147.12 101.33C146.22 99.5 144.21 96.53 142.56 94.34ZM163.8 94.55H178.14V96.14H163.8V94.55ZM181.02 99.59L182.73 100.88C180.57 102.5 177.81 104.15 175.59 105.29L174.15 104.03C176.31 102.92 179.31 101 181.02 99.59ZM163.68 90.68H179.49V100.04H163.68V98.3H177.24V92.39H163.68V90.68ZM171.69 82.82C174.6 85.85 180.24 88.82 185.07 90.14C184.56 90.62 183.87 91.52 183.54 92.09C178.8 90.53 173.13 87.23 169.92 83.75L171.69 82.82ZM170.7 81.62L172.74 82.61C169.59 86.84 164.25 90.17 158.7 92.09C158.4 91.52 157.8 90.71 157.26 90.2C162.57 88.61 167.97 85.46 170.7 81.62ZM162.3 109.19C162.12 108.71 161.61 107.87 161.25 107.48C161.73 107.18 162.42 106.55 162.42 105.29V90.68H164.61V106.94C164.61 106.94 162.3 108.41 162.3 109.19ZM162.3 109.19L162.21 107.42L163.44 106.64L172.05 105.17C171.99 105.74 171.99 106.61 172.02 107.06C164.07 108.59 162.96 108.83 162.3 109.19ZM169.29 102.38L170.79 101.09C174.57 103.01 179.61 105.89 182.22 107.78L180.63 109.31C178.14 107.45 173.16 104.42 169.29 102.38ZM166.89 87.77H175.32V89.39H166.89V87.77ZM202.02 81.8L204.06 82.22C202.95 87.14 200.97 91.7 198.45 94.67C198.09 94.34 197.19 93.68 196.71 93.38C199.23 90.68 201 86.36 202.02 81.8ZM212.37 86.84H214.5C214.5 86.84 214.5 87.68 214.47 88.01C213.78 101.69 213.15 106.4 211.92 107.87C211.32 108.68 210.75 108.95 209.82 109.04C209.04 109.16 207.72 109.13 206.4 109.04C206.34 108.38 206.13 107.42 205.77 106.82C207.12 106.94 208.35 106.97 208.92 106.97C209.4 106.97 209.7 106.85 210.06 106.46C211.05 105.32 211.74 100.55 212.37 87.38V86.84ZM201.81 86.84H213.27V88.97H200.85L201.81 86.84ZM204.84 87.5L206.55 88.37C205.26 93.68 202.41 99.68 198.99 102.65C198.54 102.2 197.82 101.66 197.22 101.33C200.73 98.57 203.61 92.75 204.84 87.5ZM209.13 87.68L210.93 88.52C209.43 96.59 206.07 104.87 201.03 108.92C200.58 108.44 199.77 107.87 199.11 107.54C204.36 103.79 207.69 95.66 209.13 87.68ZM187.05 98.45C189.87 97.73 194.16 96.47 198.24 95.24L198.54 97.22C194.73 98.42 190.68 99.68 187.65 100.64L187.05 98.45ZM192.66 81.83H194.76V109.4H192.66V81.83ZM188.94 83.54L190.89 83.87C190.44 87.86 189.69 91.91 188.55 94.58C188.19 94.31 187.32 93.8 186.84 93.59C187.98 91.04 188.58 87.23 188.94 83.54ZM189.12 87.95H197.85V90.14H188.76L189.12 87.95ZM219.33 84.59H226.23V102.08H219.33V99.89H224.19V86.78H219.33V84.59ZM218.16 84.56H220.23V104.39H218.16V84.56ZM228.78 83.21H230.91V93.5C230.91 98.33 230.4 104.9 226.74 109.16C226.35 108.77 225.45 108.2 224.94 107.96C228.48 103.88 228.78 98 228.78 93.5V83.21ZM233.25 93.11H235.35V105.38C235.35 106.4 235.59 106.61 236.91 106.61C237.51 106.61 240.72 106.61 241.53 106.61C242.7 106.61 242.88 106.04 243 102.74C243.48 103.13 244.38 103.49 244.98 103.64C244.71 107.57 244.08 108.62 241.68 108.62C241.11 108.62 237.24 108.62 236.7 108.62C233.97 108.62 233.25 107.93 233.25 105.38V93.11ZM230.01 83.21H243.75V91.67H230.01V89.6H241.62V85.31H230.01V83.21ZM234.81 97.25H244.38V99.11H234.81V97.25ZM259.32 99.77C258.42 94.76 265.47 93.44 265.47 90.02C265.47 87.95 264 86.45 260.94 86.45C258.87 86.45 256.98 87.35 255.24 89.15L253.65 87.68C255.63 85.58 257.97 84.17 261.21 84.17C265.44 84.17 268.17 86.36 268.17 89.81C268.17 94.34 261 95.27 261.78 99.77H259.32ZM260.61 107.15C259.53 107.15 258.69 106.4 258.69 105.2C258.69 104 259.56 103.19 260.61 103.19C261.66 103.19 262.53 104 262.53 105.2C262.53 106.4 261.66 107.15 260.61 107.15Z" fill="#492300"/>
</g>
<defs>
<clipPath id="clip0_376_19967">
<rect width="488" height="149" fill="white"/>
</clipPath>
</defs>
</svg>
