<svg width="414" height="150" viewBox="0 0 414 150" fill="none" xmlns="http://www.w3.org/2000/svg">
<g clip-path="url(#clip0_462_14310)">
<path d="M56.98 53.12L52.45 54.68L47.96 56.32L42.99 56.29L38.54 58.09L33.93 59.34L29.29 60.47L24.73 61.89L20.45 64.29L15.43 64.08L10.91 65.65L6.31 66.89L2 68.77L6.55 70.09L11.38 70.25L16.21 70.45L20.94 71.31L25.53 72.95L30.23 73.9L35.18 73.61L39.69 75.44L44.31 76.72L49.69 78.21L54.51 80.4L55.59 80.12L55.87 84.69L58.43 88.45L60.18 92.5L61.03 96.93L62.94 101.33L65.37 105.45L67.71 109.63L71.45 112.85L74.33 116.61L77.25 120.57L81.17 123.56L84.73 127.19L89.37 129.11L93.98 130.94L98.34 133.39L103 135.12L108.04 135.63L112.46 138.17L117.35 139.15L122.09 140.69L126.96 141.73L132.05 141.42L136.78 143.21L141.52 144.19L146.47 143.52L151.18 144.81L155.96 145.55L160.85 145.13L165.59 146.37L170.46 145.88L175.28 146.22L180.11 146.12L184.91 146.77L189.73 147.13L194.56 146.74L199.38 146.88L204.21 147.26L209.05 147.47L213.85 146.38L218.67 146.26L223.53 147.19L228.31 146.04L233.18 146.83L238.02 146.73L242.79 145.78L247.63 145.72L252.36 144.6L257.19 144.44L261.98 143.88L266.76 143.62L271.5 143.01L276.11 141.5L280.81 140.59L285.62 140.5L290.43 140.42L295.04 138.92L299.71 137.9L304.48 137.53L309.15 136.47L313.89 135.96L318.64 135.44L323.27 134.2L328.11 134.19L332.64 132.46L337.39 131.87L342.01 130.67L346.78 130.15L351.32 128.63L356.05 127.9L360.8 127.18L365.24 125.34L369.7 123.61L374.51 122.91L379.04 121.3L382.99 118.42L387.25 116.3L391.28 113.78L395.03 110.9L399.45 108.82L403.21 105.77L405.3 101.29L408.34 97.6L409.83 93.07L411.46 88.74L411.94 84.14L411.75 79.55L411.68 74.96L410.7 70.46L409.43 66.04L408.14 61.6L406.13 57.42L404.81 52.85L402.03 49.07L398.99 45.51L396.17 41.84L393.58 37.95L389.91 34.72L386.4 31.28L381.7 29.6L377.38 27.48L373.12 25.19L368.67 23.25L364 21.9L359.34 20.55L354.87 18.46L350.15 17.22L345.19 17.11L340.65 14.95L335.67 15.12L331.04 13.3L326.16 12.95L321.35 12.16L316.39 12.49L311.72 10.65L306.88 10.16L302.04 9.52L297.2 9.01L292.35 8.49L287.42 8.86L282.57 8.36L277.68 8.43L272.91 8.04L268.21 6.78L263.39 6.94L258.66 5.97L253.93 5.13L249.05 6.07L244.36 4.58L239.54 4.87L234.75 4.65L230.02 3.67L225.2 4.14L220.43 3.64L215.64 3.67L210.85 3.52L206.1 2.68L201.29 3.31L196.54 2.02L191.74 3.05L186.96 2.22L182.17 2L177.4 3.13L172.62 3.15L167.83 3.09L163.05 3.44L158.33 4.37L153.57 4.65L148.76 4.61L143.91 4.48L139.41 6.61L134.45 6.08L130.08 8.52L125.46 9.68L120.54 9.79L116.15 11.79L111.79 13.77L107.27 15.3L102.93 17.26L98.66 19.38L94.17 21.1L89.95 23.38L86.09 26.23L81.71 28.33L78.5 32.39L74.39 35.25L70.3 38.18L66.63 41.61L63.67 45.71L59.59 48.78L56.98 53.12Z" fill="white"/>
<path d="M56.98 53.12L52.45 54.68L47.96 56.32L42.99 56.29L38.54 58.09L33.93 59.34L29.29 60.47L24.73 61.89L20.45 64.29L15.43 64.08L10.91 65.65L6.31 66.89L2 68.77L6.55 70.09L11.38 70.25L16.21 70.45L20.94 71.31L25.53 72.95L30.23 73.9L35.18 73.61L39.69 75.44L44.31 76.72L49.69 78.21L54.51 80.4L55.59 80.12L55.87 84.69L58.43 88.45L60.18 92.5L61.03 96.93L62.94 101.33L65.37 105.45L67.71 109.63L71.45 112.85L74.33 116.61L77.25 120.57L81.17 123.56L84.73 127.19L89.37 129.11L93.98 130.94L98.34 133.39L103 135.12L108.04 135.63L112.46 138.17L117.35 139.15L122.09 140.69L126.96 141.73L132.05 141.42L136.78 143.21L141.52 144.19L146.47 143.52L151.18 144.81L155.96 145.55L160.85 145.13L165.59 146.37L170.46 145.88L175.28 146.22L180.11 146.12L184.91 146.77L189.73 147.13L194.56 146.74L199.38 146.88L204.21 147.26L209.05 147.47L213.85 146.38L218.67 146.26L223.53 147.19L228.31 146.04L233.18 146.83L238.02 146.73L242.79 145.78L247.63 145.72L252.36 144.6L257.19 144.44L261.98 143.88L266.76 143.62L271.5 143.01L276.11 141.5L280.81 140.59L285.62 140.5L290.43 140.42L295.04 138.92L299.71 137.9L304.48 137.53L309.15 136.47L313.89 135.96L318.64 135.44L323.27 134.2L328.11 134.19L332.64 132.46L337.39 131.87L342.01 130.67L346.78 130.15L351.32 128.63L356.05 127.9L360.8 127.18L365.24 125.34L369.7 123.61L374.51 122.91L379.04 121.3L382.99 118.42L387.25 116.3L391.28 113.78L395.03 110.9L399.45 108.82L403.21 105.77L405.3 101.29L408.34 97.6L409.83 93.07L411.46 88.74L411.94 84.14L411.75 79.55L411.68 74.96L410.7 70.46L409.43 66.04L408.14 61.6L406.13 57.42L404.81 52.85L402.03 49.07L398.99 45.51L396.17 41.84L393.58 37.95L389.91 34.72L386.4 31.28L381.7 29.6L377.38 27.48L373.12 25.19L368.67 23.25L364 21.9L359.34 20.55L354.87 18.46L350.15 17.22L345.19 17.11L340.65 14.95L335.67 15.12L331.04 13.3L326.16 12.95L321.35 12.16L316.39 12.49L311.72 10.65L306.88 10.16L302.04 9.52L297.2 9.01L292.35 8.49L287.42 8.86L282.57 8.36L277.68 8.43L272.91 8.04L268.21 6.78L263.39 6.94L258.66 5.97L253.93 5.13L249.05 6.07L244.36 4.58L239.54 4.87L234.75 4.65L230.02 3.67L225.2 4.14L220.43 3.64L215.64 3.67L210.85 3.52L206.1 2.68L201.29 3.31L196.54 2.02L191.74 3.05L186.96 2.22L182.17 2L177.4 3.13L172.62 3.15L167.83 3.09L163.05 3.44L158.33 4.37L153.57 4.65L148.76 4.61L143.91 4.48L139.41 6.61L134.45 6.08L130.08 8.52L125.46 9.68L120.54 9.79L116.15 11.79L111.79 13.77L107.27 15.3L102.93 17.26L98.66 19.38L94.17 21.1L89.95 23.38L86.09 26.23L81.71 28.33L78.5 32.39L74.39 35.25L70.3 38.18L66.63 41.61L63.67 45.71L59.59 48.78L56.98 53.12Z" stroke="#DDA15E" stroke-width="4" stroke-linecap="round" stroke-linejoin="round"/>
<path d="M131.7 62.92L133.83 63.58C131.79 68.74 128.67 73.9 125.37 77.29C125.13 76.78 124.47 75.61 124.08 75.1C127.11 72.13 129.96 67.57 131.7 62.92ZM128.64 70.66L130.8 68.47L130.83 68.5V90.37H128.64V70.66ZM132.78 73.18H151.65V75.4H132.78V73.18ZM141.21 63.13H143.52V90.4H141.21V63.13ZM157.62 65.17H181.14V67.18H157.62V65.17ZM156.42 65.17H158.58V73.69C158.58 78.52 158.19 85.72 155.88 90.58C155.49 90.19 154.56 89.47 154.08 89.26C156.24 84.67 156.42 78.25 156.42 73.69V65.17ZM167.31 63.13L169.56 62.68C169.92 63.58 170.34 64.78 170.52 65.53L168.18 66.1C168.03 65.29 167.64 64.06 167.31 63.13ZM159.96 69.91H169.44V71.71H159.96V69.91ZM170.28 69.91H180.66V71.71H170.28V69.91ZM163.77 68.17H165.54V78.67H163.77V68.17ZM174.21 68.17H175.98V78.52H174.21V68.17ZM174.24 83.89L175.92 83.08C177.51 85.03 179.64 87.73 180.69 89.29L178.92 90.28C177.93 88.66 175.86 85.9 174.24 83.89ZM160.2 89.8L160.17 88.36L161.52 87.7L178.02 86.5C177.99 86.98 178.08 87.82 178.17 88.21C162.6 89.41 161.1 89.47 160.2 89.8ZM160.2 89.8C160.11 89.38 159.84 88.36 159.63 87.85C160.47 87.73 161.61 87.28 163.14 86.53C164.76 85.78 170.19 82.87 174.33 79.63L176.04 80.83C171.27 84.28 166.32 86.98 161.61 88.84V88.9C161.61 88.9 160.2 89.38 160.2 89.8ZM161.55 84.64V83.41L162.63 82.93L170.76 82.57C170.52 82.99 170.19 83.65 170.07 83.98C163.02 84.31 162.09 84.46 161.55 84.64ZM161.55 84.64C161.49 84.25 161.22 83.32 161.01 82.81C161.55 82.75 162.18 82.45 162.93 82.03C163.74 81.61 166.41 79.87 168.33 78.01L169.95 79C167.67 80.95 165.12 82.6 162.75 83.71V83.74C162.75 83.74 161.55 84.22 161.55 84.64ZM160.68 72.85H162.12V74.23C162.12 75.91 161.88 77.77 160.32 79.15C160.05 78.85 159.45 78.34 159.09 78.16C160.47 77.11 160.68 75.46 160.68 74.17V72.85ZM171.27 72.82H172.68V74.11C172.68 75.67 172.47 77.41 171.06 78.64C170.82 78.37 170.19 77.86 169.83 77.68C171.06 76.78 171.27 75.22 171.27 74.08V72.82ZM166.8 72.94H168.21V76C168.21 76.54 168.24 76.66 168.51 76.66C168.66 76.66 168.63 76.66 168.78 76.66C168.99 76.66 169.44 76.66 169.71 76.57C169.74 76.9 169.77 77.32 169.77 77.65C169.56 77.71 169.17 77.74 168.81 77.74C168.63 77.74 168.45 77.74 168.15 77.74C167.04 77.74 166.8 77.23 166.8 76V72.94ZM177.3 72.82H178.77V76.3C178.77 76.87 178.8 76.99 179.16 76.99C179.34 76.99 179.85 76.99 180.09 76.99C180.36 76.99 180.9 76.96 181.2 76.9C181.2 77.23 181.23 77.65 181.26 78.01C181.05 78.1 180.57 78.1 180.12 78.1C179.85 78.1 179.13 78.1 178.8 78.1C177.54 78.1 177.3 77.56 177.3 76.27V72.82ZM184.74 76.03H211.29V78.07H184.74V76.03ZM198.09 81.4H209.31V83.38H198.09V81.4ZM197.1 76.93H199.38V88.3H197.1V76.93ZM191.22 81.82C193.05 86.74 197.01 87.67 202.89 87.7C204.03 87.7 210.3 87.7 211.86 87.67C211.53 88.18 211.17 89.17 211.05 89.83H202.8C195.78 89.83 191.7 88.57 189.36 82.51L191.22 81.82ZM189.93 79.03L192.18 79.36C191.22 84.34 189.06 88.06 185.76 90.46C185.43 90.04 184.56 89.23 184.05 88.87C187.23 86.8 189.15 83.44 189.93 79.03ZM190.08 69.82V72.28H205.71V69.82H190.08ZM190.08 65.77V68.2H205.71V65.77H190.08ZM187.89 64.06H207.99V73.99H187.89V64.06ZM220.62 62.62L222.6 63.25C220.92 66.61 218.25 69.88 215.61 72.04C215.34 71.62 214.65 70.66 214.2 70.27C216.72 68.44 219.15 65.59 220.62 62.62ZM219.69 66.25H240.36V68.29H218.94L219.69 66.25ZM215.7 73.36H240.66V75.4H215.7V73.36ZM214.68 80.53H241.29V82.57H214.68V80.53ZM224.46 70.03H226.41V81.61H224.46V70.03ZM219.3 70.03H221.34V81.7H219.3V70.03ZM229.89 70.03H231.84V81.7H229.89V70.03ZM235.17 70.03H237.27V81.7H235.17V70.03ZM223.29 84.64L225.36 84.43C225.75 86.2 226.05 88.51 226.08 89.86L223.89 90.19C223.86 88.78 223.65 86.44 223.29 84.64ZM229.47 84.58L231.57 84.22C232.38 85.93 233.19 88.24 233.49 89.68L231.27 90.13C231 88.72 230.25 86.38 229.47 84.58ZM235.65 84.43L237.72 83.68C238.89 85.45 240.27 87.94 240.93 89.41L238.71 90.37C238.14 88.84 236.79 86.32 235.65 84.43ZM218.22 83.8L220.35 84.34C219.57 86.32 218.37 88.81 217.29 90.43L215.13 89.59C216.21 88.12 217.47 85.75 218.22 83.8ZM259.05 67.03H270.39V69.07H259.05V67.03ZM258.45 73.6H271.47V75.67H258.45V73.6ZM263.67 62.83H265.71V70.87C265.71 76.36 264.84 81.88 258.66 86.08C258.33 85.63 257.67 85.06 257.16 84.67C262.92 80.74 263.67 75.58 263.67 70.87V62.83ZM244.47 65.29H258.3V67.15H244.47V65.29ZM246.93 78.76C249.48 86.38 254.88 87.64 262.35 87.64C263.73 87.64 270.21 87.64 271.95 87.58C271.59 88.12 271.17 89.17 271.02 89.83H262.32C253.89 89.83 248.22 88.21 245.37 79.39L246.93 78.76ZM249.69 76.24L251.52 76.69C250.2 79.93 247.8 82.9 245.1 84.79C244.95 84.37 244.47 83.38 244.11 82.96C246.42 81.4 248.55 78.97 249.69 76.24ZM246.81 67.9L248.37 68.32C247.68 70.66 246.48 73.06 245.1 74.59C244.95 74.23 244.47 73.42 244.14 73.09C245.31 71.8 246.3 69.91 246.81 67.9ZM249.09 78.31H255.51V80.14H248.13L249.09 78.31ZM255 78.31H255.45L255.81 78.22L257.04 78.85C255 84.97 250.44 88.63 245.25 90.49C245.01 90.04 244.41 89.2 243.99 88.84C249 87.22 253.32 83.92 255 78.67V78.31ZM250.35 62.86H252.36V73.63H250.35V62.86ZM246.48 70.75L247.5 69.76C248.37 70.45 249.36 71.35 249.84 71.92L248.76 73.09C248.25 72.46 247.29 71.44 246.48 70.75ZM255.21 67.96L256.68 68.32C256.14 70.06 255.12 71.89 254.1 73.06C253.83 72.82 253.17 72.43 252.81 72.25C253.86 71.11 254.7 69.55 255.21 67.96ZM254.64 70.96L255.66 69.91C256.74 70.69 258.03 71.74 258.66 72.4L257.58 73.63C256.95 72.91 255.66 71.74 254.64 70.96ZM250.8 72.58L252.39 73.21C250.74 75.07 247.68 76.81 244.92 77.59C244.62 77.08 244.05 76.36 243.63 76C246.3 75.4 249.27 74.05 250.8 72.58ZM250.8 74.23L251.82 72.76C253.8 73.66 256.5 74.98 257.88 75.85L256.86 77.5C255.48 76.6 252.81 75.19 250.8 74.23ZM263.97 76.03L265.59 75.13C267.72 78.1 270.36 82.09 271.59 84.46L269.82 85.57C268.65 83.17 266.07 79.06 263.97 76.03ZM285.69 62.92L287.1 64.3C284.55 65.11 280.65 65.56 277.38 65.74C277.29 65.32 277.05 64.69 276.84 64.27C279.96 64.03 283.68 63.55 285.69 62.92ZM298.44 62.92L299.97 64.27C297.27 65.11 293.1 65.53 289.62 65.71C289.53 65.29 289.29 64.63 289.05 64.21C292.38 64 296.34 63.58 298.44 62.92ZM277.71 67.3H287.61V69.04H277.71V67.3ZM289.98 67.3H301.41V69.04H289.98V67.3ZM282.21 67.81H284.25V72.67H282.21V67.81ZM294.69 67.84H296.73V72.79H294.69V67.84ZM280.74 78.37V80.5H295.14V78.37H280.74ZM280.74 81.94V84.13H295.14V81.94H280.74ZM280.74 74.8V76.9H295.14V74.8H280.74ZM278.55 73.3H297.42V85.66H278.55V73.3ZM290.94 87.25L291.84 85.78C295.23 86.68 298.83 87.91 301.08 88.84L300 90.46C297.84 89.5 294.33 88.24 290.94 87.25ZM283.53 85.81L285.27 86.77C282.78 88.18 278.85 89.68 275.82 90.55C275.67 90.13 275.07 89.08 274.71 88.63C277.62 88 281.31 86.92 283.53 85.81ZM276.84 64.27H278.82V66.73C278.82 68.92 278.28 71.65 275.88 73.6C275.58 73.18 274.8 72.4 274.38 72.13C276.51 70.48 276.84 68.41 276.84 66.7V64.27ZM289.05 64.21H291V66.46C291 68.5 290.58 71.23 288.63 73.12C288.27 72.76 287.43 72.16 286.98 71.95C288.75 70.24 289.05 68.08 289.05 66.43V64.21ZM317.13 74.38H331.77V76.57H317.13V74.38ZM315.27 64.18H331.26V66.28H315.27V64.18ZM324.66 75.34L326.67 76.15C323.91 80.95 319.14 85.78 314.94 88.39C314.55 87.79 313.83 86.92 313.29 86.47C317.4 84.22 322.17 79.6 324.66 75.34ZM325.62 64.93H327.81V87.43C327.81 88.93 327.45 89.62 326.49 89.98C325.5 90.37 323.85 90.43 321.21 90.43C321.12 89.8 320.76 88.78 320.43 88.12C322.47 88.18 324.3 88.15 324.87 88.15C325.41 88.12 325.62 87.97 325.62 87.43V64.93ZM317.64 65.5L319.77 65.71C319.26 69.22 318.42 73.87 317.85 76.57H315.6C316.32 73.75 317.13 68.98 317.64 65.5ZM306.36 65.56H313.89V83.02H306.36V80.86H311.82V67.72H306.36V65.56ZM305.22 65.56H307.32V85.39H305.22V65.56ZM338.34 81.37C337.62 76.15 342.96 74.23 342.96 70.69C342.96 68.89 341.85 67.42 339.72 67.42C338.22 67.42 336.87 68.14 335.82 69.34L334.26 67.9C335.67 66.34 337.56 65.14 339.99 65.14C343.41 65.14 345.63 67.21 345.63 70.51C345.63 74.92 340.2 76.66 340.77 81.37H338.34ZM339.63 88.42C338.52 88.42 337.65 87.55 337.65 86.32C337.65 85.06 338.52 84.22 339.63 84.22C340.71 84.22 341.61 85.06 341.61 86.32C341.61 87.55 340.71 88.42 339.63 88.42Z" fill="#492300"/>
</g>
<defs>
<clipPath id="clip0_462_14310">
<rect width="413.94" height="149.47" fill="white"/>
</clipPath>
</defs>
</svg>
