<svg width="395" height="54" viewBox="0 0 395 54" fill="none" xmlns="http://www.w3.org/2000/svg">
<path d="M60.5349 14.8L63.2049 15.64C61.2249 20.8 58.1049 26.08 54.7749 29.53C54.5049 28.84 53.6949 27.34 53.2149 26.65C56.1249 23.77 58.8849 19.3 60.5349 14.8ZM57.6249 22.78L60.3549 20.02L60.3849 20.05V42.49H57.6249V22.78ZM62.1249 24.88H80.9949V27.67H62.1249V24.88ZM70.2549 15.07H73.1949V42.52H70.2549V15.07ZM88.5549 16.99H112.105V19.48H88.5549V16.99ZM87.0249 16.99H89.7249V25.42C89.7249 30.28 89.3349 37.72 87.0549 42.61C86.5749 42.1 85.3749 41.2 84.7749 40.93C86.8749 36.4 87.0249 29.92 87.0249 25.42V16.99ZM97.8849 15.04L100.735 14.5C101.095 15.4 101.515 16.63 101.665 17.41L98.6949 18.07C98.5749 17.26 98.1849 16 97.8849 15.04ZM90.9249 21.88H100.465V24.07H90.9249V21.88ZM101.275 21.88H111.745V24.07H101.275V21.88ZM94.4949 20.32H96.6849V30.76H94.4949V20.32ZM105.055 20.32H107.245V30.7H105.055V20.32ZM104.935 36.07L107.005 35.05C108.595 36.94 110.725 39.58 111.835 41.14L109.615 42.34C108.625 40.75 106.525 38.02 104.935 36.07ZM91.1649 41.98L91.1349 40.27L92.6649 39.49L108.985 38.35C108.955 38.95 109.045 39.97 109.135 40.45C93.7749 41.59 92.1549 41.65 91.1649 41.98ZM91.1649 41.98C91.0749 41.5 90.7449 40.27 90.5049 39.64C91.4049 39.52 92.4849 39.07 94.0149 38.32C95.6949 37.57 101.065 34.72 105.115 31.51L107.215 32.98C102.535 36.4 97.5249 39.04 92.8449 40.87V40.93C92.8449 40.93 91.1649 41.53 91.1649 41.98ZM92.3949 36.76V35.32L93.5349 34.75L101.755 34.39C101.455 34.87 101.095 35.65 100.945 36.04C93.9249 36.4 92.9649 36.55 92.3949 36.76ZM92.3949 36.76C92.3049 36.28 91.9749 35.17 91.7349 34.54C92.3049 34.48 92.9349 34.21 93.6849 33.79C94.4949 33.37 97.1349 31.72 99.0549 29.95L101.005 31.18C98.7549 33.01 96.1449 34.6 93.7449 35.65V35.71C93.7449 35.71 92.3949 36.28 92.3949 36.76ZM91.5249 25.12H93.2049V26.47C93.2049 28.09 92.9949 29.95 91.4949 31.3C91.1949 30.91 90.5049 30.34 90.0549 30.13C91.3449 29.14 91.5249 27.58 91.5249 26.41V25.12ZM102.175 25.09H103.825V26.35C103.825 27.88 103.615 29.62 102.205 30.85C101.935 30.49 101.215 29.92 100.765 29.71C101.995 28.84 102.175 27.37 102.175 26.29V25.09ZM97.7049 25.24H99.3549V28.09C99.3549 28.6 99.3849 28.72 99.6549 28.72C99.7749 28.72 99.6549 28.72 99.7749 28.72C99.9849 28.72 100.465 28.72 100.765 28.63C100.795 29.02 100.795 29.47 100.825 29.86C100.615 29.92 100.195 29.95 99.8049 29.95C99.5949 29.95 99.5049 29.95 99.2049 29.95C97.9449 29.95 97.7049 29.38 97.7049 28.06V25.24ZM108.325 25.09H110.035V28.39C110.035 28.93 110.065 29.08 110.425 29.08C110.575 29.08 110.935 29.08 111.145 29.08C111.415 29.08 111.985 29.05 112.285 28.96C112.285 29.35 112.315 29.83 112.375 30.25C112.135 30.34 111.625 30.34 111.175 30.34C110.905 30.34 110.305 30.34 109.975 30.34C108.595 30.34 108.325 29.74 108.325 28.36V25.09ZM117.025 27.73H143.575V30.25H117.025V27.73ZM130.405 33.13H141.625V35.59H130.405V33.13ZM129.115 28.96H131.995V40.21H129.115V28.96ZM123.775 33.79C125.515 38.47 129.415 39.31 135.025 39.34C136.405 39.34 142.465 39.34 144.295 39.28C143.875 39.91 143.425 41.17 143.275 42.01H134.905C127.915 42.01 123.835 40.75 121.435 34.6L123.775 33.79ZM121.915 31.09L124.735 31.48C123.775 36.46 121.615 40.21 118.315 42.58C117.895 42.07 116.785 41.02 116.155 40.6C119.275 38.62 121.165 35.32 121.915 31.09ZM122.755 21.88V23.92H137.575V21.88H122.755ZM122.755 17.92V19.93H137.575V17.92H122.755ZM120.025 15.82H140.455V25.99H120.025V15.82ZM162.925 18.58H174.235V21.1H162.925V18.58ZM162.265 25.15H175.315V27.73H162.265V25.15ZM167.275 14.71H169.855V22.87C169.855 28.33 168.925 33.85 162.925 38.02C162.505 37.45 161.695 36.73 161.065 36.25C166.555 32.41 167.275 27.4 167.275 22.87V14.71ZM148.195 17.05H162.175V19.33H148.195V17.05ZM150.775 30.67C153.325 38.05 158.485 39.19 165.655 39.19C167.305 39.19 173.815 39.22 175.855 39.13C175.405 39.79 174.895 41.11 174.715 41.95H165.625C157.285 41.95 151.705 40.36 148.855 31.42L150.775 30.67ZM153.325 28.24L155.575 28.78C154.255 32.14 151.855 35.17 148.975 37.06C148.795 36.52 148.225 35.32 147.805 34.78C150.175 33.31 152.245 30.94 153.325 28.24ZM150.295 19.87L152.155 20.38C151.465 22.63 150.235 25.03 148.915 26.53C148.735 26.14 148.135 25.18 147.775 24.76C148.855 23.53 149.815 21.73 150.295 19.87ZM152.845 30.22H159.175V32.47H151.675L152.845 30.22ZM158.605 30.22H159.145L159.565 30.13L161.095 30.91C159.055 37.09 154.465 40.78 149.185 42.64C148.915 42.07 148.165 41.02 147.685 40.6C152.725 39.04 156.985 35.77 158.605 30.67V30.22ZM153.865 14.71H156.385V25.6H153.865V14.71ZM150.115 22.81L151.315 21.61C152.155 22.3 153.085 23.17 153.565 23.74L152.305 25.12C151.825 24.49 150.895 23.5 150.115 22.81ZM158.875 19.93L160.645 20.38C160.075 22.09 159.085 23.92 158.155 25.12C157.795 24.85 157.015 24.4 156.595 24.19C157.585 23.05 158.395 21.46 158.875 19.93ZM158.395 23.02L159.595 21.76C160.645 22.51 161.875 23.5 162.505 24.13L161.245 25.6C160.615 24.91 159.385 23.8 158.395 23.02ZM154.435 24.37L156.415 25.09C154.765 27.1 151.795 28.9 148.915 29.71C148.555 29.11 147.865 28.18 147.325 27.73C150.055 27.16 152.965 25.84 154.435 24.37ZM154.465 26.44L155.695 24.61C157.675 25.45 160.405 26.74 161.815 27.64L160.555 29.68C159.205 28.78 156.475 27.37 154.465 26.44ZM167.785 28.21L169.795 27.07C171.835 29.92 174.385 33.76 175.555 36.13L173.395 37.51C172.285 35.14 169.795 31.15 167.785 28.21ZM190.825 14.77L192.505 16.48C189.895 17.35 185.905 17.8 182.605 17.95C182.515 17.44 182.245 16.66 181.975 16.12C185.125 15.91 188.815 15.46 190.825 14.77ZM203.605 14.77L205.435 16.39C202.675 17.29 198.445 17.74 194.905 17.89C194.815 17.38 194.515 16.57 194.245 16.06C197.575 15.88 201.505 15.46 203.605 14.77ZM183.085 19.18H192.955V21.31H183.085V19.18ZM195.385 19.18H206.725V21.31H195.385V19.18ZM187.285 19.84H189.805V24.7H187.285V19.84ZM199.675 19.9H202.225V24.82H199.675V19.9ZM186.445 30.58V32.35H199.975V30.58H186.445ZM186.445 34.06V35.89H199.975V34.06H186.445ZM186.445 27.1V28.87H199.975V27.1H186.445ZM183.685 25.3H202.855V37.69H183.685V25.3ZM196.105 39.37L197.185 37.54C200.575 38.47 204.235 39.7 206.485 40.63L205.165 42.64C203.005 41.68 199.465 40.36 196.105 39.37ZM188.665 37.6L190.825 38.83C188.275 40.27 184.285 41.8 181.255 42.7C181.045 42.19 180.325 40.87 179.875 40.3C182.785 39.7 186.445 38.65 188.665 37.6ZM181.975 16.12H184.435V18.46C184.435 20.77 183.865 23.68 181.315 25.72C180.955 25.21 179.965 24.25 179.455 23.92C181.645 22.21 181.975 20.11 181.975 18.4V16.12ZM194.245 16.06H196.645V18.34C196.645 20.5 196.225 23.35 194.185 25.3C193.735 24.85 192.685 24.13 192.115 23.86C193.975 22.15 194.245 19.96 194.245 18.28V16.06ZM215.095 32.98C214.375 27.91 219.625 25.99 219.625 22.75C219.625 21.07 218.575 19.84 216.685 19.84C215.275 19.84 214.045 20.53 213.025 21.67L211.075 19.87C212.545 18.19 214.555 16.99 217.075 16.99C220.585 16.99 222.985 18.97 222.985 22.51C222.985 26.86 217.645 28.48 218.155 32.98H215.095ZM216.685 40.42C215.365 40.42 214.375 39.4 214.375 37.99C214.375 36.55 215.365 35.56 216.685 35.56C217.975 35.56 218.995 36.55 218.995 37.99C218.995 39.4 217.975 40.42 216.685 40.42ZM233.371 14.41L235.861 15.22C234.151 18.64 231.451 21.97 228.721 24.1C228.421 23.59 227.581 22.36 227.041 21.85C229.531 20.08 231.961 17.32 233.371 14.41ZM232.861 18.01H253.531V20.53H232.051L232.861 18.01ZM228.631 25.06H253.771V27.61H228.631V25.06ZM227.671 32.17H254.401V34.72H227.671V32.17ZM237.301 22H239.701V33.55H237.301V22ZM232.081 22H234.631V33.64H232.081V22ZM242.671 22H245.071V33.64H242.671V22ZM247.951 22H250.561V33.64H247.951V22ZM236.131 36.67L238.741 36.4C239.131 38.2 239.461 40.54 239.491 41.92L236.701 42.34C236.701 40.9 236.461 38.5 236.131 36.67ZM242.281 36.61L244.921 36.16C245.701 37.9 246.511 40.24 246.781 41.68L243.961 42.25C243.721 40.81 243.001 38.44 242.281 36.61ZM248.431 36.52L251.041 35.5C252.241 37.3 253.681 39.79 254.371 41.32L251.581 42.55C251.011 40.99 249.601 38.44 248.431 36.52ZM231.031 35.65L233.761 36.37C232.951 38.41 231.661 40.96 230.581 42.61L227.821 41.5C228.901 40.06 230.221 37.69 231.031 35.65ZM273.691 18.58H285.001V21.1H273.691V18.58ZM273.031 25.15H286.081V27.73H273.031V25.15ZM278.041 14.71H280.621V22.87C280.621 28.33 279.691 33.85 273.691 38.02C273.271 37.45 272.461 36.73 271.831 36.25C277.321 32.41 278.041 27.4 278.041 22.87V14.71ZM258.961 17.05H272.941V19.33H258.961V17.05ZM261.541 30.67C264.091 38.05 269.251 39.19 276.421 39.19C278.071 39.19 284.581 39.22 286.621 39.13C286.171 39.79 285.661 41.11 285.481 41.95H276.391C268.051 41.95 262.471 40.36 259.621 31.42L261.541 30.67ZM264.091 28.24L266.341 28.78C265.021 32.14 262.621 35.17 259.741 37.06C259.561 36.52 258.991 35.32 258.571 34.78C260.941 33.31 263.011 30.94 264.091 28.24ZM261.061 19.87L262.921 20.38C262.231 22.63 261.001 25.03 259.681 26.53C259.501 26.14 258.901 25.18 258.541 24.76C259.621 23.53 260.581 21.73 261.061 19.87ZM263.611 30.22H269.941V32.47H262.441L263.611 30.22ZM269.371 30.22H269.911L270.331 30.13L271.861 30.91C269.821 37.09 265.231 40.78 259.951 42.64C259.681 42.07 258.931 41.02 258.451 40.6C263.491 39.04 267.751 35.77 269.371 30.67V30.22ZM264.631 14.71H267.151V25.6H264.631V14.71ZM260.881 22.81L262.081 21.61C262.921 22.3 263.851 23.17 264.331 23.74L263.071 25.12C262.591 24.49 261.661 23.5 260.881 22.81ZM269.641 19.93L271.411 20.38C270.841 22.09 269.851 23.92 268.921 25.12C268.561 24.85 267.781 24.4 267.361 24.19C268.351 23.05 269.161 21.46 269.641 19.93ZM269.161 23.02L270.361 21.76C271.411 22.51 272.641 23.5 273.271 24.13L272.011 25.6C271.381 24.91 270.151 23.8 269.161 23.02ZM265.201 24.37L267.181 25.09C265.531 27.1 262.561 28.9 259.681 29.71C259.321 29.11 258.631 28.18 258.091 27.73C260.821 27.16 263.731 25.84 265.201 24.37ZM265.231 26.44L266.461 24.61C268.441 25.45 271.171 26.74 272.581 27.64L271.321 29.68C269.971 28.78 267.241 27.37 265.231 26.44ZM278.551 28.21L280.561 27.07C282.601 29.92 285.151 33.76 286.321 36.13L284.161 37.51C283.051 35.14 280.561 31.15 278.551 28.21ZM301.591 14.77L303.271 16.48C300.661 17.35 296.671 17.8 293.371 17.95C293.281 17.44 293.011 16.66 292.741 16.12C295.891 15.91 299.581 15.46 301.591 14.77ZM314.371 14.77L316.201 16.39C313.441 17.29 309.211 17.74 305.671 17.89C305.581 17.38 305.281 16.57 305.011 16.06C308.341 15.88 312.271 15.46 314.371 14.77ZM293.851 19.18H303.721V21.31H293.851V19.18ZM306.151 19.18H317.491V21.31H306.151V19.18ZM298.051 19.84H300.571V24.7H298.051V19.84ZM310.441 19.9H312.991V24.82H310.441V19.9ZM297.211 30.58V32.35H310.741V30.58H297.211ZM297.211 34.06V35.89H310.741V34.06H297.211ZM297.211 27.1V28.87H310.741V27.1H297.211ZM294.451 25.3H313.621V37.69H294.451V25.3ZM306.871 39.37L307.951 37.54C311.341 38.47 315.001 39.7 317.251 40.63L315.931 42.64C313.771 41.68 310.231 40.36 306.871 39.37ZM299.431 37.6L301.591 38.83C299.041 40.27 295.051 41.8 292.021 42.7C291.811 42.19 291.091 40.87 290.641 40.3C293.551 39.7 297.211 38.65 299.431 37.6ZM292.741 16.12H295.201V18.46C295.201 20.77 294.631 23.68 292.081 25.72C291.721 25.21 290.731 24.25 290.221 23.92C292.411 22.21 292.741 20.11 292.741 18.4V16.12ZM305.011 16.06H307.411V18.34C307.411 20.5 306.991 23.35 304.951 25.3C304.501 24.85 303.451 24.13 302.881 23.86C304.741 22.15 305.011 19.96 305.011 18.28V16.06ZM333.601 32.56C332.821 27.7 339.571 26.47 339.571 23.26C339.571 21.31 338.101 20.02 335.371 20.02C333.391 20.02 331.681 20.89 330.061 22.6L328.081 20.77C330.031 18.61 332.491 17.2 335.731 17.2C340.021 17.2 342.931 19.3 342.931 22.99C342.931 27.46 336.031 28.21 336.691 32.56H333.601ZM335.191 40.21C333.901 40.21 332.941 39.31 332.941 37.96C332.941 36.58 333.931 35.65 335.191 35.65C336.451 35.65 337.411 36.58 337.411 37.96C337.411 39.31 336.451 40.21 335.191 40.21Z" fill="#8D521E"/>
<path d="M11.0319 50.7522C11.5094 50.4444 11.4004 50.1103 12.0379 49.1826C12.1732 48.9866 12.5734 48.4109 13.1406 47.9471C13.952 47.2817 14.8049 47.0898 14.9746 47.0442C16.287 46.6908 22.7234 42.6736 27.4707 36.188C34.3197 26.831 35.8184 14.8456 33.6256 9.04753C33.6256 9.04753 32.2842 5.50242 28.7817 2.81184C28.0613 2.25827 27.3465 1.909 26.6013 2.02082C26.0162 2.10917 25.6035 2.4543 24.8859 3.05481C23.9765 3.81546 23.8564 4.17991 23.2189 4.72383C22.2984 5.50656 21.3738 5.74815 20.8466 5.92209C18.375 6.73796 13.204 9.84545 9.47799 13.8171C7.54458 15.8782 6.4171 17.7281 5.71743 18.8891C3.16439 23.1272 2.06176 27.1016 1.54149 29.7494C0.956363 32.7437 0.407115 37.9288 2.39572 43.339C2.39572 43.339 4.44368 48.9106 7.88131 50.5451C8.62928 50.8999 9.45453 50.9676 9.45453 50.9676C10.0107 51.0131 10.5572 51.0573 11.0319 50.7522Z" stroke="#8D521E" stroke-width="2" stroke-miterlimit="10"/>
<path d="M12.8013 10.7626C14.2793 10.5721 16.9358 10.4285 20.0077 11.4211C23.7987 12.6456 26.1585 14.9317 27.1949 16.0733" stroke="#8D521E" stroke-width="2" stroke-miterlimit="10"/>
<path d="M1 33.0783C2.29446 32.7884 4.27617 32.5219 6.61806 32.9209C10.9265 33.6539 13.6838 36.165 14.7215 37.2211" stroke="#8D521E" stroke-width="2" stroke-miterlimit="10"/>
<path d="M19.9382 21.8542C21.4176 22.3043 23.9845 23.2982 26.492 25.5195C28.7331 27.506 29.9834 29.6375 30.6375 30.9793" stroke="#8D521E" stroke-width="2" stroke-miterlimit="10"/>
<path d="M370.032 50.7522C370.509 50.4444 370.4 50.1103 371.038 49.1826C371.173 48.9866 371.573 48.4109 372.141 47.9471C372.952 47.2817 373.805 47.0898 373.975 47.0442C375.287 46.6908 381.723 42.6736 386.471 36.188C393.32 26.831 394.818 14.8456 392.626 9.04753C392.626 9.04753 391.284 5.50242 387.782 2.81184C387.061 2.25827 386.346 1.909 385.601 2.02082C385.016 2.10917 384.604 2.4543 383.886 3.05481C382.976 3.81546 382.856 4.17991 382.219 4.72383C381.298 5.50656 380.374 5.74815 379.847 5.92209C377.375 6.73796 372.204 9.84545 368.478 13.8171C366.545 15.8782 365.417 17.7281 364.717 18.8891C362.164 23.1272 361.062 27.1016 360.541 29.7494C359.956 32.7437 359.407 37.9288 361.396 43.339C361.396 43.339 363.444 48.9106 366.881 50.5451C367.629 50.8999 368.455 50.9676 368.455 50.9676C369.011 51.0131 369.557 51.0573 370.032 50.7522Z" stroke="#8D521E" stroke-width="2" stroke-miterlimit="10"/>
<path d="M371.801 10.7626C373.279 10.5721 375.936 10.4285 379.008 11.4211C382.799 12.6456 385.158 14.9317 386.195 16.0733" stroke="#8D521E" stroke-width="2" stroke-miterlimit="10"/>
<path d="M360 33.0783C361.294 32.7884 363.276 32.5219 365.618 32.9209C369.926 33.6539 372.684 36.165 373.722 37.2211" stroke="#8D521E" stroke-width="2" stroke-miterlimit="10"/>
<path d="M378.938 21.8542C380.418 22.3043 382.984 23.2982 385.492 25.5195C387.733 27.506 388.983 29.6375 389.638 30.9793" stroke="#8D521E" stroke-width="2" stroke-miterlimit="10"/>
</svg>
