<svg width="1714" height="30" viewBox="0 0 1714 30" fill="none" xmlns="http://www.w3.org/2000/svg">
<path d="M1.06604 1.00635L7.94195 5.30356L15.0631 2.6568L22.0776 2.9889L29.0601 4.267L35.9253 9.23849L42.8652 12.157L50.0183 7.95033L56.9262 11.5632L64.026 9.1781L71.2323 3.00903L78.0016 11.9255L85.1761 6.44077L92.2865 3.44177L99.1731 8.56421L106.284 5.20293L113.33 4.40789L120.302 6.56153L127.327 6.42064L134.363 6.01809L141.377 6.27975L148.264 12.9621L155.257 14.4112L162.357 11.2009L169.329 14.0087L176.439 10.2247L183.528 6.62191L190.479 11.3217L197.429 15.5384L204.465 15.2667L211.629 6.56153L218.59 10.9292L225.615 11.1909L232.64 10.9594L239.612 14.7735L246.712 9.55046L253.748 8.57428L260.773 8.20192L267.809 7.29618L274.759 14.8742L281.849 8.11135L288.852 10.3757L295.846 14.4918L302.881 13.3948L309.896 16.6857L316.942 14.5018L323.978 13.5055L331.025 10.4864L338.05 11.1305L345.086 7.24586L352.079 16.1825L359.115 14.7232L366.161 9.75174L373.186 9.60078L380.211 15.2365L387.247 7.85975L394.272 12.4991L401.298 7.61822L408.333 9.55046L415.358 7.02446L422.394 8.23211L429.441 14.1697L436.381 12.9218L443.31 8.69504L450.26 11.1405L457.19 8.61453L464.161 15.4377L471.091 11.6739L478.041 12.6098L484.96 9.35925L491.942 13.2439L498.85 9.2888L505.811 11.9356L512.805 16.1422L519.744 15.5686L526.578 7.17542L533.582 12.1771L540.447 6.64204L547.504 13.6766L554.327 7.14523L561.394 13.7068L568.185 5.95771L575.242 12.0563L582.214 13.3445L589.143 12.6199L596.051 10.9191L602.863 5.89732L609.952 11.6135L616.753 6.11873L623.779 9.45989L630.612 5.01172L637.637 8.1516L644.684 12.2979L651.506 7.55784L658.467 8.41326L665.407 8.03084L672.294 5.75643L679.362 12.2174L686.248 9.64103L693.177 9.67123L700.085 7.62829L706.993 3.80407L713.954 7.41695L720.894 6.29987L727.834 10.4361L734.774 7.05465L741.693 11.1607L748.622 10.3656L755.594 6.47096L762.459 12.6501L769.484 6.03822L776.328 11.5028L783.268 11.3519L790.24 9.41963L797.212 7.97045L804.237 4.64942L811.059 9.52027L818.074 9.91276L825.046 11.9859L832.156 8.78562L839.299 4.77019L846.249 7.21567L853.018 14.7534L860.139 11.8349L867.143 12.167L874.35 7.48739L881.066 15.4076L888.155 13.6867L895.18 13.576L902.109 15.8101L909.198 14.371L916.319 12.3784L923.217 14.9346L930.53 9.08753L937.267 15.1056L944.303 14.8339L951.264 16.1623L958.342 15.0855L965.197 18.2355L972.244 17.8229L979.599 11.8349L986.209 19.4532L993.596 12.8413L1000.21 20.4596L1007.55 14.532L1014.22 20.9728L1021.58 14.844L1028.66 13.7571L1035.47 17.7524L1042.51 17.3297L1049.56 16.5749L1056.48 18.6581L1063.38 21.1238L1070.45 20.218L1077.57 17.853L1084.59 17.6417L1091.31 24.6662L1098.4 23.0258L1105.43 22.8849L1112.48 22.0396L1119.42 24.475L1126.61 19.8457L1133.52 22.7038L1140.64 19.8054L1147.45 27.001L1154.7 19.0406L1161.74 18.0342L1168.55 25.6524L1175.62 23.9215L1182.73 19.735L1189.69 22.0899L1196.78 18.5173L1203.67 25.3304L1210.7 24.8675L1217.68 27.8463L1224.84 18.6179L1231.8 22.5327L1238.87 18.9399L1245.87 19.8658L1252.79 28.42L1259.83 28.7722L1266.78 24.7165L1273.69 25.4713L1280.65 19.6444L1287.48 28.8326L1294.42 25.7028L1301.34 23.7202L1308.26 22.4119L1315.15 25.9242L1322.09 19.7652L1328.98 28.9936L1335.91 25.8839L1342.82 27.1721L1349.74 21.0835L1356.64 26.5582L1363.56 28.2589L1370.47 25.0285L1377.37 23.841L1384.3 26.9104L1391.19 25.8738L1398.11 27.3633L1405.02 26.9809L1411.93 26.84L1418.85 27.7759L1425.71 22.5025L1432.62 22.6031L1439.53 23.056L1446.46 26.3972L1453.43 22.4723L1460.51 27.0211L1467.53 27.6551L1474.46 20.7514L1481.48 20.4696L1488.6 27.2023L1495.5 19.8155L1502.56 22.744L1509.63 25.904L1516.58 22.0094L1523.64 24.3945L1530.62 22.3012L1537.66 23.0359L1544.63 20.9225L1551.63 20.4596L1558.71 23.0661L1565.82 26.7695L1572.64 18.7688L1579.73 21.4458L1586.81 23.6598L1593.76 21.1238L1600.76 20.3287L1607.76 19.8457L1614.67 16.102L1621.93 24.4045L1628.9 22.7239L1635.75 17.3096L1642.77 17.1687L1649.75 16.3435L1656.87 19.3928L1664.06 24.2938L1671.04 23.1969L1678 21.4257L1684.75 14.0691L1691.93 18.7688L1698.8 14.9044L1705.75 13.3948L1712.93 17.9134" stroke="#DDA15E" stroke-width="2" stroke-linecap="round" stroke-linejoin="round"/>
</svg>
