<svg width="30" height="36" viewBox="0 0 30 36" fill="none" xmlns="http://www.w3.org/2000/svg">
<path d="M6.25 15.133C6.25 22.1412 11.5556 27.9367 13.904 30.1586C14.2401 30.4766 14.4101 30.6375 14.6609 30.7191C14.8561 30.7826 15.1435 30.7826 15.3387 30.7191C15.59 30.6374 15.7588 30.4781 16.0962 30.1589C18.4446 27.9369 23.7499 22.1418 23.7499 15.1336C23.7499 12.4815 22.8281 9.93763 21.1871 8.06226C19.5462 6.1869 17.3207 5.13333 15.0001 5.13333C12.6795 5.13333 10.4538 6.18706 8.81282 8.06242C7.17187 9.93779 6.25 12.4808 6.25 15.133Z" stroke="#492300" stroke-width="2" stroke-linecap="round" stroke-linejoin="round"/>
<path d="M12.5 13.8C12.5 15.3955 13.6193 16.6889 15 16.6889C16.3807 16.6889 17.5 15.3955 17.5 13.8C17.5 12.2045 16.3807 10.9111 15 10.9111C13.6193 10.9111 12.5 12.2045 12.5 13.8Z" stroke="#492300" stroke-width="2" stroke-linecap="round" stroke-linejoin="round"/>
</svg>
