<svg width="30" height="35" viewBox="0 0 30 35" fill="none" xmlns="http://www.w3.org/2000/svg">
<path d="M11.8781 6.26044C11.4984 5.16365 10.5791 4.44446 9.55688 4.44446H6.11842C4.81038 4.44446 3.75 5.66949 3.75 7.181C3.75 20.0289 12.7635 30.4444 23.8818 30.4444C25.1899 30.4444 26.25 29.219 26.25 27.7075L26.2506 23.7335C26.2506 22.5522 25.6284 21.4901 24.6792 21.0514L21.3837 19.5287C20.5311 19.1346 19.5604 19.312 18.8549 19.9913L18.0044 20.811C17.0111 21.7675 15.5495 21.6914 14.6352 20.6349L12.2403 17.8649C11.326 16.8084 11.2584 15.1208 12.0862 13.973L12.7954 12.9902C13.3833 12.1751 13.5381 11.053 13.1971 10.0678L11.8781 6.26044Z" stroke="#492300" stroke-width="2" stroke-linecap="round" stroke-linejoin="round"/>
</svg>
